<svg width="1797" height="1002" viewBox="0 0 1797 1002" fill="none" xmlns="http://www.w3.org/2000/svg">
<path d="M173.398 54.6194L182.744 74.0883L182.907 74.4286L183.279 74.3648L202.32 71.0967L189.06 86.5566L188.848 86.8043L188.989 87.0985L198.397 106.696L180.936 96.6542L180.577 96.4477L180.307 96.7622L167.194 112.051L169.529 90.4385L169.564 90.1141L169.281 89.9514L151.625 79.7976L170.666 76.5295L171.038 76.4657L171.079 76.0904L173.398 54.6194Z" fill="#FBFBFB" stroke="#D9D9D9"/>
<path d="M28.3979 6.61941L37.7438 26.0883L37.9071 26.4286L38.2791 26.3648L57.3199 23.0967L44.0604 38.5566L43.8479 38.8043L43.9891 39.0985L53.3965 58.6957L35.9362 48.6542L35.5771 48.4477L35.3074 48.7622L22.1945 64.051L24.529 42.4385L24.564 42.1141L24.2811 41.9514L6.62538 31.7976L25.6662 28.5295L26.0382 28.4657L26.0788 28.0904L28.3979 6.61941Z" fill="#FBFBFB" stroke="#D9D9D9"/>
<path d="M677.398 798.619L686.744 818.088L686.907 818.429L687.279 818.365L706.32 815.097L693.06 830.557L692.848 830.804L692.989 831.099L702.397 850.696L684.936 840.654L684.577 840.448L684.307 840.762L671.194 856.051L673.529 834.439L673.564 834.114L673.281 833.951L655.625 823.798L674.666 820.53L675.038 820.466L675.079 820.09L677.398 798.619Z" fill="#FBFBFB" stroke="#D9D9D9"/>
<path d="M714.87 175.616L714.225 197.202L714.214 197.579L714.573 197.693L732.987 203.54L714.106 211.178L713.804 211.301L713.794 211.627L713.145 233.356L702.251 216.414L702.027 216.066L701.643 216.221L682.971 223.775L694.975 205.652L695.155 205.38L694.979 205.105L683.963 187.974L702.376 193.821L702.736 193.935L702.944 193.62L714.87 175.616Z" fill="#FBFBFB" stroke="#D9D9D9"/>
<path d="M1675.28 381.364L1674.64 402.95L1674.63 403.327L1674.99 403.441L1693.4 409.288L1674.52 416.926L1674.22 417.049L1674.21 417.375L1673.56 439.104L1662.66 422.162L1662.44 421.814L1662.05 421.969L1643.38 429.523L1655.39 411.4L1655.57 411.128L1655.39 410.853L1644.37 393.722L1662.79 399.569L1663.15 399.683L1663.36 399.368L1675.28 381.364Z" fill="#FBFBFB" stroke="#D9D9D9"/>
<path d="M939.815 117.212L948.51 136.98L948.662 137.326L949.036 137.274L968.175 134.64L954.41 149.651L954.189 149.892L954.321 150.19L963.073 170.089L945.955 159.474L945.603 159.255L945.323 159.561L931.71 174.406L934.76 152.883L934.806 152.56L934.529 152.388L917.22 141.654L936.358 139.019L936.732 138.968L936.785 138.594L939.815 117.212Z" fill="#FBFBFB" stroke="#D9D9D9"/>
<path d="M1185.97 27.008L1175.8 46.0633L1175.63 46.3964L1175.9 46.6584L1189.8 60.0728L1169.49 58.5338L1169.17 58.5092L1169.01 58.7971L1158.78 77.978L1156.54 57.9609L1156.5 57.5492L1156.08 57.5179L1136 55.9959L1154.8 45.0873L1155.08 44.9235L1155.05 44.5992L1152.78 24.3582L1166.69 37.7726L1166.96 38.0346L1167.29 37.8452L1185.97 27.008Z" fill="#FBFBFB" stroke="#D9D9D9"/>
<path d="M1384.8 29.0855L1383.83 50.6594L1383.81 51.0364L1384.17 51.1561L1402.49 57.2832L1383.5 64.6325L1383.19 64.7502L1383.18 65.0762L1382.2 86.7923L1371.56 69.6862L1371.34 69.3344L1370.96 69.4839L1352.17 76.7518L1364.45 58.8142L1364.64 58.5449L1364.47 58.2677L1353.71 40.9703L1372.03 47.0975L1372.39 47.2172L1372.61 46.9057L1384.8 29.0855Z" fill="#FBFBFB" stroke="#D9D9D9"/>
<path d="M414.864 96.1866L413.548 117.742L413.525 118.119L413.881 118.244L432.104 124.661L412.995 131.708L412.689 131.821L412.669 132.147L411.344 153.845L400.982 136.573L400.769 136.217L400.38 136.361L381.483 143.33L394.045 125.589L394.233 125.323L394.066 125.043L383.588 107.578L401.81 113.994L402.166 114.12L402.384 113.812L414.864 96.1866Z" fill="#FBFBFB" stroke="#D9D9D9"/>
<path d="M641.864 35.1866L640.548 56.7424L640.525 57.1191L640.881 57.2445L659.104 63.6609L639.995 70.7085L639.688 70.8214L639.669 71.1471L638.344 92.8449L627.982 75.5727L627.769 75.2175L627.38 75.3608L608.482 82.3304L621.045 64.5894L621.233 64.3231L621.065 64.0433L610.588 46.5778L628.81 52.9942L629.166 53.1196L629.384 52.8115L641.864 35.1866Z" fill="#FBFBFB" stroke="#D9D9D9"/>
<path d="M113.478 462.949L132.108 473.871L132.434 474.062L132.706 473.801L146.67 460.45L144.314 480.681L144.276 481.005L144.558 481.17L163.311 492.164L143.22 493.595L142.807 493.624L142.759 494.035L140.429 514.042L130.287 494.815L130.134 494.526L129.809 494.549L109.493 495.996L123.457 482.645L123.729 482.384L123.553 482.05L113.478 462.949Z" fill="#FBFBFB" stroke="#D9D9D9"/>
<path d="M128.5 257.695L128.474 279.291L128.474 279.668L128.837 279.772L147.41 285.088L128.757 293.265L128.458 293.396L128.457 293.722L128.432 315.46L117.056 298.838L116.822 298.497L116.443 298.663L97.9954 306.75L109.475 288.289L109.647 288.012L109.463 287.743L97.9598 270.935L116.533 276.251L116.896 276.355L117.096 276.034L128.5 257.695Z" fill="#FBFBFB" stroke="#D9D9D9"/>
<path d="M591.427 597.551L599.292 617.664L599.43 618.015L599.805 617.979L619.037 616.143L604.659 630.569L604.429 630.8L604.548 631.104L612.464 651.35L595.803 640.032L595.461 639.799L595.168 640.092L580.949 654.358L584.892 632.981L584.952 632.66L584.682 632.476L567.834 621.032L587.066 619.196L587.442 619.16L587.51 618.789L591.427 597.551Z" fill="#FBFBFB" stroke="#D9D9D9"/>
<path d="M1176.54 593.525L1184.41 613.638L1184.55 613.989L1184.92 613.953L1204.15 612.117L1189.78 626.543L1189.55 626.774L1189.66 627.078L1197.58 647.324L1180.92 636.006L1180.58 635.773L1180.29 636.066L1166.07 650.332L1170.01 628.955L1170.07 628.634L1169.8 628.451L1152.95 617.006L1172.18 615.17L1172.56 615.134L1172.63 614.763L1176.54 593.525Z" fill="#FBFBFB" stroke="#D9D9D9"/>
<path d="M1250.28 150.652L1241.38 170.326L1241.22 170.67L1241.51 170.914L1256.25 183.399L1235.89 183.18L1235.56 183.176L1235.43 183.473L1226.46 203.277L1222.93 183.447L1222.86 183.039L1222.44 183.035L1202.3 182.818L1220.36 170.714L1220.63 170.532L1220.57 170.211L1217 150.159L1231.74 162.644L1232.03 162.888L1232.35 162.677L1250.28 150.652Z" fill="#FBFBFB" stroke="#D9D9D9"/>
<path d="M428.665 531.591L432.531 552.838L432.599 553.21L432.974 553.246L452.202 555.129L435.327 566.533L435.056 566.716L435.115 567.037L439.006 588.424L424.822 574.123L424.53 573.829L424.187 574.061L407.499 585.339L415.464 565.113L415.583 564.809L415.354 564.578L401.011 550.117L420.238 552L420.614 552.036L420.752 551.685L428.665 531.591Z" fill="#FBFBFB" stroke="#D9D9D9"/>
<path d="M139.936 673.722L153.265 690.714L153.498 691.011L153.848 690.868L171.734 683.566L162.125 701.524L161.971 701.812L162.172 702.069L175.589 719.173L156.372 713.138L155.977 713.014L155.782 713.379L146.279 731.139L143.892 709.532L143.856 709.207L143.545 709.11L124.113 703.007L142 695.705L142.349 695.563L142.308 695.187L139.936 673.722Z" fill="#FBFBFB" stroke="#D9D9D9"/>
<path d="M364.754 688.205L369.934 709.171L370.025 709.537L370.402 709.55L389.709 710.233L373.576 722.665L373.317 722.864L373.396 723.181L378.61 744.284L363.563 730.894L363.254 730.618L362.926 730.871L346.971 743.165L353.663 722.483L353.764 722.172L353.52 721.955L338.305 708.415L357.612 709.098L357.99 709.111L358.106 708.752L364.754 688.205Z" fill="#FBFBFB" stroke="#D9D9D9"/>
<path d="M58.9679 874.647L61.2095 896.126L61.2487 896.502L61.6205 896.567L80.6494 899.904L62.9571 909.994L62.6736 910.155L62.7075 910.48L64.9638 932.101L51.9063 916.764L51.6377 916.449L51.2779 916.654L33.7813 926.633L43.2595 907.069L43.4018 906.776L43.1902 906.527L29.9866 891.02L49.0155 894.356L49.3873 894.422L49.5518 894.082L58.9679 874.647Z" fill="#FBFBFB" stroke="#D9D9D9"/>
<path d="M480.983 229.72L483.225 251.199L483.264 251.574L483.636 251.64L502.665 254.976L484.972 265.066L484.689 265.228L484.723 265.553L486.979 287.173L473.922 271.837L473.653 271.522L473.293 271.727L455.797 281.705L465.275 262.142L465.417 261.849L465.206 261.6L452.002 246.092L471.031 249.429L471.403 249.494L471.567 249.155L480.983 229.72Z" fill="#FBFBFB" stroke="#D9D9D9"/>
<path d="M259.72 818.463L276.052 832.593L276.337 832.84L276.653 832.633L292.813 822.046L286.815 841.51L286.719 841.822L286.966 842.035L303.406 856.258L283.39 854.009L282.978 853.963L282.856 854.358L276.925 873.607L270.45 852.856L270.353 852.544L270.029 852.508L249.789 850.234L265.949 839.646L266.264 839.439L266.152 839.079L259.72 818.463Z" fill="#FBFBFB" stroke="#D9D9D9"/>
<path d="M612.188 884.381L609.859 905.851L609.818 906.226L610.168 906.368L628.069 913.634L608.649 919.775L608.338 919.874L608.303 920.198L605.959 941.81L596.421 924.069L596.225 923.704L595.83 923.829L576.626 929.903L590.008 912.772L590.209 912.515L590.055 912.227L580.41 894.288L598.311 901.555L598.66 901.697L598.893 901.399L612.188 884.381Z" fill="#FBFBFB" stroke="#D9D9D9"/>
<path d="M943.169 827.41L940.84 848.88L940.799 849.255L941.149 849.397L959.05 856.664L939.63 862.805L939.319 862.903L939.284 863.227L936.94 884.839L927.402 867.099L927.206 866.734L926.811 866.859L907.607 872.932L920.989 855.801L921.19 855.544L921.036 855.257L911.391 837.318L929.291 844.584L929.641 844.726L929.874 844.428L943.169 827.41Z" fill="#FBFBFB" stroke="#D9D9D9"/>
<path d="M1120.58 869.743L1134.75 886.04L1135 886.325L1135.34 886.165L1152.84 877.969L1144.15 896.389L1144.01 896.685L1144.22 896.931L1158.48 913.335L1138.99 908.279L1138.59 908.175L1138.41 908.549L1129.82 926.766L1126.34 905.307L1126.29 904.985L1125.97 904.903L1106.26 899.79L1123.75 891.594L1124.09 891.434L1124.03 891.061L1120.58 869.743Z" fill="#FBFBFB" stroke="#D9D9D9"/>
<path d="M881.519 588.593L885.385 609.84L885.453 610.211L885.829 610.248L905.056 612.13L888.181 623.534L887.911 623.717L887.969 624.038L891.861 645.425L877.676 631.125L877.384 630.831L877.041 631.063L860.353 642.341L868.318 622.114L868.438 621.811L868.208 621.579L853.865 607.119L873.092 609.001L873.468 609.038L873.606 608.687L881.519 588.593Z" fill="#FBFBFB" stroke="#D9D9D9"/>
<path d="M983.697 450.687L992.164 470.554L992.312 470.901L992.687 470.854L1011.85 468.439L997.918 483.292L997.694 483.53L997.822 483.83L1006.35 503.828L989.351 493.017L989.001 492.794L988.718 493.096L974.935 507.785L978.232 486.298L978.282 485.975L978.007 485.8L960.822 474.868L979.99 472.454L980.364 472.406L980.421 472.033L983.697 450.687Z" fill="#FBFBFB" stroke="#D9D9D9"/>
<path d="M732.309 455.195L736.88 476.302L736.96 476.671L737.337 476.695L756.616 477.936L740.13 489.896L739.866 490.087L739.935 490.406L744.537 511.652L729.884 497.832L729.583 497.547L729.247 497.791L712.944 509.618L720.231 489.138L720.341 488.831L720.103 488.607L705.287 474.632L724.566 475.873L724.943 475.897L725.069 475.541L732.309 455.195Z" fill="#FBFBFB" stroke="#D9D9D9"/>
<path d="M1299.94 463.347L1293.83 484.06L1293.72 484.422L1294.04 484.624L1310.36 494.96L1290.16 497.547L1289.84 497.589L1289.74 497.902L1283.59 518.751L1277.36 499.597L1277.23 499.203L1276.82 499.255L1256.85 501.814L1273.06 487.338L1273.31 487.121L1273.2 486.811L1266.91 467.442L1283.23 477.778L1283.55 477.98L1283.83 477.728L1299.94 463.347Z" fill="#FBFBFB" stroke="#D9D9D9"/>
<path d="M1251.72 746.46L1251.1 768.047L1251.09 768.425L1251.45 768.538L1269.86 774.37L1250.99 782.024L1250.69 782.147L1250.68 782.473L1250.05 804.202L1239.14 787.269L1238.91 786.921L1238.53 787.077L1219.87 794.646L1231.85 776.513L1232.03 776.241L1231.86 775.967L1220.83 758.845L1239.25 764.676L1239.61 764.79L1239.81 764.475L1251.72 746.46Z" fill="#FBFBFB" stroke="#D9D9D9"/>
<path d="M1390.24 932.342L1389.61 953.929L1389.6 954.306L1389.96 954.42L1408.38 960.251L1389.5 967.905L1389.2 968.028L1389.19 968.354L1388.56 990.083L1377.65 973.151L1377.43 972.802L1377.05 972.958L1358.38 980.528L1370.37 962.394L1370.55 962.122L1370.37 961.848L1359.34 944.726L1377.76 950.557L1378.12 950.671L1378.33 950.356L1390.24 932.342Z" fill="#FBFBFB" stroke="#D9D9D9"/>
<path d="M1602.08 863.322L1592.09 882.468L1591.92 882.802L1592.19 883.062L1606.21 896.352L1585.89 894.994L1585.56 894.972L1585.41 895.261L1575.35 914.533L1572.94 894.536L1572.89 894.125L1572.47 894.098L1552.38 892.755L1571.08 881.679L1571.36 881.513L1571.32 881.189L1568.88 860.969L1582.9 874.259L1583.17 874.518L1583.5 874.326L1602.08 863.322Z" fill="#FBFBFB" stroke="#D9D9D9"/>
<path d="M1385.89 608.393L1399.52 625.15L1399.75 625.443L1400.1 625.294L1417.86 617.682L1408.56 635.805L1408.41 636.095L1408.62 636.348L1422.33 653.216L1403.01 647.517L1402.62 647.399L1402.43 647.768L1393.24 665.69L1390.47 644.128L1390.43 643.805L1390.12 643.712L1370.58 637.949L1388.34 630.337L1388.69 630.188L1388.64 629.814L1385.89 608.393Z" fill="#FBFBFB" stroke="#D9D9D9"/>
<path d="M1457.94 759.403L1478.32 766.552L1478.68 766.677L1478.9 766.369L1490.04 750.589L1491.61 770.896L1491.63 771.221L1491.94 771.329L1512.45 778.525L1493.01 783.78L1492.61 783.888L1492.64 784.301L1494.19 804.383L1480.55 787.456L1480.35 787.202L1480.03 787.287L1460.37 792.601L1471.51 776.821L1471.73 776.513L1471.49 776.219L1457.94 759.403Z" fill="#FBFBFB" stroke="#D9D9D9"/>
<path d="M1782.55 937.486L1761.29 933.693L1760.92 933.626L1760.76 933.966L1752.28 951.326L1747.48 931.532L1747.41 931.215L1747.09 931.158L1725.69 927.339L1744.04 919.038L1744.42 918.868L1744.32 918.465L1739.58 898.89L1755.75 913.414L1755.99 913.632L1756.29 913.498L1774.85 905.105L1766.37 922.465L1766.21 922.805L1766.49 923.057L1782.55 937.486Z" fill="#FBFBFB" stroke="#D9D9D9"/>
<path d="M1738.92 627.299L1733.99 648.324L1733.9 648.692L1734.23 648.875L1751.11 658.273L1731.09 661.997L1730.77 662.057L1730.69 662.374L1725.73 683.538L1718.43 664.766L1718.28 664.379L1717.87 664.455L1698.07 668.138L1713.44 652.77L1713.67 652.539L1713.55 652.235L1706.17 633.253L1723.05 642.65L1723.38 642.834L1723.65 642.567L1738.92 627.299Z" fill="#FBFBFB" stroke="#D9D9D9"/>
<path d="M1539.9 507.552L1532.2 527.731L1532.07 528.083L1532.37 528.309L1547.84 539.876L1527.5 540.894L1527.18 540.91L1527.06 541.215L1519.31 561.527L1514.58 541.948L1514.49 541.545L1514.07 541.566L1493.96 542.572L1511.24 529.394L1511.5 529.196L1511.43 528.879L1506.65 509.081L1522.12 520.647L1522.42 520.873L1522.72 520.645L1539.9 507.552Z" fill="#FBFBFB" stroke="#D9D9D9"/>
<path d="M1477.81 144.356L1478.45 165.942L1478.46 166.32L1478.83 166.412L1497.56 171.15L1479.17 179.901L1478.87 180.041L1478.88 180.368L1479.53 202.096L1467.64 185.834L1467.4 185.5L1467.03 185.678L1448.84 194.332L1459.74 175.525L1459.9 175.243L1459.71 174.979L1447.69 158.536L1466.42 163.274L1466.79 163.366L1466.98 163.04L1477.81 144.356Z" fill="#FBFBFB" stroke="#D9D9D9"/>
<path d="M1630.82 243.902L1635.22 265.046L1635.3 265.415L1635.67 265.442L1654.94 266.841L1638.36 278.666L1638.09 278.855L1638.16 279.175L1642.59 300.457L1628.05 286.518L1627.75 286.231L1627.41 286.471L1611.01 298.165L1618.47 277.745L1618.58 277.438L1618.34 277.213L1603.64 263.117L1622.91 264.516L1623.29 264.543L1623.42 264.189L1630.82 243.902Z" fill="#FBFBFB" stroke="#D9D9D9"/>
<path d="M1342 273.883L1346.4 295.027L1346.47 295.396L1346.85 295.424L1366.12 296.822L1349.54 308.647L1349.27 308.836L1349.34 309.156L1353.76 330.438L1339.23 316.499L1338.93 316.212L1338.59 316.452L1322.19 328.146L1329.64 307.726L1329.76 307.42L1329.52 307.194L1314.82 293.098L1334.09 294.497L1334.46 294.524L1334.59 294.17L1342 273.883Z" fill="#FBFBFB" stroke="#D9D9D9"/>
<path d="M1704.41 81.4523L1714.4 100.601L1714.57 100.936L1714.94 100.86L1733.86 96.963L1721.12 112.853L1720.92 113.108L1721.07 113.397L1731.12 132.672L1713.34 123.214L1712.97 123.02L1712.71 123.343L1700.11 139.058L1701.73 117.38L1701.76 117.054L1701.47 116.901L1683.49 107.337L1702.41 103.441L1702.78 103.365L1702.81 102.988L1704.41 81.4523Z" fill="#FBFBFB" stroke="#D9D9D9"/>
<path d="M1069.14 245.311L1078.66 264.696L1078.83 265.035L1079.2 264.968L1098.21 261.531L1085.09 277.108L1084.88 277.358L1085.02 277.65L1094.6 297.163L1077.05 287.277L1076.69 287.074L1076.43 287.391L1063.45 302.796L1065.59 281.163L1065.62 280.839L1065.34 280.678L1047.59 270.682L1066.61 267.245L1066.98 267.178L1067.01 266.802L1069.14 245.311Z" fill="#FBFBFB" stroke="#D9D9D9"/>
</svg>
