<svg xmlns="http://www.w3.org/2000/svg" xmlns:xlink="http://www.w3.org/1999/xlink" width="1920" zoomAndPan="magnify" viewBox="0 0 1440 809.999993" height="1080" preserveAspectRatio="xMidYMid meet" version="1.0"><defs><clipPath id="522f35795d"><path d="M 333.410156 87 L 1013 87 L 1013 810 L 333.410156 810 Z M 333.410156 87 " clip-rule="nonzero"/></clipPath></defs><path fill="#333333" d="M 1091.382812 578.730469 C 1083.816406 588.386719 1072.386719 593.859375 1060.152344 593.859375 C 1051.136719 593.859375 1042.605469 590.964844 1035.523438 585.332031 L 1011.054688 566.019531 L 1011.054688 781.03125 C 1011.054688 796.320312 998.660156 808.550781 983.527344 808.550781 L 362.480469 808.550781 C 347.1875 808.550781 334.953125 796.160156 334.953125 780.871094 L 334.953125 192.644531 C 334.953125 177.351562 347.347656 165.121094 362.480469 165.121094 L 478.703125 165.121094 L 479.1875 164.15625 C 482.890625 156.109375 487.074219 148.222656 491.742188 140.5 L 491.902344 140.335938 C 492.066406 140.175781 492.226562 139.855469 492.226562 139.695312 C 493.191406 138.246094 494.15625 136.636719 495.125 135.1875 C 495.445312 134.703125 495.765625 134.222656 496.089844 133.738281 C 496.894531 132.453125 497.859375 131.164062 498.664062 129.875 C 498.824219 129.554688 499.632812 128.589844 499.792969 128.265625 C 500.757812 126.980469 501.5625 125.691406 502.527344 124.40625 C 502.851562 123.921875 503.332031 123.4375 503.65625 122.796875 C 504.941406 121.023438 506.230469 119.414062 507.679688 117.644531 C 550.984375 62.605469 616.179688 31.0625 686.363281 31.0625 C 738.039062 31.0625 786.8125 47.960938 827.378906 80.148438 C 829.152344 81.433594 830.761719 82.882812 832.371094 84.332031 L 833.980469 85.617188 C 835.105469 86.585938 836.234375 87.550781 837.359375 88.515625 C 838.003906 89.160156 838.488281 89.640625 839.132812 90.125 C 840.097656 91.089844 841.222656 92.054688 842.191406 92.859375 L 842.832031 93.34375 C 843.15625 93.664062 843.636719 93.988281 843.960938 94.46875 C 844.925781 95.4375 846.054688 96.402344 847.019531 97.527344 C 847.5 98.011719 847.984375 98.492188 848.46875 98.976562 C 849.753906 100.265625 850.882812 101.550781 852.171875 102.839844 L 852.8125 103.484375 C 854.261719 105.09375 855.710938 106.539062 857.160156 108.148438 C 857.480469 108.632812 857.804688 108.953125 858.289062 109.4375 C 859.253906 110.5625 860.378906 111.851562 861.347656 112.976562 C 861.828125 113.621094 862.3125 114.105469 862.792969 114.75 C 863.597656 115.875 864.566406 116.839844 865.371094 117.96875 L 866.820312 119.738281 C 867.625 120.863281 868.589844 121.992188 869.394531 123.117188 L 869.878906 123.601562 C 870.199219 123.921875 870.359375 124.40625 870.683594 124.726562 C 871.648438 126.015625 872.613281 127.460938 873.578125 128.75 C 873.742188 128.910156 874.386719 129.714844 874.386719 129.714844 C 875.511719 131.484375 876.800781 133.257812 877.925781 134.867188 L 878.410156 135.671875 C 879.375 137.117188 880.339844 138.566406 881.144531 140.015625 C 881.46875 140.5 881.789062 141.140625 882.113281 141.625 C 882.917969 142.914062 883.5625 144.199219 884.367188 145.328125 C 884.6875 145.96875 885.007812 146.613281 885.332031 147.097656 C 885.976562 148.382812 886.621094 149.511719 887.425781 150.796875 C 887.746094 151.441406 888.066406 151.925781 888.390625 152.570312 C 889.035156 154.015625 889.839844 155.304688 890.484375 156.753906 C 890.644531 157.234375 890.964844 157.558594 891.125 158.039062 C 891.449219 158.84375 893.21875 162.546875 894.667969 165.605469 C 896.921875 170.433594 897.242188 171.078125 898.046875 171.078125 C 898.210938 171.078125 898.210938 171.078125 898.371094 171.078125 L 899.175781 171.078125 L 899.660156 170.433594 C 899.980469 169.789062 900.140625 169.789062 897.886719 164.800781 L 984.011719 164.800781 C 999.304688 164.800781 1011.539062 177.191406 1011.539062 192.320312 L 1011.539062 464.464844 L 1085.265625 522.726562 C 1102.007812 536.566406 1104.902344 561.511719 1091.382812 578.730469 Z M 1091.382812 578.730469 " fill-opacity="1" fill-rule="nonzero"/><g clip-path="url(#522f35795d)"><path fill="#ffffff" d="M 1012.664062 192.644531 L 1012.664062 463.984375 L 917.042969 388.503906 L 917.6875 387.699219 C 922.515625 381.582031 921.550781 372.730469 915.273438 367.902344 L 895.632812 352.292969 C 922.839844 291.621094 921.710938 222.578125 894.828125 163.511719 L 983.367188 163.511719 C 999.625 163.351562 1012.664062 176.386719 1012.664062 192.644531 Z M 865.851562 453.363281 L 1012.664062 569.238281 L 1012.664062 780.871094 C 1012.664062 796.964844 999.625 810 983.527344 810 L 362.480469 810 C 346.382812 810 333.34375 796.964844 333.34375 780.871094 L 333.34375 192.644531 C 333.34375 176.546875 346.382812 163.511719 362.480469 163.511719 L 477.578125 163.511719 C 434.433594 257.5 459.386719 371.925781 544.0625 438.878906 C 628.089844 505.34375 744.316406 503.414062 825.609375 441.128906 L 845.25 456.742188 C 851.367188 461.570312 860.21875 460.605469 865.046875 454.328125 Z M 507.679688 665.640625 C 506.070312 663.867188 503.171875 663.867188 501.402344 665.476562 L 496.25 670.46875 L 496.25 669.179688 C 496.25 664.191406 492.226562 660.007812 487.074219 660.007812 L 441.355469 660.007812 C 436.367188 660.007812 432.183594 664.03125 432.183594 669.179688 L 432.183594 714.886719 C 432.183594 719.875 436.207031 724.058594 441.355469 724.058594 L 487.074219 724.058594 C 492.066406 724.058594 496.25 720.035156 496.25 714.886719 L 496.25 682.539062 L 507.519531 671.914062 C 509.289062 670.144531 509.449219 667.410156 507.679688 665.640625 Z M 507.679688 552.015625 C 506.070312 550.246094 503.171875 550.246094 501.402344 551.855469 L 496.25 556.84375 L 496.25 555.558594 C 496.25 550.566406 492.226562 546.382812 487.074219 546.382812 L 441.355469 546.382812 C 436.367188 546.382812 432.183594 550.40625 432.183594 555.558594 L 432.183594 601.265625 C 432.183594 606.253906 436.207031 610.4375 441.355469 610.4375 L 487.074219 610.4375 C 492.066406 610.4375 496.25 606.414062 496.25 601.265625 L 496.25 568.914062 L 507.519531 558.292969 C 509.289062 556.523438 509.449219 553.785156 507.679688 552.015625 Z M 913.824219 692.03125 C 913.824219 686.398438 909.316406 681.894531 903.683594 681.894531 L 555.8125 681.894531 C 550.175781 681.894531 545.671875 686.398438 545.671875 692.03125 C 545.671875 697.664062 550.175781 702.171875 555.8125 702.171875 L 903.683594 702.171875 C 909.316406 702.171875 913.824219 697.664062 913.824219 692.03125 Z M 903.683594 568.269531 L 555.8125 568.269531 C 550.175781 568.269531 545.671875 572.777344 545.671875 578.410156 C 545.671875 584.042969 550.175781 588.550781 555.8125 588.550781 L 903.683594 588.550781 C 909.316406 588.550781 913.824219 584.042969 913.824219 578.410156 C 913.824219 572.777344 909.316406 568.269531 903.683594 568.269531 Z M 580.121094 393.171875 C 583.179688 395.585938 586.238281 397.839844 589.296875 399.929688 C 607.96875 373.375 661.414062 351.167969 661.414062 351.167969 L 661.414062 315.597656 C 660.609375 315.597656 659.964844 315.117188 659.804688 314.3125 C 656.421875 315.117188 653.042969 315.4375 649.5 315.4375 C 623.261719 315.4375 601.851562 294.195312 601.851562 267.800781 L 601.851562 208.898438 C 601.851562 205.679688 602.011719 202.460938 602.496094 199.242188 C 592.996094 196.664062 581.890625 191.355469 578.992188 179.605469 C 572.875 155.625 605.875 144.039062 635.65625 144.039062 C 648.535156 134.867188 664.308594 129.554688 681.375 129.554688 C 725.160156 129.554688 760.574219 164.960938 760.574219 208.734375 C 760.574219 211.792969 760.414062 214.851562 759.929688 217.910156 L 756.226562 276.332031 L 755.585938 287.273438 C 755.585938 287.273438 755.585938 287.273438 755.421875 287.273438 L 751.238281 345.210938 C 784.558594 348.589844 807.257812 355.351562 822.390625 362.269531 C 879.054688 288.238281 865.851562 182.34375 792.449219 124.40625 C 718.238281 65.824219 610.542969 78.375 551.789062 152.570312 C 493.191406 226.921875 505.910156 334.589844 580.121094 393.171875 Z M 580.121094 393.171875 " fill-opacity="1" fill-rule="nonzero"/></g><path fill="#8d63f5" d="M 1092.667969 579.699219 C 1078.503906 597.5625 1052.585938 600.621094 1034.71875 586.457031 L 1012.664062 569.238281 L 865.851562 453.363281 L 917.042969 388.503906 L 1012.664062 463.984375 L 1085.746094 521.761719 C 1103.777344 535.761719 1106.835938 561.832031 1092.667969 579.699219 Z M 866.335938 400.894531 C 854.261719 416.183594 840.578125 429.542969 825.769531 440.96875 C 744.476562 503.253906 628.25 505.183594 544.222656 438.714844 C 459.546875 371.765625 434.757812 257.179688 477.738281 163.351562 C 481.441406 155.304688 485.625 147.257812 490.292969 139.53125 C 490.457031 139.210938 490.617188 139.050781 490.777344 138.726562 C 491.742188 137.117188 492.710938 135.671875 493.675781 134.0625 C 493.996094 133.578125 494.320312 133.09375 494.640625 132.613281 C 495.445312 131.324219 496.410156 130.039062 497.378906 128.589844 C 497.699219 128.105469 498.183594 127.460938 498.503906 126.980469 C 499.46875 125.691406 500.273438 124.40625 501.242188 123.117188 C 501.5625 122.632812 502.046875 122.152344 502.367188 121.507812 C 503.65625 119.738281 504.941406 117.96875 506.390625 116.359375 C 584.949219 17.058594 729.183594 0 828.507812 78.539062 C 830.277344 79.824219 831.886719 81.273438 833.496094 82.722656 C 833.980469 83.203125 834.625 83.6875 835.105469 84.007812 C 836.234375 84.976562 837.359375 85.941406 838.488281 86.90625 C 839.132812 87.390625 839.613281 88.03125 840.257812 88.515625 C 841.222656 89.480469 842.351562 90.445312 843.316406 91.414062 C 843.960938 91.894531 844.441406 92.539062 845.085938 93.023438 C 846.054688 93.988281 847.179688 94.953125 848.144531 96.078125 C 848.628906 96.5625 849.113281 97.046875 849.753906 97.527344 C 851.042969 98.816406 852.332031 100.101562 853.457031 101.390625 C 853.617188 101.710938 853.941406 101.875 854.101562 102.195312 C 855.550781 103.804688 857 105.414062 858.449219 106.863281 C 858.769531 107.34375 859.253906 107.667969 859.574219 108.148438 C 860.539062 109.277344 861.667969 110.5625 862.632812 111.691406 C 863.117188 112.171875 863.597656 112.816406 864.082031 113.460938 C 864.886719 114.585938 865.851562 115.554688 866.65625 116.679688 C 867.140625 117.324219 867.625 117.804688 868.105469 118.449219 C 868.910156 119.578125 869.878906 120.703125 870.683594 121.828125 C 871.164062 122.3125 871.488281 122.957031 871.96875 123.4375 C 872.9375 124.726562 873.902344 126.175781 874.867188 127.460938 C 875.027344 127.785156 875.351562 128.105469 875.671875 128.589844 C 876.800781 130.359375 878.085938 132.128906 879.214844 133.898438 C 879.375 134.222656 879.535156 134.382812 879.695312 134.703125 C 880.664062 136.152344 881.628906 137.601562 882.433594 139.210938 C 882.753906 139.695312 883.078125 140.335938 883.398438 140.820312 C 884.203125 142.109375 884.847656 143.394531 885.652344 144.523438 C 885.976562 145.164062 886.296875 145.808594 886.621094 146.292969 C 887.261719 147.578125 888.066406 148.707031 888.710938 149.992188 C 889.035156 150.636719 889.355469 151.121094 889.679688 151.765625 C 890.484375 153.210938 891.125 154.5 891.769531 155.949219 C 891.929688 156.429688 892.253906 156.914062 892.414062 157.234375 C 893.378906 159.167969 894.183594 160.9375 895.152344 162.867188 C 922.195312 222.09375 923.160156 291.136719 895.957031 351.648438 C 888.230469 369.191406 878.410156 385.605469 866.335938 400.894531 Z M 792.449219 124.40625 C 718.238281 65.824219 610.542969 78.375 551.789062 152.570312 C 493.191406 226.761719 505.75 334.429688 579.957031 393.171875 C 583.015625 395.585938 586.074219 397.839844 589.132812 399.929688 C 662.863281 450.625 764.277344 436.140625 820.617188 364.847656 C 821.261719 364.042969 821.90625 363.074219 822.550781 362.269531 C 879.054688 288.238281 865.851562 182.34375 792.449219 124.40625 Z M 792.449219 124.40625 " fill-opacity="1" fill-rule="nonzero"/><path fill="#fec84d" d="M 913.824219 578.410156 C 913.824219 584.042969 909.316406 588.550781 903.683594 588.550781 L 555.8125 588.550781 C 550.175781 588.550781 545.671875 584.042969 545.671875 578.410156 C 545.671875 572.777344 550.175781 568.269531 555.8125 568.269531 L 903.683594 568.269531 C 909.316406 568.269531 913.824219 572.777344 913.824219 578.410156 Z M 589.296875 399.929688 C 607.96875 373.375 661.414062 351.167969 661.414062 351.167969 L 686.203125 373.375 L 751.398438 345.371094 C 784.722656 348.753906 807.417969 355.511719 822.550781 362.433594 C 821.90625 363.238281 821.261719 364.203125 820.617188 365.007812 C 764.4375 436.140625 663.023438 450.625 589.296875 399.929688 Z M 689.90625 379.007812 L 708.257812 402.023438 C 708.578125 402.34375 708.902344 402.667969 709.382812 402.667969 C 709.382812 402.667969 709.542969 402.667969 709.542969 402.667969 C 709.867188 402.667969 710.351562 402.503906 710.511719 402.34375 L 763.148438 357.441406 C 763.792969 356.800781 763.953125 355.832031 763.3125 355.191406 C 762.667969 354.546875 761.703125 354.386719 761.058594 355.027344 L 709.707031 398.804688 L 692.480469 377.078125 C 692 376.433594 690.871094 376.273438 690.226562 376.753906 C 689.421875 377.238281 689.261719 378.363281 689.90625 379.007812 Z M 683.464844 375.949219 C 682.824219 375.46875 681.695312 375.628906 681.210938 376.273438 L 666.886719 395.746094 L 652.71875 364.203125 C 652.398438 363.398438 651.433594 363.074219 650.628906 363.398438 C 649.824219 363.71875 649.5 364.683594 649.824219 365.488281 L 664.953125 399.609375 C 665.113281 400.089844 665.597656 400.574219 666.242188 400.574219 C 666.242188 400.574219 666.402344 400.574219 666.402344 400.574219 C 666.886719 400.574219 667.367188 400.414062 667.691406 399.929688 L 683.628906 378.203125 C 684.269531 377.398438 684.109375 376.433594 683.464844 375.949219 Z M 915.433594 367.742188 L 895.792969 352.132812 C 888.230469 369.191406 878.410156 385.605469 866.335938 400.894531 C 854.261719 416.183594 840.578125 429.542969 825.769531 440.96875 L 845.410156 456.582031 C 851.527344 461.410156 860.378906 460.441406 865.210938 454.167969 L 865.851562 453.363281 L 917.042969 388.503906 L 917.6875 387.699219 C 922.679688 381.582031 921.550781 372.570312 915.433594 367.742188 Z M 487.074219 546.382812 L 441.355469 546.382812 C 436.367188 546.382812 432.183594 550.40625 432.183594 555.558594 L 432.183594 601.265625 C 432.183594 606.253906 436.207031 610.4375 441.355469 610.4375 L 487.074219 610.4375 C 492.066406 610.4375 496.25 606.414062 496.25 601.265625 L 496.25 568.914062 L 466.792969 596.757812 C 465.988281 597.5625 464.859375 598.042969 463.734375 598.042969 C 462.605469 598.042969 461.640625 597.5625 460.675781 596.757812 L 448.117188 584.847656 C 446.347656 583.238281 446.1875 580.339844 447.957031 578.570312 C 449.566406 576.800781 452.464844 576.640625 454.234375 578.410156 L 463.734375 587.421875 L 496.25 556.683594 L 496.25 555.394531 C 496.25 550.40625 492.226562 546.382812 487.074219 546.382812 Z M 487.074219 660.007812 L 441.355469 660.007812 C 436.367188 660.007812 432.183594 664.03125 432.183594 669.179688 L 432.183594 714.886719 C 432.183594 719.875 436.207031 724.058594 441.355469 724.058594 L 487.074219 724.058594 C 492.066406 724.058594 496.25 720.035156 496.25 714.886719 L 496.25 682.539062 L 466.792969 710.378906 C 465.988281 711.183594 464.859375 711.667969 463.734375 711.667969 C 462.605469 711.667969 461.640625 711.183594 460.675781 710.378906 L 448.117188 698.46875 C 446.347656 696.859375 446.1875 693.964844 447.957031 692.195312 C 449.566406 690.421875 452.464844 690.421875 454.234375 692.03125 L 463.734375 701.046875 L 496.25 670.304688 L 496.25 669.019531 C 496.25 664.03125 492.226562 660.007812 487.074219 660.007812 Z M 903.683594 681.894531 L 555.8125 681.894531 C 550.175781 681.894531 545.671875 686.398438 545.671875 692.03125 C 545.671875 697.664062 550.175781 702.171875 555.8125 702.171875 L 903.683594 702.171875 C 909.316406 702.171875 913.824219 697.664062 913.824219 692.03125 C 913.824219 686.398438 909.316406 681.894531 903.683594 681.894531 Z M 903.683594 681.894531 " fill-opacity="1" fill-rule="nonzero"/><path fill="#e09f7c" d="M 756.390625 276.492188 Z M 755.585938 287.433594 L 751.398438 345.371094 L 686.203125 373.375 L 661.414062 351.167969 L 661.414062 315.597656 C 661.574219 315.597656 661.574219 315.597656 661.734375 315.597656 C 662.054688 315.597656 668.011719 314.152344 679.925781 307.070312 C 680.730469 306.585938 680.890625 305.621094 680.570312 304.816406 C 680.246094 304.011719 679.121094 303.851562 678.316406 304.171875 C 667.046875 310.933594 661.089844 312.378906 661.089844 312.378906 C 660.285156 312.542969 659.640625 313.507812 659.804688 314.3125 C 656.421875 315.117188 653.042969 315.4375 649.5 315.4375 C 623.261719 315.4375 601.851562 294.195312 601.851562 267.800781 L 601.851562 208.898438 C 601.851562 205.679688 602.011719 202.460938 602.496094 199.242188 C 602.976562 195.859375 603.460938 192.640625 604.265625 189.421875 C 604.265625 189.421875 629.539062 211.957031 676.382812 172.042969 C 676.382812 172.042969 687.167969 210.988281 713.730469 222.738281 C 725.964844 215.011719 739.96875 215.011719 746.890625 223.382812 C 754.777344 232.714844 750.433594 249.292969 737.234375 260.238281 C 733.371094 263.457031 729.34375 265.707031 725.160156 267.316406 C 738.679688 286.46875 754.296875 287.433594 755.585938 287.433594 Z M 620.203125 231.429688 C 620.203125 229.015625 618.269531 227.082031 615.855469 227.082031 C 613.441406 227.082031 611.511719 229.015625 611.511719 231.429688 C 611.511719 233.84375 613.441406 235.773438 615.855469 235.773438 C 618.269531 235.773438 620.203125 233.683594 620.203125 231.429688 Z M 634.53125 254.925781 C 635.496094 254.925781 636.140625 254.28125 636.140625 253.316406 C 636.140625 252.351562 635.496094 251.707031 634.53125 251.707031 C 633.242188 251.707031 631.953125 251.0625 631.148438 250.097656 C 630.34375 249.132812 630.023438 247.683594 630.183594 246.394531 L 632.113281 235.933594 C 632.277344 235.128906 631.632812 234.164062 630.828125 234.003906 C 630.023438 233.84375 629.054688 234.488281 628.894531 235.292969 L 626.964844 245.753906 C 626.480469 248.003906 627.125 250.257812 628.574219 252.027344 C 630.183594 253.960938 632.277344 254.925781 634.53125 254.925781 Z M 650.949219 266.511719 C 650.304688 265.871094 649.339844 265.707031 648.695312 266.351562 C 640.808594 272.789062 632.597656 269.25 632.277344 269.089844 C 631.472656 268.765625 630.503906 269.089844 630.183594 269.894531 C 629.859375 270.699219 630.183594 271.664062 630.988281 271.984375 C 631.148438 272.144531 634.207031 273.433594 638.394531 273.433594 C 641.933594 273.433594 646.441406 272.46875 650.789062 268.925781 C 651.433594 268.121094 651.433594 267.15625 650.949219 266.511719 Z M 659.160156 231.429688 C 659.160156 229.015625 657.226562 227.082031 654.8125 227.082031 C 652.398438 227.082031 650.464844 229.015625 650.464844 231.429688 C 650.464844 233.84375 652.398438 235.773438 654.8125 235.773438 C 657.226562 235.613281 659.160156 233.683594 659.160156 231.429688 Z M 716.789062 244.144531 C 717.109375 244.625 717.59375 244.949219 718.238281 244.949219 C 718.558594 244.949219 718.71875 244.949219 719.042969 244.785156 L 734.816406 235.613281 C 735.621094 235.128906 735.785156 234.164062 735.460938 233.359375 C 735.140625 232.554688 734.011719 232.394531 733.207031 232.714844 L 717.433594 241.890625 C 716.628906 242.535156 716.304688 243.5 716.789062 244.144531 Z M 716.789062 244.144531 " fill-opacity="1" fill-rule="nonzero"/></svg>