<svg xmlns="http://www.w3.org/2000/svg" xmlns:xlink="http://www.w3.org/1999/xlink" width="470" zoomAndPan="magnify" viewBox="0 0 352.5 374.999991" height="500" preserveAspectRatio="xMidYMid meet" version="1.0"><defs><clipPath id="f05e24cd9f"><path d="M 3.667969 0.265625 L 348.179688 0.265625 L 348.179688 374.734375 L 3.667969 374.734375 Z M 3.667969 0.265625 " clip-rule="nonzero"/></clipPath></defs><path fill="#ffe177" d="M 234.375 42.070312 L 234.375 260.117188 C 234.375 279.871094 184.085938 295.882812 122.054688 295.882812 C 60.023438 295.882812 9.738281 279.871094 9.738281 260.117188 L 9.738281 42.070312 C 9.738281 22.316406 60.023438 6.304688 122.054688 6.304688 C 184.085938 6.304688 234.375 22.316406 234.375 42.070312 Z M 234.375 42.070312 " fill-opacity="1" fill-rule="evenodd"/><path fill="#ffd064" d="M 122.054688 150.515625 C 184.085938 150.515625 234.375 134.503906 234.375 114.753906 L 234.375 42.070312 C 234.375 61.820312 184.085938 77.835938 122.054688 77.835938 C 79.105469 77.835938 41.78125 70.15625 22.886719 58.875 C 18.671875 56.359375 15.375 53.664062 13.132812 50.832031 C 10.917969 48.027344 9.738281 45.09375 9.738281 42.070312 L 9.738281 114.75 C 9.738281 115.40625 9.792969 116.054688 9.902344 116.699219 C 13.078125 135.546875 62.078125 150.515625 122.054688 150.515625 Z M 122.054688 150.515625 " fill-opacity="1" fill-rule="evenodd"/><path fill="#ffd064" d="M 122.054688 223.199219 C 60.023438 223.199219 9.738281 207.1875 9.738281 187.433594 L 9.738281 260.117188 C 9.738281 279.871094 60.023438 295.878906 122.054688 295.878906 C 184.085938 295.878906 234.375 279.867188 234.375 260.117188 L 234.375 187.433594 C 234.375 207.1875 184.085938 223.199219 122.054688 223.199219 Z M 122.054688 223.199219 " fill-opacity="1" fill-rule="evenodd"/><path fill="#f5b829" d="M 64.144531 106.054688 C 64.144531 106.964844 64.054688 107.863281 63.878906 108.753906 C 63.703125 109.644531 63.4375 110.511719 63.089844 111.351562 C 62.742188 112.191406 62.316406 112.988281 61.8125 113.746094 C 61.308594 114.5 60.734375 115.199219 60.09375 115.839844 C 59.449219 116.484375 58.75 117.058594 57.996094 117.5625 C 57.242188 118.066406 56.441406 118.496094 55.605469 118.84375 C 54.765625 119.191406 53.898438 119.453125 53.007812 119.628906 C 52.117188 119.808594 51.21875 119.894531 50.308594 119.894531 C 49.402344 119.894531 48.5 119.808594 47.609375 119.628906 C 46.71875 119.453125 45.855469 119.191406 45.015625 118.84375 C 44.175781 118.496094 43.378906 118.066406 42.625 117.5625 C 41.867188 117.058594 41.167969 116.484375 40.527344 115.839844 C 39.882812 115.199219 39.3125 114.5 38.804688 113.746094 C 38.300781 112.988281 37.875 112.191406 37.527344 111.351562 C 37.179688 110.511719 36.917969 109.644531 36.742188 108.753906 C 36.5625 107.863281 36.476562 106.964844 36.476562 106.054688 C 36.476562 105.144531 36.5625 104.246094 36.742188 103.355469 C 36.917969 102.464844 37.179688 101.597656 37.527344 100.757812 C 37.875 99.917969 38.300781 99.121094 38.804688 98.363281 C 39.3125 97.609375 39.882812 96.910156 40.527344 96.265625 C 41.167969 95.625 41.867188 95.050781 42.625 94.546875 C 43.378906 94.042969 44.175781 93.613281 45.015625 93.265625 C 45.855469 92.917969 46.71875 92.65625 47.609375 92.480469 C 48.5 92.300781 49.402344 92.214844 50.308594 92.214844 C 51.21875 92.214844 52.117188 92.300781 53.007812 92.480469 C 53.898438 92.65625 54.765625 92.917969 55.605469 93.265625 C 56.441406 93.613281 57.242188 94.042969 57.996094 94.546875 C 58.75 95.050781 59.449219 95.625 60.09375 96.265625 C 60.734375 96.910156 61.308594 97.609375 61.8125 98.363281 C 62.316406 99.121094 62.742188 99.917969 63.089844 100.757812 C 63.4375 101.597656 63.703125 102.464844 63.878906 103.355469 C 64.054688 104.246094 64.144531 105.144531 64.144531 106.054688 Z M 64.144531 106.054688 " fill-opacity="1" fill-rule="nonzero"/><path fill="#f5b829" d="M 57.113281 165.457031 C 57.902344 165.90625 58.644531 166.425781 59.332031 167.019531 C 60.019531 167.609375 60.644531 168.265625 61.203125 168.980469 C 61.765625 169.695312 62.25 170.460938 62.65625 171.269531 C 63.066406 172.082031 63.394531 172.925781 63.636719 173.800781 C 63.878906 174.675781 64.035156 175.566406 64.105469 176.472656 C 64.171875 177.378906 64.152344 178.285156 64.042969 179.1875 C 63.929688 180.089844 63.734375 180.972656 63.449219 181.835938 C 63.167969 182.699219 62.800781 183.527344 62.355469 184.316406 C 61.90625 185.109375 61.386719 185.847656 60.796875 186.539062 C 60.203125 187.226562 59.550781 187.851562 58.832031 188.410156 C 58.117188 188.972656 57.355469 189.457031 56.542969 189.863281 C 55.734375 190.273438 54.890625 190.601562 54.015625 190.84375 C 53.140625 191.089844 52.25 191.246094 51.34375 191.3125 C 50.4375 191.378906 49.535156 191.359375 48.632812 191.25 C 47.730469 191.140625 46.847656 190.941406 45.984375 190.65625 C 45.121094 190.375 44.296875 190.007812 43.503906 189.5625 C 42.714844 189.113281 41.972656 188.59375 41.285156 188 C 40.597656 187.410156 39.972656 186.753906 39.414062 186.039062 C 38.851562 185.324219 38.367188 184.558594 37.957031 183.75 C 37.550781 182.9375 37.222656 182.09375 36.980469 181.21875 C 36.734375 180.34375 36.578125 179.453125 36.511719 178.546875 C 36.445312 177.640625 36.464844 176.734375 36.574219 175.832031 C 36.683594 174.929688 36.882812 174.046875 37.167969 173.183594 C 37.449219 172.320312 37.816406 171.496094 38.261719 170.703125 C 38.707031 169.910156 39.226562 169.171875 39.820312 168.484375 C 40.414062 167.792969 41.066406 167.167969 41.78125 166.609375 C 42.5 166.050781 43.261719 165.5625 44.070312 165.15625 C 44.882812 164.746094 45.726562 164.417969 46.601562 164.175781 C 47.476562 163.929688 48.367188 163.777344 49.273438 163.707031 C 50.179688 163.640625 51.082031 163.660156 51.984375 163.769531 C 52.886719 163.882812 53.769531 164.078125 54.632812 164.363281 C 55.496094 164.644531 56.320312 165.011719 57.113281 165.457031 Z M 57.113281 165.457031 " fill-opacity="1" fill-rule="nonzero"/><path fill="#f5b829" d="M 64.144531 250.992188 C 64.144531 251.898438 64.054688 252.800781 63.878906 253.691406 C 63.703125 254.582031 63.4375 255.449219 63.089844 256.289062 C 62.742188 257.128906 62.316406 257.925781 61.8125 258.679688 C 61.308594 259.4375 60.734375 260.136719 60.09375 260.777344 C 59.449219 261.421875 58.75 261.996094 57.996094 262.5 C 57.242188 263.003906 56.441406 263.429688 55.605469 263.777344 C 54.765625 264.125 53.898438 264.390625 53.007812 264.566406 C 52.117188 264.742188 51.21875 264.832031 50.308594 264.832031 C 49.402344 264.832031 48.5 264.742188 47.609375 264.566406 C 46.71875 264.390625 45.855469 264.125 45.015625 263.777344 C 44.175781 263.429688 43.378906 263.003906 42.625 262.5 C 41.867188 261.996094 41.167969 261.421875 40.527344 260.777344 C 39.882812 260.136719 39.3125 259.4375 38.804688 258.679688 C 38.300781 257.925781 37.875 257.128906 37.527344 256.289062 C 37.179688 255.449219 36.917969 254.582031 36.742188 253.691406 C 36.5625 252.800781 36.476562 251.898438 36.476562 250.992188 C 36.476562 250.082031 36.5625 249.183594 36.742188 248.292969 C 36.917969 247.398438 37.179688 246.535156 37.527344 245.695312 C 37.875 244.855469 38.300781 244.058594 38.804688 243.300781 C 39.3125 242.546875 39.882812 241.847656 40.527344 241.203125 C 41.167969 240.5625 41.867188 239.988281 42.625 239.484375 C 43.378906 238.976562 44.175781 238.550781 45.015625 238.203125 C 45.855469 237.855469 46.71875 237.59375 47.609375 237.417969 C 48.5 237.238281 49.402344 237.148438 50.308594 237.148438 C 51.21875 237.148438 52.117188 237.238281 53.007812 237.417969 C 53.898438 237.59375 54.765625 237.855469 55.605469 238.203125 C 56.441406 238.550781 57.242188 238.976562 57.996094 239.484375 C 58.75 239.988281 59.449219 240.5625 60.09375 241.203125 C 60.734375 241.847656 61.308594 242.546875 61.8125 243.300781 C 62.316406 244.058594 62.742188 244.855469 63.089844 245.695312 C 63.4375 246.535156 63.703125 247.398438 63.878906 248.292969 C 64.054688 249.183594 64.144531 250.082031 64.144531 250.992188 Z M 64.144531 250.992188 " fill-opacity="1" fill-rule="nonzero"/><path fill="#a79ba7" d="M 255.839844 170.855469 C 265.359375 173.121094 274.449219 176.898438 282.78125 182.03125 L 300.289062 174.25 L 320.921875 194.894531 L 313.148438 212.402344 C 318.28125 220.738281 322.054688 229.835938 324.320312 239.363281 L 342.183594 246.242188 L 342.183594 275.433594 L 324.316406 282.3125 C 322.050781 291.835938 318.277344 300.933594 313.148438 309.265625 L 320.921875 326.78125 L 300.289062 347.425781 L 282.789062 339.648438 C 274.453125 344.78125 265.359375 348.558594 255.839844 350.824219 L 248.964844 368.695312 L 219.78125 368.695312 L 212.90625 350.820312 C 203.386719 348.554688 194.296875 344.777344 185.964844 339.648438 L 168.457031 347.425781 L 147.824219 326.785156 L 155.597656 309.273438 C 150.464844 300.9375 146.691406 291.839844 144.425781 282.3125 L 126.5625 275.433594 L 126.5625 246.242188 L 144.429688 239.363281 C 146.695312 229.839844 150.46875 220.742188 155.597656 212.40625 L 147.824219 194.894531 L 168.457031 174.25 L 185.964844 182.03125 C 194.296875 176.898438 203.386719 173.121094 212.90625 170.855469 L 219.78125 152.984375 L 248.960938 152.984375 Z M 255.839844 170.855469 " fill-opacity="1" fill-rule="evenodd"/><path fill="#837683" d="M 185.964844 339.648438 L 168.457031 347.425781 L 165.761719 344.730469 L 182.175781 337.4375 C 183.421875 338.203125 184.6875 338.941406 185.964844 339.648438 Z M 255.839844 170.855469 C 265.359375 173.121094 274.449219 176.898438 282.78125 182.03125 L 277.804688 184.238281 C 269.472656 179.109375 256.59375 173.121094 247.074219 170.855469 L 240.195312 152.980469 L 248.960938 152.980469 Z M 282.789062 339.648438 C 274.453125 344.785156 265.359375 348.558594 255.839844 350.824219 L 248.964844 368.695312 L 240.199219 368.695312 L 247.074219 350.824219 C 256.59375 348.558594 269.476562 342.574219 277.8125 337.4375 Z M 165.761719 176.949219 L 168.457031 174.25 L 185.964844 182.03125 C 184.683594 182.738281 183.421875 183.472656 182.175781 184.242188 Z M 294.21875 176.949219 L 300.289062 174.25 L 320.921875 194.894531 L 313.148438 212.402344 C 318.28125 220.738281 322.054688 229.839844 324.320312 239.363281 L 342.183594 246.242188 L 342.183594 275.433594 L 324.316406 282.316406 C 322.050781 291.835938 318.277344 300.933594 313.148438 309.269531 L 320.921875 326.78125 L 300.289062 347.425781 L 294.21875 344.730469 L 312.15625 326.78125 L 304.382812 309.269531 C 309.511719 300.933594 313.285156 291.835938 315.550781 282.316406 L 333.417969 275.433594 L 333.417969 246.242188 L 315.554688 239.363281 C 313.289062 229.839844 309.515625 220.738281 304.382812 212.402344 L 312.15625 194.894531 Z M 294.21875 176.949219 " fill-opacity="1" fill-rule="evenodd"/><path fill="#eceff1" d="M 276.738281 218.449219 C 278.125 219.839844 279.441406 221.292969 280.6875 222.808594 C 281.929688 224.328125 283.097656 225.902344 284.1875 227.535156 C 285.277344 229.167969 286.285156 230.847656 287.210938 232.578125 C 288.136719 234.3125 288.976562 236.085938 289.726562 237.898438 C 290.476562 239.710938 291.136719 241.558594 291.707031 243.4375 C 292.277344 245.316406 292.753906 247.21875 293.136719 249.144531 C 293.519531 251.070312 293.804688 253.007812 294 254.960938 C 294.191406 256.914062 294.289062 258.875 294.289062 260.835938 C 294.289062 262.800781 294.191406 264.757812 294 266.714844 C 293.808594 268.667969 293.519531 270.605469 293.136719 272.53125 C 292.753906 274.457031 292.277344 276.359375 291.707031 278.238281 C 291.136719 280.117188 290.476562 281.964844 289.726562 283.777344 C 288.976562 285.589844 288.136719 287.363281 287.214844 289.09375 C 286.289062 290.828125 285.28125 292.507812 284.191406 294.140625 C 283.101562 295.773438 281.933594 297.347656 280.6875 298.867188 C 279.441406 300.382812 278.125 301.835938 276.738281 303.222656 C 275.351562 304.613281 273.898438 305.929688 272.382812 307.175781 C 270.867188 308.421875 269.292969 309.589844 267.660156 310.679688 C 266.027344 311.769531 264.347656 312.777344 262.617188 313.703125 C 260.886719 314.628906 259.113281 315.46875 257.300781 316.21875 C 255.488281 316.96875 253.640625 317.632812 251.765625 318.199219 C 249.886719 318.769531 247.984375 319.246094 246.0625 319.628906 C 244.136719 320.011719 242.195312 320.300781 240.246094 320.492188 C 238.292969 320.6875 236.332031 320.78125 234.371094 320.78125 C 232.410156 320.78125 230.453125 320.6875 228.5 320.492188 C 226.546875 320.300781 224.605469 320.011719 222.683594 319.628906 C 220.757812 319.246094 218.855469 318.769531 216.976562 318.199219 C 215.101562 317.632812 213.253906 316.96875 211.441406 316.21875 C 209.628906 315.46875 207.855469 314.628906 206.125 313.703125 C 204.394531 312.777344 202.714844 311.769531 201.082031 310.679688 C 199.449219 309.589844 197.875 308.421875 196.359375 307.175781 C 194.84375 305.929688 193.390625 304.613281 192.003906 303.226562 C 190.613281 301.835938 189.300781 300.382812 188.054688 298.867188 C 186.808594 297.347656 185.640625 295.773438 184.550781 294.140625 C 183.460938 292.507812 182.453125 290.828125 181.527344 289.097656 C 180.601562 287.363281 179.765625 285.59375 179.015625 283.777344 C 178.261719 281.964844 177.601562 280.117188 177.03125 278.238281 C 176.464844 276.359375 175.988281 274.457031 175.605469 272.535156 C 175.222656 270.609375 174.933594 268.667969 174.742188 266.714844 C 174.546875 264.761719 174.453125 262.800781 174.453125 260.839844 C 174.453125 258.875 174.546875 256.917969 174.742188 254.964844 C 174.933594 253.007812 175.21875 251.070312 175.601562 249.144531 C 175.984375 247.21875 176.460938 245.316406 177.03125 243.4375 C 177.601562 241.558594 178.261719 239.714844 179.011719 237.898438 C 179.765625 236.085938 180.601562 234.3125 181.527344 232.582031 C 182.453125 230.851562 183.460938 229.167969 184.550781 227.535156 C 185.640625 225.902344 186.808594 224.328125 188.050781 222.808594 C 189.296875 221.292969 190.613281 219.839844 192 218.453125 C 193.386719 217.0625 194.839844 215.746094 196.359375 214.5 C 197.875 213.253906 199.449219 212.085938 201.082031 210.996094 C 202.710938 209.90625 204.394531 208.898438 206.125 207.972656 C 207.855469 207.046875 209.625 206.207031 211.4375 205.457031 C 213.253906 204.707031 215.097656 204.046875 216.976562 203.476562 C 218.851562 202.90625 220.753906 202.429688 222.679688 202.046875 C 224.605469 201.664062 226.542969 201.375 228.496094 201.183594 C 230.449219 200.992188 232.40625 200.894531 234.367188 200.894531 C 236.332031 200.894531 238.289062 200.988281 240.242188 201.183594 C 242.195312 201.375 244.132812 201.664062 246.058594 202.046875 C 247.984375 202.429688 249.882812 202.90625 251.761719 203.476562 C 253.640625 204.042969 255.484375 204.707031 257.296875 205.457031 C 259.109375 206.207031 260.882812 207.046875 262.613281 207.972656 C 264.34375 208.898438 266.027344 209.90625 267.65625 210.996094 C 269.289062 212.085938 270.863281 213.253906 272.378906 214.5 C 273.898438 215.746094 275.347656 217.0625 276.738281 218.449219 Z M 276.738281 218.449219 " fill-opacity="1" fill-rule="nonzero"/><path fill="#d1d1d6" d="M 234.371094 200.894531 C 201.277344 200.894531 174.457031 227.730469 174.457031 260.839844 C 174.457031 293.949219 201.277344 320.78125 234.371094 320.78125 C 235.976562 320.78125 237.566406 320.71875 239.140625 320.59375 C 208.273438 318.164062 183.988281 292.339844 183.988281 260.839844 C 183.988281 229.335938 208.273438 203.511719 239.140625 201.082031 C 237.566406 200.957031 235.976562 200.894531 234.371094 200.894531 Z M 234.371094 200.894531 " fill-opacity="1" fill-rule="evenodd"/><g clip-path="url(#f05e24cd9f)"><path fill="#242222" d="M 217.5625 246.230469 L 200.230469 260.835938 L 217.5625 275.445312 C 220.113281 277.597656 220.4375 281.402344 218.285156 283.957031 C 217.09375 285.375 215.390625 286.109375 213.667969 286.109375 C 212.292969 286.105469 210.914062 285.640625 209.78125 284.6875 L 186.972656 265.457031 C 185.609375 264.3125 184.824219 262.621094 184.824219 260.839844 C 184.824219 259.058594 185.609375 257.367188 186.972656 256.21875 L 209.78125 236.988281 C 212.332031 234.84375 216.136719 235.171875 218.285156 237.722656 C 220.4375 240.265625 220.113281 244.078125 217.5625 246.230469 Z M 258.960938 236.988281 L 281.773438 256.21875 C 283.132812 257.363281 283.917969 259.054688 283.917969 260.839844 C 283.917969 262.621094 283.132812 264.3125 281.773438 265.457031 L 258.960938 284.6875 C 257.828125 285.640625 256.449219 286.109375 255.074219 286.109375 C 253.355469 286.105469 251.648438 285.375 250.457031 283.957031 C 248.304688 281.402344 248.628906 277.597656 251.179688 275.449219 L 268.515625 260.839844 L 251.179688 246.230469 C 248.628906 244.078125 248.304688 240.265625 250.457031 237.722656 C 252.609375 235.167969 256.410156 234.84375 258.960938 236.988281 Z M 247.203125 285.40625 C 248.066406 288.628906 246.15625 291.945312 242.933594 292.804688 C 242.414062 292.945312 241.882812 293.007812 241.371094 293.007812 C 238.699219 293.007812 236.261719 291.234375 235.539062 288.53125 L 221.539062 236.273438 C 220.679688 233.046875 222.589844 229.734375 225.808594 228.871094 C 229.03125 228.011719 232.34375 229.921875 233.207031 233.144531 Z M 234.367188 315.839844 C 264.6875 315.839844 289.351562 291.164062 289.351562 260.839844 C 289.351562 230.511719 264.6875 205.835938 234.367188 205.839844 C 204.058594 205.839844 179.394531 230.511719 179.394531 260.839844 C 179.394531 291.164062 204.058594 315.839844 234.367188 315.839844 Z M 234.367188 193.757812 C 197.398438 193.757812 167.320312 223.851562 167.320312 260.839844 C 167.320312 297.824219 197.398438 327.917969 234.367188 327.917969 C 271.34375 327.917969 301.425781 297.824219 301.425781 260.839844 C 301.425781 223.851562 271.34375 193.757812 234.367188 193.757812 Z M 336.148438 271.285156 L 336.148438 250.390625 L 322.148438 245 C 320.292969 244.28125 318.910156 242.695312 318.441406 240.761719 C 316.328125 231.855469 312.8125 223.382812 308.007812 215.570312 C 306.964844 213.871094 306.820312 211.773438 307.628906 209.953125 L 313.71875 196.234375 L 298.953125 181.449219 L 285.230469 187.550781 C 283.414062 188.359375 281.308594 188.214844 279.617188 187.175781 C 271.808594 182.359375 263.339844 178.847656 254.441406 176.734375 C 252.503906 176.273438 250.917969 174.882812 250.207031 173.027344 L 244.820312 159.019531 L 223.925781 159.019531 L 218.535156 173.027344 C 217.828125 174.882812 216.242188 176.273438 214.300781 176.734375 C 205.40625 178.847656 196.9375 182.355469 189.128906 187.175781 C 187.433594 188.214844 185.332031 188.359375 183.511719 187.550781 L 169.792969 181.449219 L 155.023438 196.234375 L 161.113281 209.953125 C 161.921875 211.773438 161.78125 213.878906 160.738281 215.578125 C 155.929688 223.382812 152.417969 231.859375 150.300781 240.761719 C 149.839844 242.695312 148.453125 244.28125 146.59375 244.996094 L 132.601562 250.390625 L 132.601562 271.285156 L 146.59375 276.679688 C 148.449219 277.394531 149.835938 278.980469 150.296875 280.914062 C 152.414062 289.820312 155.929688 298.300781 160.734375 306.105469 C 161.78125 307.804688 161.921875 309.90625 161.113281 311.722656 L 155.023438 325.441406 L 169.792969 340.222656 L 183.511719 334.125 C 185.332031 333.316406 187.433594 333.460938 189.128906 334.5 C 196.9375 339.320312 205.410156 342.828125 214.300781 344.941406 C 216.242188 345.402344 217.828125 346.792969 218.542969 348.648438 L 223.921875 362.65625 L 244.820312 362.65625 L 250.199219 348.65625 C 250.917969 346.800781 252.503906 345.410156 254.441406 344.949219 C 263.339844 342.828125 271.8125 339.316406 279.625 334.507812 C 281.316406 333.460938 283.421875 333.316406 285.238281 334.132812 L 298.949219 340.222656 L 313.71875 325.441406 L 307.628906 311.714844 C 306.820312 309.898438 306.964844 307.796875 308.007812 306.097656 C 312.8125 298.285156 316.324219 289.816406 318.441406 280.914062 C 318.902344 278.980469 320.292969 277.394531 322.148438 276.679688 Z M 122.054688 289.84375 C 92.65625 289.84375 65.101562 286.222656 44.464844 279.652344 C 23.3125 272.917969 15.773438 265.140625 15.773438 260.113281 L 15.773438 206.804688 C 21.886719 211.199219 30.265625 215.125 40.804688 218.476562 C 62.59375 225.414062 91.449219 229.242188 122.054688 229.242188 C 128.507812 229.242188 134.925781 229.054688 141.246094 228.707031 C 140.546875 230.730469 139.914062 232.777344 139.351562 234.84375 L 124.394531 240.605469 C 122.0625 241.503906 120.527344 243.746094 120.527344 246.246094 L 120.527344 275.429688 C 120.527344 277.929688 122.0625 280.171875 124.394531 281.070312 L 139.347656 286.832031 C 139.578125 287.679688 139.828125 288.523438 140.082031 289.363281 C 134.144531 289.671875 128.113281 289.84375 122.054688 289.84375 Z M 15.773438 134.121094 C 21.886719 138.515625 30.265625 142.441406 40.804688 145.792969 C 62.59375 152.734375 91.449219 156.550781 122.054688 156.550781 C 152.660156 156.550781 181.515625 152.734375 203.304688 145.792969 C 213.84375 142.441406 222.226562 138.515625 228.339844 134.121094 L 228.339844 146.941406 L 219.78125 146.941406 C 217.28125 146.941406 215.050781 148.480469 214.152344 150.804688 L 208.394531 165.777344 C 200.410156 167.953125 192.757812 171.121094 185.5625 175.246094 L 170.90625 168.730469 C 168.625 167.71875 165.953125 168.207031 164.1875 169.976562 L 143.554688 190.625 C 141.789062 192.390625 141.292969 195.0625 142.304688 197.34375 L 148.816406 212.003906 C 148.015625 213.410156 147.257812 214.835938 146.527344 216.269531 C 138.535156 216.851562 130.328125 217.160156 122.054688 217.160156 C 92.65625 217.160156 65.105469 213.539062 44.464844 206.96875 C 23.3125 200.234375 15.773438 192.457031 15.773438 187.429688 Z M 15.773438 61.441406 L 15.773438 114.75 C 15.773438 119.777344 23.3125 127.546875 44.464844 134.289062 C 65.101562 140.859375 92.65625 144.472656 122.054688 144.472656 C 151.449219 144.472656 179.003906 140.859375 199.644531 134.289062 C 220.800781 127.546875 228.339844 119.777344 228.339844 114.75 L 228.339844 61.441406 C 222.226562 65.835938 213.839844 69.757812 203.304688 73.113281 C 181.515625 80.050781 152.660156 83.871094 122.054688 83.871094 C 91.449219 83.871094 62.59375 80.050781 40.804688 73.113281 C 30.261719 69.761719 21.886719 65.835938 15.773438 61.441406 Z M 44.464844 22.535156 C 65.101562 15.960938 92.65625 12.34375 122.054688 12.34375 C 151.449219 12.34375 179.003906 15.960938 199.644531 22.539062 C 220.800781 29.269531 228.339844 37.039062 228.339844 42.070312 C 228.339844 47.097656 220.800781 54.867188 199.644531 61.601562 C 179.003906 68.175781 151.453125 71.792969 122.054688 71.792969 C 92.65625 71.792969 65.101562 68.175781 44.464844 61.601562 C 23.3125 54.863281 15.773438 47.097656 15.773438 42.070312 C 15.773438 37.039062 23.3125 29.273438 44.464844 22.535156 Z M 344.347656 240.605469 L 329.398438 234.84375 C 327.21875 226.855469 324.042969 219.203125 319.929688 212.007812 L 326.441406 197.34375 C 327.453125 195.0625 326.953125 192.390625 325.1875 190.625 L 304.558594 169.976562 C 302.789062 168.210938 300.121094 167.71875 297.839844 168.730469 L 283.179688 175.246094 C 275.988281 171.125 268.332031 167.953125 260.351562 165.78125 L 254.59375 150.816406 C 253.703125 148.484375 251.460938 146.941406 248.960938 146.941406 L 240.410156 146.941406 L 240.410156 42.070312 C 240.410156 29.492188 227.574219 18.753906 203.304688 11.023438 C 181.515625 4.085938 152.660156 0.265625 122.054688 0.265625 C 91.449219 0.265625 62.59375 4.085938 40.804688 11.023438 C 16.53125 18.753906 3.699219 29.492188 3.699219 42.070312 L 3.699219 260.113281 C 3.699219 272.699219 16.53125 283.433594 40.800781 291.160156 C 62.59375 298.097656 91.449219 301.925781 122.054688 301.925781 C 129.617188 301.921875 137.140625 301.667969 144.503906 301.207031 C 145.800781 304.089844 147.234375 306.914062 148.8125 309.671875 L 142.304688 324.332031 C 141.289062 326.613281 141.785156 329.285156 143.550781 331.050781 L 164.1875 351.699219 C 165.953125 353.464844 168.625 353.957031 170.90625 352.945312 L 185.566406 346.429688 C 192.761719 350.542969 200.414062 353.722656 208.390625 355.898438 L 214.152344 370.863281 C 215.039062 373.195312 217.28125 374.734375 219.78125 374.734375 L 248.960938 374.734375 C 251.460938 374.734375 253.703125 373.195312 254.597656 370.863281 L 260.351562 355.90625 C 268.332031 353.722656 275.992188 350.550781 283.183594 346.4375 L 297.832031 352.945312 C 300.121094 353.964844 302.789062 353.464844 304.558594 351.699219 L 325.191406 331.050781 C 326.957031 329.285156 327.453125 326.613281 326.441406 324.332031 L 319.929688 309.667969 C 324.042969 302.46875 327.210938 294.8125 329.390625 286.832031 L 344.347656 281.070312 C 346.679688 280.171875 348.21875 277.929688 348.21875 275.433594 L 348.21875 246.246094 C 348.21875 243.746094 346.679688 241.503906 344.347656 240.605469 Z M 44.75 258.851562 C 49.425781 258.851562 53.226562 255.046875 53.226562 250.367188 C 53.226562 245.695312 49.425781 241.878906 44.75 241.882812 C 40.074219 241.882812 36.269531 245.691406 36.269531 250.367188 C 36.269531 255.046875 40.074219 258.851562 44.75 258.851562 Z M 44.75 229.800781 C 33.417969 229.800781 24.195312 239.027344 24.195312 250.367188 C 24.195312 261.707031 33.417969 270.933594 44.75 270.933594 C 56.082031 270.933594 65.300781 261.707031 65.300781 250.367188 C 65.300781 239.027344 56.082031 229.800781 44.75 229.800781 Z M 44.75 168.460938 C 40.074219 168.460938 36.269531 172.265625 36.269531 176.9375 C 36.269531 181.617188 40.074219 185.421875 44.75 185.421875 C 49.425781 185.421875 53.226562 181.617188 53.226562 176.9375 C 53.226562 172.265625 49.425781 168.460938 44.75 168.460938 Z M 44.75 197.503906 C 56.082031 197.503906 65.300781 188.277344 65.300781 176.9375 C 65.300781 165.597656 56.082031 156.378906 44.75 156.378906 C 33.417969 156.378906 24.195312 165.597656 24.195312 176.9375 C 24.195312 188.277344 33.414062 197.503906 44.75 197.503906 Z M 44.75 95.03125 C 49.425781 95.03125 53.226562 98.835938 53.226562 103.507812 C 53.226562 108.191406 49.425781 111.996094 44.75 111.996094 C 40.074219 111.996094 36.269531 108.191406 36.269531 103.507812 C 36.269531 98.835938 40.074219 95.03125 44.75 95.03125 Z M 44.75 124.074219 C 33.417969 124.074219 24.195312 114.847656 24.195312 103.507812 C 24.195312 92.167969 33.417969 82.949219 44.75 82.949219 C 56.082031 82.949219 65.300781 92.167969 65.300781 103.507812 C 65.300781 114.847656 56.082031 124.074219 44.75 124.074219 Z M 44.75 124.074219 " fill-opacity="1" fill-rule="evenodd"/></g></svg>