<svg xmlns="http://www.w3.org/2000/svg" xmlns:xlink="http://www.w3.org/1999/xlink" width="1920" zoomAndPan="magnify" viewBox="0 0 1440 809.999993" height="1080" preserveAspectRatio="xMidYMid meet" version="1.0"><defs><clipPath id="1da5b642bc"><path d="M 220.558594 0 L 1219.558594 0 L 1219.558594 809.941406 L 220.558594 809.941406 Z M 220.558594 0 " clip-rule="nonzero"/></clipPath></defs><g clip-path="url(#1da5b642bc)"><path fill="#fd741b" d="M 1219.625 118.355469 L 1219.625 567.734375 C 1219.625 632.695312 1166.761719 685.542969 1101.785156 685.542969 L 921.28125 685.542969 C 924.949219 693.714844 926.988281 702.769531 926.988281 712.292969 L 926.988281 743.878906 C 926.988281 780.027344 897.574219 809.429688 861.421875 809.429688 L 578.761719 809.429688 C 542.605469 809.429688 513.191406 780.023438 513.191406 743.878906 L 513.191406 712.292969 C 513.191406 702.769531 515.234375 693.714844 518.898438 685.542969 L 338.398438 685.542969 C 273.421875 685.542969 220.558594 632.695312 220.558594 567.734375 L 220.558594 118.355469 C 220.558594 53.394531 273.421875 0.546875 338.398438 0.546875 L 1101.785156 0.546875 C 1166.757812 0.546875 1219.625 53.394531 1219.625 118.355469 Z M 1219.625 118.355469 " fill-opacity="1" fill-rule="nonzero"/></g><path fill="#ffffff" d="M 1112.945312 127.476562 L 1112.945312 526.09375 L 327.238281 526.09375 L 327.238281 127.476562 C 327.238281 114.984375 337.363281 104.863281 349.855469 104.863281 L 1090.324219 104.863281 C 1102.816406 104.863281 1112.945312 114.984375 1112.945312 127.476562 Z M 1112.945312 127.476562 " fill-opacity="1" fill-rule="nonzero"/><path fill="#5260cb" d="M 801.914062 626.59375 L 801.914062 705.6875 L 638.269531 705.6875 L 638.269531 626.59375 Z M 725.109375 598.699219 C 737.460938 598.699219 747.46875 588.691406 747.46875 576.34375 C 747.46875 564 737.460938 553.992188 725.109375 553.992188 C 712.761719 553.992188 702.75 564 702.75 576.34375 C 702.75 588.691406 712.757812 598.699219 725.109375 598.699219 Z M 725.109375 598.699219 " fill-opacity="1" fill-rule="nonzero"/><path fill="#8adffb" d="M 868.023438 712.652344 L 868.023438 743.519531 C 868.023438 747.367188 864.90625 750.484375 861.058594 750.484375 L 579.125 750.484375 C 575.277344 750.484375 572.15625 747.367188 572.15625 743.519531 L 572.15625 712.652344 C 572.15625 708.808594 575.277344 705.6875 579.125 705.6875 L 861.058594 705.6875 C 864.90625 705.691406 868.023438 708.808594 868.023438 712.652344 Z M 370.257812 373.984375 C 364.828125 373.984375 360.429688 378.382812 360.429688 383.808594 L 360.429688 423.765625 C 360.429688 429.191406 364.828125 433.589844 370.257812 433.589844 C 375.683594 433.589844 380.082031 429.191406 380.082031 423.765625 L 380.082031 383.808594 C 380.082031 378.382812 375.683594 373.984375 370.257812 373.984375 Z M 370.257812 168.90625 C 364.828125 168.90625 360.429688 173.304688 360.429688 178.730469 L 360.429688 337.160156 C 360.429688 342.585938 364.828125 346.984375 370.257812 346.984375 C 375.683594 346.984375 380.082031 342.585938 380.082031 337.160156 L 380.082031 178.730469 C 380.082031 173.304688 375.683594 168.90625 370.257812 168.90625 Z M 1160.65625 121.582031 L 1160.65625 564.511719 C 1160.65625 598.796875 1132.855469 626.59375 1098.558594 626.59375 L 341.625 626.59375 C 307.328125 626.59375 279.527344 598.796875 279.527344 564.511719 L 279.527344 121.582031 C 279.527344 87.292969 307.328125 59.496094 341.625 59.496094 L 1098.558594 59.496094 C 1132.855469 59.496094 1160.65625 87.292969 1160.65625 121.582031 Z M 747.46875 576.34375 C 747.46875 564 737.460938 553.992188 725.109375 553.992188 C 712.761719 553.992188 702.75 564 702.75 576.34375 C 702.75 588.691406 712.761719 598.699219 725.109375 598.699219 C 737.460938 598.699219 747.46875 588.691406 747.46875 576.34375 Z M 1112.945312 127.476562 C 1112.945312 114.984375 1102.820312 104.863281 1090.328125 104.863281 L 349.855469 104.863281 C 337.363281 104.863281 327.238281 114.984375 327.238281 127.476562 L 327.238281 526.09375 L 1112.945312 526.09375 Z M 1112.945312 127.476562 " fill-opacity="1" fill-rule="nonzero"/></svg>