<svg xmlns="http://www.w3.org/2000/svg" xmlns:xlink="http://www.w3.org/1999/xlink" width="470" zoomAndPan="magnify" viewBox="0 0 352.5 374.999991" height="500" preserveAspectRatio="xMidYMid meet" version="1.0"><defs><clipPath id="70bab3333c"><path d="M 0 0.265625 L 288 0.265625 L 288 372.488281 L 0 372.488281 Z M 0 0.265625 " clip-rule="nonzero"/></clipPath><clipPath id="c52f65bd3f"><path d="M 0 0.265625 L 27 0.265625 L 27 372.488281 L 0 372.488281 Z M 0 0.265625 " clip-rule="nonzero"/></clipPath><clipPath id="e4ea4de0a1"><path d="M 240 0.265625 L 287 0.265625 L 287 47 L 240 47 Z M 240 0.265625 " clip-rule="nonzero"/></clipPath></defs><g clip-path="url(#70bab3333c)"><path fill="#eceff1" d="M 7.574219 0.265625 L 237.574219 0.265625 C 239.640625 0.265625 241.417969 1.003906 242.878906 2.464844 L 285.007812 44.597656 C 286.46875 46.058594 287.203125 47.835938 287.203125 49.902344 L 287.203125 364.984375 C 287.203125 369.117188 283.832031 372.488281 279.703125 372.488281 L 7.574219 372.488281 C 3.441406 372.488281 0.0703125 369.117188 0.0703125 364.984375 L 0.0703125 7.769531 C 0.0703125 3.636719 3.441406 0.265625 7.574219 0.265625 Z M 7.574219 0.265625 " fill-opacity="1" fill-rule="evenodd"/></g><g clip-path="url(#c52f65bd3f)"><path fill="#d1d1d6" d="M 7.574219 0.265625 L 26.882812 0.265625 L 26.882812 372.488281 L 7.574219 372.488281 C 3.441406 372.488281 0.0703125 369.117188 0.0703125 364.984375 L 0.0703125 7.769531 C 0.0703125 3.636719 3.441406 0.265625 7.574219 0.265625 Z M 7.574219 0.265625 " fill-opacity="1" fill-rule="evenodd"/></g><g clip-path="url(#e4ea4de0a1)"><path fill="#d1d1d6" d="M 240.683594 0.917969 C 241.480469 1.28125 242.214844 1.796875 242.878906 2.464844 L 285.007812 44.597656 C 285.671875 45.265625 286.1875 46 286.550781 46.792969 L 244.433594 46.792969 C 242.367188 46.792969 240.683594 45.109375 240.683594 43.042969 Z M 240.683594 0.917969 " fill-opacity="1" fill-rule="evenodd"/></g><path fill="#fe646f" d="M 39.453125 238.003906 L 63.855469 238.003906 C 66.230469 238.003906 68.167969 239.941406 68.167969 242.316406 L 68.167969 283.390625 C 68.167969 285.765625 66.230469 287.703125 63.855469 287.703125 L 39.453125 287.703125 C 37.078125 287.703125 35.140625 285.765625 35.140625 283.390625 L 35.140625 242.316406 C 35.140625 239.941406 37.078125 238.003906 39.453125 238.003906 Z M 39.453125 238.003906 " fill-opacity="1" fill-rule="evenodd"/><path fill="#fd4755" d="M 56.890625 238.003906 L 63.855469 238.003906 C 66.230469 238.003906 68.167969 239.941406 68.167969 242.316406 L 68.167969 283.390625 C 68.167969 285.765625 66.230469 287.703125 63.855469 287.703125 L 56.890625 287.703125 C 59.265625 287.703125 61.203125 285.765625 61.203125 283.390625 L 61.203125 242.316406 C 61.203125 239.941406 59.265625 238.003906 56.890625 238.003906 Z M 56.890625 238.003906 " fill-opacity="1" fill-rule="evenodd"/><path fill="#6cf5c2" d="M 100.777344 182.277344 L 125.175781 182.277344 C 127.550781 182.277344 129.488281 184.214844 129.488281 186.589844 L 129.488281 283.390625 C 129.488281 285.765625 127.550781 287.703125 125.175781 287.703125 L 100.777344 287.703125 C 98.402344 287.703125 96.464844 285.765625 96.464844 283.390625 L 96.464844 186.589844 C 96.464844 184.214844 98.402344 182.277344 100.777344 182.277344 Z M 100.777344 182.277344 " fill-opacity="1" fill-rule="evenodd"/><path fill="#00e499" d="M 118.214844 182.277344 L 125.175781 182.277344 C 127.550781 182.277344 129.488281 184.214844 129.488281 186.589844 L 129.488281 283.390625 C 129.488281 285.765625 127.550781 287.703125 125.175781 287.703125 L 118.214844 287.703125 C 120.589844 287.703125 122.523438 285.765625 122.523438 283.390625 L 122.523438 186.589844 C 122.527344 184.214844 120.589844 182.277344 118.214844 182.277344 Z M 118.214844 182.277344 " fill-opacity="1" fill-rule="evenodd"/><path fill="#ffe177" d="M 162.097656 204.800781 C 170.230469 204.800781 178.363281 204.800781 186.496094 204.800781 C 188.871094 204.800781 190.808594 206.738281 190.808594 209.117188 C 190.808594 242.867188 190.808594 249.640625 190.808594 283.390625 C 190.808594 285.765625 188.871094 287.703125 186.496094 287.703125 C 178.363281 287.703125 170.230469 287.703125 162.097656 287.703125 C 159.722656 287.703125 157.785156 285.765625 157.785156 283.390625 C 157.785156 249.640625 157.785156 242.867188 157.785156 209.117188 C 157.785156 206.738281 159.722656 204.800781 162.097656 204.800781 Z M 162.097656 204.800781 " fill-opacity="1" fill-rule="evenodd"/><path fill="#ffd064" d="M 179.535156 204.800781 L 186.496094 204.800781 C 188.871094 204.800781 190.808594 206.738281 190.808594 209.117188 C 190.808594 242.867188 190.808594 249.640625 190.808594 283.390625 C 190.808594 285.765625 188.871094 287.703125 186.496094 287.703125 L 179.535156 287.703125 C 181.910156 287.703125 183.847656 285.765625 183.847656 283.390625 C 183.847656 249.640625 183.847656 242.867188 183.847656 209.117188 C 183.847656 206.738281 181.910156 204.800781 179.535156 204.800781 Z M 179.535156 204.800781 " fill-opacity="1" fill-rule="evenodd"/><path fill="#8ac9fe" d="M 223.417969 138.949219 L 247.816406 138.949219 C 250.191406 138.949219 252.128906 140.886719 252.128906 143.261719 L 252.128906 283.390625 C 252.128906 285.765625 250.191406 287.703125 247.816406 287.703125 L 223.417969 287.703125 C 221.042969 287.703125 219.105469 285.765625 219.105469 283.390625 L 219.105469 143.261719 C 219.105469 140.886719 221.042969 138.949219 223.417969 138.949219 Z M 223.417969 138.949219 " fill-opacity="1" fill-rule="evenodd"/><path fill="#60b7ff" d="M 240.855469 138.949219 L 247.816406 138.949219 C 250.195312 138.949219 252.128906 140.886719 252.128906 143.261719 L 252.128906 283.390625 C 252.128906 285.765625 250.191406 287.703125 247.816406 287.703125 L 240.855469 287.703125 C 243.230469 287.703125 245.167969 285.765625 245.167969 283.390625 L 245.167969 143.261719 C 245.167969 140.886719 243.230469 138.949219 240.855469 138.949219 Z M 240.855469 138.949219 " fill-opacity="1" fill-rule="evenodd"/><path fill="#a79ba7" d="M 55.460938 193.820312 C 52.769531 195.921875 48.886719 195.445312 46.785156 192.753906 C 44.683594 190.066406 45.160156 186.179688 47.851562 184.078125 L 109.171875 136.320312 C 110.664062 135.15625 112.519531 134.785156 114.234375 135.140625 L 114.238281 135.132812 L 172.519531 147.375 L 231.5 94.613281 C 234.042969 92.335938 237.945312 92.554688 240.222656 95.097656 C 242.496094 97.640625 242.277344 101.542969 239.738281 103.820312 L 178.679688 158.441406 C 177.253906 159.867188 175.160156 160.570312 173.039062 160.128906 L 114.503906 147.835938 Z M 55.460938 193.820312 " fill-opacity="1" fill-rule="evenodd"/><path fill="#fe646f" d="M 65.820312 188.949219 C 65.820312 189.878906 65.730469 190.800781 65.546875 191.714844 C 65.367188 192.628906 65.097656 193.511719 64.742188 194.371094 C 64.386719 195.234375 63.949219 196.050781 63.433594 196.824219 C 62.917969 197.597656 62.328125 198.3125 61.671875 198.96875 C 61.011719 199.628906 60.296875 200.214844 59.523438 200.730469 C 58.75 201.25 57.933594 201.6875 57.074219 202.042969 C 56.214844 202.398438 55.328125 202.667969 54.417969 202.847656 C 53.503906 203.03125 52.582031 203.121094 51.652344 203.121094 C 50.722656 203.121094 49.800781 203.03125 48.890625 202.847656 C 47.976562 202.667969 47.089844 202.398438 46.230469 202.042969 C 45.371094 201.6875 44.554688 201.25 43.78125 200.730469 C 43.007812 200.214844 42.292969 199.628906 41.636719 198.96875 C 40.976562 198.3125 40.390625 197.597656 39.875 196.824219 C 39.355469 196.050781 38.921875 195.234375 38.566406 194.371094 C 38.207031 193.511719 37.941406 192.628906 37.757812 191.714844 C 37.578125 190.800781 37.484375 189.878906 37.484375 188.949219 C 37.484375 188.019531 37.578125 187.097656 37.757812 186.1875 C 37.941406 185.273438 38.207031 184.386719 38.566406 183.527344 C 38.921875 182.667969 39.355469 181.851562 39.875 181.078125 C 40.390625 180.304688 40.976562 179.589844 41.636719 178.929688 C 42.292969 178.273438 43.007812 177.683594 43.78125 177.167969 C 44.554688 176.652344 45.371094 176.214844 46.230469 175.859375 C 47.089844 175.503906 47.976562 175.234375 48.890625 175.050781 C 49.800781 174.871094 50.722656 174.78125 51.652344 174.78125 C 52.582031 174.78125 53.503906 174.871094 54.417969 175.050781 C 55.328125 175.234375 56.214844 175.503906 57.074219 175.859375 C 57.933594 176.214844 58.75 176.652344 59.523438 177.167969 C 60.296875 177.683594 61.011719 178.273438 61.671875 178.929688 C 62.328125 179.589844 62.917969 180.304688 63.433594 181.078125 C 63.949219 181.851562 64.386719 182.667969 64.742188 183.527344 C 65.097656 184.386719 65.367188 185.273438 65.546875 186.1875 C 65.730469 187.097656 65.820312 188.019531 65.820312 188.949219 Z M 65.820312 188.949219 " fill-opacity="1" fill-rule="nonzero"/><path fill="#fd4755" d="M 51.65625 174.78125 C 59.480469 174.78125 65.820312 181.125 65.820312 188.949219 C 65.820312 196.777344 59.480469 203.121094 51.65625 203.121094 C 51.015625 203.121094 50.386719 203.078125 49.773438 202.996094 C 56.707031 202.074219 62.058594 196.136719 62.058594 188.949219 C 62.058594 181.761719 56.707031 175.824219 49.773438 174.90625 C 50.386719 174.824219 51.015625 174.78125 51.65625 174.78125 Z M 51.65625 174.78125 " fill-opacity="1" fill-rule="evenodd"/><path fill="#6cf5c2" d="M 127.144531 141.191406 C 127.144531 142.125 127.050781 143.042969 126.871094 143.957031 C 126.6875 144.871094 126.421875 145.753906 126.066406 146.617188 C 125.707031 147.476562 125.273438 148.292969 124.753906 149.066406 C 124.238281 149.839844 123.652344 150.554688 122.992188 151.210938 C 122.335938 151.871094 121.621094 152.457031 120.847656 152.976562 C 120.074219 153.492188 119.257812 153.929688 118.398438 154.285156 C 117.539062 154.640625 116.652344 154.910156 115.738281 155.089844 C 114.828125 155.273438 113.90625 155.363281 112.976562 155.363281 C 112.046875 155.363281 111.125 155.273438 110.210938 155.089844 C 109.300781 154.910156 108.414062 154.640625 107.554688 154.285156 C 106.695312 153.929688 105.878906 153.492188 105.105469 152.976562 C 104.332031 152.457031 103.617188 151.871094 102.957031 151.210938 C 102.300781 150.554688 101.710938 149.839844 101.195312 149.066406 C 100.679688 148.292969 100.242188 147.476562 99.886719 146.617188 C 99.53125 145.753906 99.261719 144.871094 99.082031 143.957031 C 98.898438 143.042969 98.808594 142.125 98.808594 141.191406 C 98.808594 140.261719 98.898438 139.339844 99.082031 138.429688 C 99.261719 137.515625 99.53125 136.628906 99.886719 135.769531 C 100.242188 134.910156 100.679688 134.09375 101.195312 133.320312 C 101.710938 132.546875 102.300781 131.832031 102.957031 131.171875 C 103.617188 130.515625 104.332031 129.925781 105.105469 129.410156 C 105.878906 128.894531 106.695312 128.457031 107.554688 128.101562 C 108.414062 127.746094 109.300781 127.476562 110.210938 127.296875 C 111.125 127.113281 112.046875 127.023438 112.976562 127.023438 C 113.90625 127.023438 114.828125 127.113281 115.738281 127.296875 C 116.652344 127.476562 117.539062 127.746094 118.398438 128.101562 C 119.257812 128.457031 120.074219 128.894531 120.847656 129.410156 C 121.621094 129.925781 122.335938 130.515625 122.992188 131.171875 C 123.652344 131.832031 124.238281 132.546875 124.753906 133.320312 C 125.273438 134.09375 125.707031 134.910156 126.066406 135.769531 C 126.421875 136.628906 126.6875 137.515625 126.871094 138.429688 C 127.050781 139.339844 127.144531 140.261719 127.144531 141.191406 Z M 127.144531 141.191406 " fill-opacity="1" fill-rule="nonzero"/><path fill="#00e499" d="M 112.976562 127.023438 C 120.800781 127.023438 127.144531 133.367188 127.144531 141.195312 C 127.144531 149.019531 120.800781 155.363281 112.976562 155.363281 C 112.335938 155.363281 111.710938 155.320312 111.09375 155.238281 C 118.03125 154.320312 123.382812 148.382812 123.382812 141.195312 C 123.382812 134.007812 118.03125 128.070312 111.09375 127.148438 C 111.710938 127.066406 112.335938 127.023438 112.976562 127.023438 Z M 112.976562 127.023438 " fill-opacity="1" fill-rule="evenodd"/><path fill="#ffe177" d="M 188.464844 154.070312 C 188.464844 155 188.375 155.921875 188.191406 156.835938 C 188.011719 157.746094 187.742188 158.632812 187.386719 159.492188 C 187.03125 160.351562 186.59375 161.167969 186.078125 161.941406 C 185.558594 162.71875 184.972656 163.433594 184.316406 164.089844 C 183.65625 164.75 182.941406 165.335938 182.167969 165.851562 C 181.394531 166.371094 180.578125 166.804688 179.71875 167.164062 C 178.859375 167.519531 177.972656 167.785156 177.0625 167.96875 C 176.148438 168.148438 175.226562 168.242188 174.296875 168.242188 C 173.367188 168.242188 172.445312 168.148438 171.53125 167.96875 C 170.621094 167.785156 169.734375 167.519531 168.875 167.164062 C 168.015625 166.804688 167.199219 166.371094 166.425781 165.851562 C 165.652344 165.335938 164.9375 164.75 164.277344 164.089844 C 163.621094 163.433594 163.035156 162.71875 162.515625 161.941406 C 162 161.167969 161.5625 160.351562 161.207031 159.492188 C 160.851562 158.632812 160.582031 157.746094 160.402344 156.835938 C 160.21875 155.921875 160.128906 155 160.128906 154.070312 C 160.128906 153.140625 160.21875 152.21875 160.402344 151.304688 C 160.582031 150.394531 160.851562 149.507812 161.207031 148.648438 C 161.5625 147.789062 162 146.972656 162.515625 146.199219 C 163.035156 145.425781 163.621094 144.710938 164.277344 144.050781 C 164.9375 143.394531 165.652344 142.804688 166.425781 142.289062 C 167.199219 141.773438 168.015625 141.335938 168.875 140.980469 C 169.734375 140.625 170.621094 140.355469 171.53125 140.171875 C 172.445312 139.992188 173.367188 139.902344 174.296875 139.902344 C 175.226562 139.902344 176.148438 139.992188 177.0625 140.171875 C 177.972656 140.355469 178.859375 140.625 179.71875 140.980469 C 180.578125 141.335938 181.394531 141.773438 182.167969 142.289062 C 182.941406 142.804688 183.65625 143.394531 184.316406 144.050781 C 184.972656 144.710938 185.558594 145.425781 186.078125 146.199219 C 186.59375 146.972656 187.03125 147.789062 187.386719 148.648438 C 187.742188 149.507812 188.011719 150.394531 188.191406 151.304688 C 188.375 152.21875 188.464844 153.140625 188.464844 154.070312 Z M 188.464844 154.070312 " fill-opacity="1" fill-rule="nonzero"/><path fill="#ffd064" d="M 174.296875 139.902344 C 182.121094 139.902344 188.464844 146.246094 188.464844 154.070312 C 188.464844 161.898438 182.121094 168.242188 174.296875 168.242188 C 173.660156 168.242188 173.03125 168.199219 172.417969 168.117188 C 179.351562 167.195312 184.703125 161.257812 184.703125 154.070312 C 184.703125 146.882812 179.351562 140.945312 172.417969 140.027344 C 173.03125 139.945312 173.660156 139.902344 174.296875 139.902344 Z M 174.296875 139.902344 " fill-opacity="1" fill-rule="evenodd"/><path fill="#8ac9fe" d="M 249.785156 99.214844 C 249.785156 100.148438 249.695312 101.066406 249.511719 101.980469 C 249.332031 102.894531 249.0625 103.777344 248.707031 104.640625 C 248.351562 105.5 247.914062 106.316406 247.398438 107.089844 C 246.878906 107.863281 246.292969 108.578125 245.636719 109.234375 C 244.976562 109.894531 244.261719 110.480469 243.488281 111 C 242.714844 111.515625 241.898438 111.953125 241.039062 112.308594 C 240.179688 112.664062 239.292969 112.933594 238.382812 113.113281 C 237.46875 113.296875 236.546875 113.386719 235.617188 113.386719 C 234.6875 113.386719 233.765625 113.296875 232.855469 113.113281 C 231.941406 112.933594 231.054688 112.664062 230.195312 112.308594 C 229.335938 111.953125 228.519531 111.515625 227.746094 111 C 226.972656 110.480469 226.257812 109.894531 225.601562 109.234375 C 224.941406 108.578125 224.355469 107.863281 223.835938 107.089844 C 223.320312 106.316406 222.882812 105.5 222.527344 104.640625 C 222.171875 103.777344 221.902344 102.894531 221.722656 101.980469 C 221.539062 101.066406 221.449219 100.148438 221.449219 99.214844 C 221.449219 98.285156 221.539062 97.363281 221.722656 96.453125 C 221.902344 95.539062 222.171875 94.652344 222.527344 93.792969 C 222.882812 92.933594 223.320312 92.117188 223.835938 91.34375 C 224.355469 90.570312 224.941406 89.855469 225.601562 89.195312 C 226.257812 88.539062 226.972656 87.949219 227.746094 87.433594 C 228.519531 86.917969 229.335938 86.480469 230.195312 86.125 C 231.054688 85.769531 231.941406 85.5 232.855469 85.320312 C 233.765625 85.136719 234.6875 85.046875 235.617188 85.046875 C 236.546875 85.046875 237.46875 85.136719 238.382812 85.320312 C 239.292969 85.5 240.179688 85.769531 241.039062 86.125 C 241.898438 86.480469 242.714844 86.917969 243.488281 87.433594 C 244.261719 87.949219 244.976562 88.539062 245.636719 89.195312 C 246.292969 89.855469 246.878906 90.570312 247.398438 91.34375 C 247.914062 92.117188 248.351562 92.933594 248.707031 93.792969 C 249.0625 94.652344 249.332031 95.539062 249.511719 96.453125 C 249.695312 97.363281 249.785156 98.285156 249.785156 99.214844 Z M 249.785156 99.214844 " fill-opacity="1" fill-rule="nonzero"/><path fill="#60b7ff" d="M 235.617188 85.046875 C 243.441406 85.046875 249.785156 91.390625 249.785156 99.214844 C 249.785156 107.042969 243.441406 113.386719 235.617188 113.386719 C 234.980469 113.386719 234.351562 113.34375 233.738281 113.261719 C 240.671875 112.339844 246.023438 106.402344 246.023438 99.214844 C 246.023438 92.027344 240.671875 86.089844 233.738281 85.171875 C 234.351562 85.089844 234.980469 85.046875 235.617188 85.046875 Z M 235.617188 85.046875 " fill-opacity="1" fill-rule="evenodd"/><path fill="#e3a76f" d="M 292.335938 239.820312 L 307.980469 248.855469 C 310.9375 250.5625 314.75 249.539062 316.453125 246.585938 L 350.25 188.035156 C 351.957031 185.078125 350.933594 181.265625 347.980469 179.5625 L 332.335938 170.527344 C 329.382812 168.820312 325.570312 169.84375 323.863281 172.796875 L 290.066406 231.347656 C 288.359375 234.300781 289.382812 238.113281 292.335938 239.820312 Z M 292.335938 239.820312 " fill-opacity="1" fill-rule="evenodd"/><path fill="#c48958" d="M 292.335938 239.820312 L 307.980469 248.855469 C 310.9375 250.5625 314.75 249.539062 316.453125 246.585938 L 350.25 188.035156 C 351.957031 185.078125 350.933594 181.265625 347.980469 179.5625 L 340.160156 175.046875 C 343.113281 176.753906 344.132812 180.5625 342.429688 183.519531 L 308.632812 242.066406 C 306.925781 245.023438 303.113281 246.042969 300.160156 244.335938 Z M 292.335938 239.820312 " fill-opacity="1" fill-rule="evenodd"/><path fill="#837683" d="M 283.609375 215.921875 L 331.488281 243.570312 C 338.136719 247.410156 340.433594 255.988281 336.597656 262.636719 L 325.886719 281.1875 C 322.050781 287.839844 313.472656 290.136719 306.824219 286.296875 L 258.945312 258.652344 C 252.296875 254.8125 250 246.234375 253.839844 239.585938 L 264.546875 221.03125 C 268.382812 214.382812 276.960938 212.085938 283.609375 215.921875 Z M 283.609375 215.921875 " fill-opacity="1" fill-rule="evenodd"/><path fill="#685e68" d="M 283.609375 215.921875 L 331.488281 243.570312 C 338.136719 247.410156 340.433594 255.988281 336.597656 262.636719 L 325.886719 281.1875 C 322.792969 286.550781 316.617188 289.082031 310.859375 287.851562 C 312.945312 286.667969 314.753906 284.933594 316.035156 282.714844 L 326.746094 264.164062 C 330.582031 257.515625 328.285156 248.933594 321.636719 245.097656 L 273.757812 217.449219 C 272.46875 216.703125 271.109375 216.191406 269.726562 215.894531 C 273.894531 213.535156 279.179688 213.367188 283.609375 215.921875 Z M 283.609375 215.921875 " fill-opacity="1" fill-rule="evenodd"/><path fill="#e3a76f" d="M 260.5 235.707031 L 325.914062 273.480469 C 327.941406 274.652344 328.964844 276.863281 328.539062 279.164062 L 311.765625 370.328125 C 311.5625 371.445312 310.34375 371.898438 309.464844 371.390625 L 273.984375 350.898438 C 273.324219 350.519531 273.039062 349.734375 273.304688 349.019531 L 285.226562 316.714844 C 285.773438 315.230469 284 313.980469 282.785156 314.976562 L 254.300781 338.371094 C 253.789062 338.789062 253.109375 338.84375 252.539062 338.515625 L 230.082031 325.546875 C 229.347656 325.121094 229.089844 324.175781 229.511719 323.4375 L 242.03125 301.441406 C 242.820312 300.0625 241.269531 298.554688 239.917969 299.328125 L 212.914062 314.746094 C 212.421875 315.027344 211.859375 315.023438 211.367188 314.742188 L 183.949219 298.90625 C 183.070312 298.402344 182.851562 297.121094 183.71875 296.382812 L 254.265625 236.273438 C 256.046875 234.757812 258.472656 234.535156 260.5 235.707031 Z M 260.5 235.707031 " fill-opacity="1" fill-rule="evenodd"/><path fill="#c48958" d="M 260.5 235.707031 L 325.914062 273.480469 C 327.941406 274.652344 328.964844 276.863281 328.539062 279.164062 L 311.765625 370.328125 C 311.5625 371.445312 310.34375 371.898438 309.464844 371.390625 L 304.84375 368.71875 L 320.621094 282.976562 C 321.042969 280.675781 320.019531 278.464844 317.996094 277.292969 L 252.578125 239.519531 C 252.117188 239.253906 251.632812 239.058594 251.140625 238.9375 L 254.265625 236.273438 C 256.046875 234.757812 258.472656 234.535156 260.5 235.707031 Z M 260.5 235.707031 " fill-opacity="1" fill-rule="evenodd"/></svg>