<svg width="13" height="14" viewBox="0 0 13 14" fill="none" xmlns="http://www.w3.org/2000/svg">
<path d="M0.914062 3.4H2.11898H11.7583" stroke="#808080" stroke-width="1.2" stroke-linecap="round" stroke-linejoin="round"/>
<path d="M10.5536 3.4V11.8C10.5536 12.1183 10.4266 12.4235 10.2007 12.6485C9.97469 12.8736 9.66821 13 9.34865 13H3.32406C3.00449 13 2.69802 12.8736 2.47205 12.6485C2.24609 12.4235 2.11914 12.1183 2.11914 11.8V3.4M3.92652 3.4V2.2C3.92652 1.88174 4.05346 1.57652 4.27943 1.35147C4.5054 1.12643 4.81187 1 5.13144 1H7.54127C7.86084 1 8.16731 1.12643 8.39328 1.35147C8.61924 1.57652 8.74619 1.88174 8.74619 2.2V3.4" stroke="#808080" stroke-width="1.2" stroke-linecap="round" stroke-linejoin="round"/>
<path d="M5.13086 6.40002V10" stroke="#808080" stroke-width="1.2" stroke-linecap="round" stroke-linejoin="round"/>
<path d="M7.54102 6.40002V10" stroke="#808080" stroke-width="1.2" stroke-linecap="round" stroke-linejoin="round"/>
</svg>
