<svg xmlns="http://www.w3.org/2000/svg" xmlns:xlink="http://www.w3.org/1999/xlink" width="1920" zoomAndPan="magnify" viewBox="0 0 1440 809.999993" height="1080" preserveAspectRatio="xMidYMid meet" version="1.0"><path fill="#000000" d="M 756.816406 810 L 425.453125 810 C 423.648438 810 421.839844 809.957031 420.035156 809.867188 C 418.230469 809.777344 416.425781 809.644531 414.628906 809.46875 C 412.828125 809.289062 411.035156 809.070312 409.246094 808.804688 C 407.460938 808.539062 405.679688 808.230469 403.90625 807.878906 C 402.132812 807.523438 400.371094 807.128906 398.617188 806.691406 C 396.863281 806.25 395.121094 805.769531 393.390625 805.242188 C 391.660156 804.71875 389.945312 804.152344 388.242188 803.542969 C 386.542969 802.933594 384.855469 802.285156 383.183594 801.59375 C 381.515625 800.898438 379.863281 800.167969 378.230469 799.394531 C 376.59375 798.621094 374.980469 797.808594 373.386719 796.957031 C 371.792969 796.105469 370.21875 795.214844 368.667969 794.285156 C 367.117188 793.355469 365.59375 792.390625 364.089844 791.386719 C 362.585938 790.378906 361.109375 789.339844 359.65625 788.261719 C 358.203125 787.1875 356.78125 786.074219 355.382812 784.929688 C 353.984375 783.78125 352.617188 782.601562 351.277344 781.386719 C 349.9375 780.171875 348.628906 778.925781 347.351562 777.648438 C 346.074219 776.371094 344.828125 775.0625 343.613281 773.722656 C 342.398438 772.382812 341.21875 771.015625 340.070312 769.617188 C 338.925781 768.21875 337.8125 766.792969 336.738281 765.34375 C 335.660156 763.890625 334.621094 762.414062 333.613281 760.910156 C 332.609375 759.40625 331.644531 757.878906 330.714844 756.332031 C 329.785156 754.78125 328.894531 753.207031 328.042969 751.613281 C 327.191406 750.019531 326.378906 748.40625 325.605469 746.769531 C 324.832031 745.136719 324.097656 743.484375 323.40625 741.8125 C 322.714844 740.144531 322.066406 738.457031 321.457031 736.757812 C 320.847656 735.054688 320.28125 733.339844 319.757812 731.609375 C 319.230469 729.878906 318.75 728.136719 318.308594 726.382812 C 317.871094 724.628906 317.476562 722.867188 317.121094 721.09375 C 316.769531 719.320312 316.460938 717.539062 316.195312 715.753906 C 315.929688 713.964844 315.710938 712.171875 315.53125 710.371094 C 315.355469 708.574219 315.222656 706.769531 315.132812 704.964844 C 315.042969 703.160156 315 701.351562 315 699.546875 L 315 110.453125 C 315 108.648438 315.042969 106.839844 315.132812 105.035156 C 315.222656 103.230469 315.355469 101.425781 315.53125 99.628906 C 315.710938 97.828125 315.929688 96.035156 316.195312 94.246094 C 316.460938 92.460938 316.769531 90.679688 317.121094 88.90625 C 317.476562 87.132812 317.871094 85.371094 318.308594 83.617188 C 318.75 81.863281 319.230469 80.121094 319.757812 78.390625 C 320.28125 76.660156 320.847656 74.945312 321.457031 73.242188 C 322.066406 71.542969 322.714844 69.855469 323.40625 68.183594 C 324.101562 66.515625 324.832031 64.863281 325.605469 63.230469 C 326.378906 61.59375 327.191406 59.980469 328.042969 58.386719 C 328.894531 56.792969 329.785156 55.21875 330.714844 53.667969 C 331.644531 52.117188 332.609375 50.59375 333.613281 49.089844 C 334.621094 47.585938 335.660156 46.109375 336.738281 44.65625 C 337.8125 43.203125 338.925781 41.78125 340.070312 40.382812 C 341.21875 38.984375 342.398438 37.617188 343.613281 36.277344 C 344.828125 34.9375 346.074219 33.628906 347.351562 32.351562 C 348.628906 31.074219 349.9375 29.828125 351.277344 28.613281 C 352.617188 27.398438 353.984375 26.21875 355.382812 25.070312 C 356.78125 23.925781 358.203125 22.8125 359.65625 21.738281 C 361.109375 20.660156 362.585938 19.621094 364.089844 18.613281 C 365.59375 17.609375 367.117188 16.644531 368.667969 15.714844 C 370.21875 14.785156 371.792969 13.894531 373.386719 13.042969 C 374.980469 12.191406 376.59375 11.378906 378.230469 10.605469 C 379.863281 9.832031 381.515625 9.101562 383.183594 8.40625 C 384.855469 7.714844 386.542969 7.066406 388.242188 6.457031 C 389.945312 5.847656 391.660156 5.28125 393.390625 4.757812 C 395.121094 4.230469 396.863281 3.75 398.617188 3.308594 C 400.371094 2.871094 402.132812 2.476562 403.90625 2.121094 C 405.679688 1.769531 407.460938 1.460938 409.246094 1.195312 C 411.035156 0.929688 412.828125 0.710938 414.628906 0.53125 C 416.425781 0.355469 418.230469 0.222656 420.035156 0.132812 C 421.839844 0.0429688 423.648438 0 425.453125 0 L 756.816406 0 C 758.625 0 760.433594 0.0429688 762.238281 0.132812 C 764.042969 0.222656 765.84375 0.355469 767.644531 0.53125 C 769.445312 0.710938 771.238281 0.929688 773.023438 1.195312 C 774.8125 1.460938 776.59375 1.769531 778.367188 2.121094 C 780.140625 2.476562 781.902344 2.871094 783.65625 3.308594 C 785.410156 3.75 787.152344 4.230469 788.882812 4.757812 C 790.609375 5.28125 792.328125 5.847656 794.027344 6.457031 C 795.730469 7.066406 797.417969 7.714844 799.085938 8.40625 C 800.757812 9.097656 802.410156 9.832031 804.042969 10.605469 C 805.675781 11.378906 807.292969 12.191406 808.886719 13.042969 C 810.480469 13.894531 812.050781 14.785156 813.601562 15.714844 C 815.152344 16.644531 816.679688 17.609375 818.183594 18.613281 C 819.6875 19.621094 821.164062 20.660156 822.617188 21.738281 C 824.066406 22.8125 825.492188 23.925781 826.890625 25.070312 C 828.285156 26.21875 829.65625 27.398438 830.996094 28.613281 C 832.335938 29.828125 833.644531 31.074219 834.921875 32.351562 C 836.199219 33.628906 837.445312 34.9375 838.660156 36.277344 C 839.875 37.617188 841.054688 38.984375 842.199219 40.382812 C 843.347656 41.78125 844.460938 43.203125 845.535156 44.65625 C 846.613281 46.109375 847.652344 47.585938 848.65625 49.089844 C 849.660156 50.59375 850.628906 52.117188 851.558594 53.667969 C 852.488281 55.21875 853.378906 56.792969 854.230469 58.386719 C 855.082031 59.980469 855.894531 61.59375 856.667969 63.230469 C 857.441406 64.863281 858.171875 66.515625 858.863281 68.183594 C 859.554688 69.855469 860.207031 71.542969 860.816406 73.242188 C 861.425781 74.945312 861.992188 76.660156 862.515625 78.390625 C 863.042969 80.121094 863.523438 81.863281 863.960938 83.617188 C 864.402344 85.371094 864.796875 87.132812 865.148438 88.90625 C 865.503906 90.679688 865.8125 92.460938 866.078125 94.246094 C 866.34375 96.035156 866.5625 97.828125 866.742188 99.628906 C 866.917969 101.425781 867.050781 103.230469 867.140625 105.035156 C 867.226562 106.839844 867.273438 108.648438 867.273438 110.453125 L 867.273438 239.316406 C 867.273438 240.523438 867.214844 241.726562 867.09375 242.925781 C 866.976562 244.128906 866.800781 245.316406 866.566406 246.5 C 866.328125 247.683594 866.039062 248.851562 865.6875 250.007812 C 865.335938 251.160156 864.929688 252.292969 864.46875 253.40625 C 864.007812 254.523438 863.492188 255.609375 862.925781 256.675781 C 862.355469 257.738281 861.738281 258.769531 861.066406 259.773438 C 860.398438 260.777344 859.679688 261.742188 858.914062 262.675781 C 858.148438 263.609375 857.339844 264.5 856.488281 265.351562 C 855.636719 266.207031 854.742188 267.015625 853.8125 267.777344 C 852.878906 268.542969 851.914062 269.261719 850.910156 269.929688 C 849.90625 270.601562 848.875 271.21875 847.808594 271.789062 C 846.746094 272.355469 845.660156 272.871094 844.542969 273.332031 C 843.429688 273.796875 842.296875 274.199219 841.140625 274.550781 C 839.988281 274.902344 838.820312 275.195312 837.636719 275.429688 C 836.453125 275.664062 835.261719 275.839844 834.0625 275.960938 C 832.863281 276.078125 831.660156 276.136719 830.453125 276.136719 C 829.25 276.136719 828.046875 276.078125 826.847656 275.960938 C 825.644531 275.839844 824.453125 275.664062 823.273438 275.429688 C 822.089844 275.195312 820.921875 274.902344 819.765625 274.550781 C 818.613281 274.199219 817.480469 273.796875 816.363281 273.332031 C 815.25 272.871094 814.160156 272.355469 813.097656 271.789062 C 812.035156 271.21875 811 270.601562 810 269.929688 C 808.996094 269.261719 808.03125 268.542969 807.097656 267.777344 C 806.164062 267.015625 805.273438 266.207031 804.421875 265.351562 C 803.566406 264.5 802.757812 263.609375 801.992188 262.675781 C 801.230469 261.742188 800.511719 260.777344 799.839844 259.773438 C 799.171875 258.769531 798.550781 257.738281 797.984375 256.675781 C 797.414062 255.609375 796.898438 254.523438 796.4375 253.40625 C 795.976562 252.292969 795.570312 251.160156 795.222656 250.007812 C 794.871094 248.851562 794.578125 247.683594 794.34375 246.5 C 794.109375 245.316406 793.933594 244.128906 793.8125 242.925781 C 793.695312 241.726562 793.636719 240.523438 793.636719 239.316406 L 793.636719 110.453125 C 793.636719 109.25 793.578125 108.046875 793.460938 106.847656 C 793.339844 105.644531 793.164062 104.453125 792.929688 103.273438 C 792.695312 102.089844 792.402344 100.921875 792.050781 99.765625 C 791.699219 98.613281 791.296875 97.480469 790.832031 96.363281 C 790.371094 95.25 789.855469 94.160156 789.289062 93.097656 C 788.71875 92.035156 788.101562 91.003906 787.429688 90 C 786.761719 88.996094 786.042969 88.03125 785.277344 87.097656 C 784.515625 86.164062 783.707031 85.273438 782.851562 84.421875 C 782 83.566406 781.109375 82.757812 780.175781 81.992188 C 779.242188 81.230469 778.277344 80.511719 777.273438 79.839844 C 776.269531 79.171875 775.238281 78.550781 774.175781 77.984375 C 773.109375 77.414062 772.023438 76.902344 770.90625 76.4375 C 769.792969 75.976562 768.660156 75.570312 767.503906 75.222656 C 766.351562 74.871094 765.183594 74.578125 764 74.34375 C 762.816406 74.109375 761.628906 73.933594 760.425781 73.8125 C 759.226562 73.695312 758.023438 73.636719 756.816406 73.636719 L 425.453125 73.636719 C 424.25 73.636719 423.046875 73.695312 421.847656 73.8125 C 420.644531 73.933594 419.453125 74.109375 418.273438 74.34375 C 417.089844 74.578125 415.921875 74.871094 414.765625 75.222656 C 413.613281 75.570312 412.480469 75.976562 411.363281 76.4375 C 410.25 76.902344 409.164062 77.414062 408.097656 77.984375 C 407.035156 78.550781 406.003906 79.171875 405 79.839844 C 403.996094 80.511719 403.03125 81.230469 402.097656 81.992188 C 401.164062 82.757812 400.273438 83.566406 399.421875 84.421875 C 398.566406 85.273438 397.757812 86.164062 396.992188 87.097656 C 396.230469 88.03125 395.511719 88.996094 394.839844 90 C 394.171875 91.003906 393.550781 92.035156 392.984375 93.097656 C 392.414062 94.160156 391.902344 95.25 391.4375 96.363281 C 390.976562 97.480469 390.570312 98.613281 390.222656 99.765625 C 389.871094 100.921875 389.578125 102.089844 389.34375 103.273438 C 389.109375 104.453125 388.933594 105.644531 388.8125 106.847656 C 388.695312 108.046875 388.636719 109.25 388.636719 110.453125 L 388.636719 699.546875 C 388.636719 700.75 388.695312 701.953125 388.8125 703.152344 C 388.933594 704.355469 389.109375 705.546875 389.34375 706.726562 C 389.578125 707.910156 389.871094 709.078125 390.222656 710.234375 C 390.570312 711.386719 390.976562 712.519531 391.4375 713.636719 C 391.898438 714.75 392.414062 715.839844 392.984375 716.902344 C 393.550781 717.964844 394.171875 718.996094 394.839844 720 C 395.511719 721.003906 396.230469 721.96875 396.992188 722.902344 C 397.757812 723.835938 398.566406 724.726562 399.421875 725.578125 C 400.273438 726.433594 401.164062 727.242188 402.097656 728.007812 C 403.03125 728.769531 403.996094 729.488281 405 730.160156 C 406.003906 730.828125 407.035156 731.449219 408.097656 732.015625 C 409.160156 732.585938 410.25 733.097656 411.363281 733.5625 C 412.480469 734.023438 413.613281 734.429688 414.765625 734.777344 C 415.921875 735.128906 417.089844 735.421875 418.273438 735.65625 C 419.453125 735.890625 420.644531 736.066406 421.847656 736.1875 C 423.046875 736.304688 424.25 736.363281 425.453125 736.363281 L 756.816406 736.363281 C 758.023438 736.363281 759.226562 736.304688 760.425781 736.1875 C 761.628906 736.066406 762.816406 735.890625 764 735.65625 C 765.183594 735.421875 766.351562 735.128906 767.503906 734.777344 C 768.660156 734.429688 769.792969 734.023438 770.90625 733.5625 C 772.023438 733.097656 773.109375 732.585938 774.175781 732.015625 C 775.238281 731.449219 776.269531 730.828125 777.273438 730.160156 C 778.277344 729.488281 779.242188 728.769531 780.175781 728.007812 C 781.109375 727.242188 782 726.433594 782.851562 725.578125 C 783.707031 724.726562 784.515625 723.835938 785.277344 722.902344 C 786.042969 721.96875 786.761719 721.003906 787.429688 720 C 788.101562 718.996094 788.71875 717.964844 789.289062 716.902344 C 789.855469 715.839844 790.371094 714.75 790.832031 713.636719 C 791.296875 712.519531 791.699219 711.386719 792.050781 710.234375 C 792.402344 709.078125 792.695312 707.910156 792.929688 706.726562 C 793.164062 705.546875 793.339844 704.355469 793.460938 703.152344 C 793.578125 701.953125 793.636719 700.75 793.636719 699.546875 L 793.636719 570.683594 C 793.636719 569.476562 793.695312 568.273438 793.8125 567.074219 C 793.933594 565.871094 794.109375 564.679688 794.34375 563.5 C 794.578125 562.316406 794.871094 561.148438 795.222656 559.992188 C 795.570312 558.839844 795.976562 557.707031 796.4375 556.59375 C 796.898438 555.476562 797.414062 554.390625 797.984375 553.324219 C 798.550781 552.261719 799.171875 551.230469 799.839844 550.226562 C 800.511719 549.222656 801.230469 548.257812 801.992188 547.324219 C 802.757812 546.390625 803.566406 545.5 804.421875 544.648438 C 805.273438 543.792969 806.164062 542.984375 807.097656 542.222656 C 808.03125 541.457031 808.996094 540.738281 810 540.070312 C 811 539.398438 812.035156 538.78125 813.097656 538.210938 C 814.160156 537.640625 815.25 537.128906 816.363281 536.667969 C 817.480469 536.203125 818.613281 535.800781 819.765625 535.449219 C 820.921875 535.097656 822.089844 534.804688 823.273438 534.570312 C 824.453125 534.335938 825.644531 534.160156 826.847656 534.039062 C 828.046875 533.921875 829.25 533.863281 830.453125 533.863281 C 831.660156 533.863281 832.863281 533.921875 834.0625 534.039062 C 835.261719 534.160156 836.453125 534.335938 837.636719 534.570312 C 838.820312 534.804688 839.988281 535.097656 841.140625 535.449219 C 842.296875 535.800781 843.429688 536.203125 844.542969 536.667969 C 845.660156 537.128906 846.746094 537.640625 847.808594 538.210938 C 848.875 538.78125 849.90625 539.398438 850.910156 540.070312 C 851.914062 540.738281 852.878906 541.457031 853.8125 542.222656 C 854.742188 542.984375 855.636719 543.792969 856.488281 544.648438 C 857.339844 545.5 858.148438 546.390625 858.914062 547.324219 C 859.679688 548.257812 860.398438 549.222656 861.066406 550.226562 C 861.738281 551.230469 862.355469 552.261719 862.925781 553.324219 C 863.492188 554.390625 864.007812 555.476562 864.46875 556.59375 C 864.929688 557.707031 865.335938 558.839844 865.6875 559.992188 C 866.039062 561.148438 866.328125 562.316406 866.566406 563.5 C 866.800781 564.679688 866.976562 565.871094 867.09375 567.074219 C 867.214844 568.273438 867.273438 569.476562 867.273438 570.683594 L 867.273438 699.546875 C 867.273438 701.351562 867.226562 703.160156 867.140625 704.964844 C 867.050781 706.769531 866.917969 708.574219 866.742188 710.371094 C 866.5625 712.171875 866.34375 713.964844 866.078125 715.753906 C 865.8125 717.539062 865.503906 719.320312 865.148438 721.09375 C 864.796875 722.867188 864.402344 724.628906 863.960938 726.382812 C 863.523438 728.136719 863.042969 729.878906 862.515625 731.609375 C 861.992188 733.339844 861.425781 735.054688 860.816406 736.757812 C 860.207031 738.457031 859.554688 740.144531 858.863281 741.8125 C 858.171875 743.484375 857.441406 745.136719 856.667969 746.769531 C 855.894531 748.40625 855.082031 750.019531 854.230469 751.613281 C 853.378906 753.207031 852.488281 754.78125 851.558594 756.332031 C 850.628906 757.878906 849.660156 759.40625 848.65625 760.910156 C 847.652344 762.414062 846.613281 763.890625 845.535156 765.34375 C 844.460938 766.792969 843.347656 768.21875 842.199219 769.617188 C 841.054688 771.015625 839.875 772.382812 838.660156 773.722656 C 837.445312 775.0625 836.199219 776.371094 834.921875 777.648438 C 833.644531 778.925781 832.335938 780.171875 830.996094 781.386719 C 829.65625 782.601562 828.285156 783.78125 826.890625 784.929688 C 825.492188 786.074219 824.066406 787.1875 822.617188 788.261719 C 821.164062 789.339844 819.6875 790.378906 818.183594 791.386719 C 816.679688 792.390625 815.152344 793.355469 813.601562 794.285156 C 812.050781 795.214844 810.480469 796.105469 808.886719 796.957031 C 807.292969 797.808594 805.675781 798.621094 804.042969 799.394531 C 802.410156 800.167969 800.757812 800.898438 799.085938 801.59375 C 797.417969 802.285156 795.730469 802.933594 794.027344 803.542969 C 792.328125 804.152344 790.609375 804.71875 788.882812 805.242188 C 787.152344 805.769531 785.410156 806.25 783.65625 806.691406 C 781.902344 807.128906 780.140625 807.523438 778.367188 807.878906 C 776.59375 808.230469 774.8125 808.539062 773.023438 808.804688 C 771.238281 809.070312 769.445312 809.289062 767.644531 809.46875 C 765.84375 809.644531 764.042969 809.777344 762.238281 809.867188 C 760.433594 809.957031 758.625 810 756.816406 810 Z M 756.816406 810 " fill-opacity="1" fill-rule="nonzero"/><path fill="#000000" d="M 1069.773438 441.816406 L 587.824219 441.816406 C 586.617188 441.816406 585.414062 441.757812 584.214844 441.640625 C 583.015625 441.523438 581.824219 441.347656 580.640625 441.109375 C 579.457031 440.875 578.289062 440.582031 577.136719 440.234375 C 575.980469 439.882812 574.847656 439.476562 573.734375 439.015625 C 572.617188 438.554688 571.53125 438.039062 570.46875 437.46875 C 569.402344 436.902344 568.371094 436.28125 567.367188 435.613281 C 566.363281 434.941406 565.398438 434.226562 564.464844 433.460938 C 563.535156 432.695312 562.640625 431.886719 561.789062 431.035156 C 560.9375 430.179688 560.125 429.289062 559.363281 428.355469 C 558.597656 427.425781 557.878906 426.457031 557.210938 425.453125 C 556.539062 424.453125 555.921875 423.417969 555.351562 422.355469 C 554.785156 421.292969 554.269531 420.203125 553.808594 419.089844 C 553.347656 417.976562 552.941406 416.839844 552.589844 415.6875 C 552.238281 414.535156 551.949219 413.367188 551.710938 412.183594 C 551.476562 411 551.300781 409.808594 551.183594 408.609375 C 551.0625 407.410156 551.003906 406.207031 551.003906 405 C 551.003906 403.792969 551.0625 402.589844 551.183594 401.390625 C 551.300781 400.191406 551.476562 399 551.710938 397.816406 C 551.949219 396.632812 552.238281 395.464844 552.589844 394.3125 C 552.941406 393.15625 553.347656 392.023438 553.808594 390.910156 C 554.269531 389.796875 554.785156 388.707031 555.351562 387.644531 C 555.921875 386.582031 556.539062 385.546875 557.210938 384.542969 C 557.878906 383.542969 558.597656 382.574219 559.363281 381.644531 C 560.125 380.710938 560.9375 379.816406 561.789062 378.964844 C 562.640625 378.113281 563.535156 377.304688 564.464844 376.539062 C 565.398438 375.773438 566.363281 375.054688 567.367188 374.386719 C 568.371094 373.71875 569.402344 373.097656 570.464844 372.527344 C 571.53125 371.960938 572.617188 371.445312 573.734375 370.984375 C 574.847656 370.523438 575.980469 370.117188 577.136719 369.765625 C 578.289062 369.417969 579.457031 369.125 580.640625 368.890625 C 581.824219 368.652344 583.015625 368.476562 584.214844 368.359375 C 585.414062 368.242188 586.617188 368.183594 587.824219 368.183594 L 1069.773438 368.183594 C 1070.976562 368.183594 1072.179688 368.242188 1073.382812 368.359375 C 1074.582031 368.476562 1075.773438 368.652344 1076.957031 368.890625 C 1078.136719 369.125 1079.304688 369.417969 1080.460938 369.765625 C 1081.613281 370.117188 1082.75 370.523438 1083.863281 370.984375 C 1084.976562 371.445312 1086.066406 371.960938 1087.128906 372.527344 C 1088.191406 373.097656 1089.226562 373.71875 1090.226562 374.386719 C 1091.230469 375.054688 1092.199219 375.773438 1093.128906 376.539062 C 1094.0625 377.304688 1094.953125 378.113281 1095.808594 378.964844 C 1096.660156 379.816406 1097.46875 380.710938 1098.234375 381.644531 C 1099 382.574219 1099.714844 383.542969 1100.386719 384.542969 C 1101.054688 385.546875 1101.675781 386.582031 1102.242188 387.644531 C 1102.8125 388.707031 1103.328125 389.796875 1103.789062 390.910156 C 1104.25 392.023438 1104.65625 393.15625 1105.003906 394.3125 C 1105.355469 395.464844 1105.648438 396.632812 1105.882812 397.816406 C 1106.117188 399 1106.296875 400.191406 1106.414062 401.390625 C 1106.53125 402.589844 1106.589844 403.792969 1106.589844 405 C 1106.589844 406.207031 1106.53125 407.410156 1106.414062 408.609375 C 1106.296875 409.808594 1106.117188 411 1105.882812 412.183594 C 1105.648438 413.367188 1105.355469 414.535156 1105.003906 415.6875 C 1104.65625 416.839844 1104.25 417.976562 1103.789062 419.089844 C 1103.328125 420.203125 1102.8125 421.292969 1102.242188 422.355469 C 1101.675781 423.417969 1101.054688 424.453125 1100.386719 425.453125 C 1099.714844 426.457031 1099 427.425781 1098.234375 428.355469 C 1097.46875 429.289062 1096.660156 430.179688 1095.808594 431.035156 C 1094.953125 431.886719 1094.0625 432.695312 1093.128906 433.460938 C 1092.199219 434.226562 1091.230469 434.941406 1090.226562 435.613281 C 1089.226562 436.28125 1088.191406 436.902344 1087.128906 437.46875 C 1086.066406 438.039062 1084.976562 438.554688 1083.863281 439.015625 C 1082.75 439.476562 1081.613281 439.882812 1080.460938 440.234375 C 1079.304688 440.582031 1078.136719 440.875 1076.957031 441.109375 C 1075.773438 441.347656 1074.582031 441.523438 1073.382812 441.640625 C 1072.179688 441.757812 1070.976562 441.816406 1069.773438 441.816406 Z M 1069.773438 441.816406 " fill-opacity="1" fill-rule="nonzero"/><path fill="#000000" d="M 977.726562 552.273438 C 975.921875 552.265625 974.128906 552.125 972.34375 551.855469 C 970.558594 551.582031 968.804688 551.183594 967.078125 550.652344 C 965.351562 550.121094 963.675781 549.46875 962.046875 548.691406 C 960.414062 547.917969 958.851562 547.023438 957.351562 546.019531 C 955.855469 545.011719 954.4375 543.902344 953.101562 542.6875 C 951.769531 541.472656 950.527344 540.167969 949.386719 538.769531 C 948.242188 537.371094 947.207031 535.898438 946.28125 534.351562 C 945.355469 532.800781 944.546875 531.191406 943.859375 529.523438 C 943.167969 527.855469 942.605469 526.144531 942.164062 524.394531 C 941.726562 522.644531 941.417969 520.871094 941.242188 519.074219 C 941.0625 517.277344 941.019531 515.476562 941.105469 513.675781 C 941.195312 511.871094 941.414062 510.085938 941.761719 508.3125 C 942.113281 506.542969 942.589844 504.808594 943.195312 503.105469 C 943.800781 501.40625 944.527344 499.757812 945.375 498.164062 C 946.222656 496.574219 947.183594 495.050781 948.253906 493.597656 C 949.324219 492.144531 950.496094 490.777344 951.769531 489.496094 L 1036.085938 405 L 951.585938 320.503906 C 950.734375 319.648438 949.925781 318.757812 949.160156 317.824219 C 948.394531 316.890625 947.675781 315.921875 947.003906 314.917969 C 946.335938 313.917969 945.714844 312.882812 945.144531 311.820312 C 944.578125 310.753906 944.0625 309.664062 943.601562 308.550781 C 943.140625 307.4375 942.734375 306.300781 942.382812 305.148438 C 942.03125 303.992188 941.738281 302.824219 941.503906 301.640625 C 941.269531 300.457031 941.09375 299.265625 940.972656 298.0625 C 940.855469 296.863281 940.796875 295.660156 940.796875 294.453125 C 940.796875 293.246094 940.855469 292.042969 940.972656 290.84375 C 941.09375 289.640625 941.269531 288.449219 941.503906 287.265625 C 941.738281 286.082031 942.03125 284.914062 942.382812 283.757812 C 942.734375 282.605469 943.140625 281.46875 943.601562 280.355469 C 944.0625 279.242188 944.578125 278.152344 945.144531 277.085938 C 945.714844 276.023438 946.335938 274.988281 947.003906 273.988281 C 947.675781 272.984375 948.394531 272.015625 949.160156 271.082031 C 949.925781 270.152344 950.734375 269.257812 951.585938 268.40625 C 952.441406 267.550781 953.332031 266.742188 954.265625 265.976562 C 955.199219 265.210938 956.164062 264.492188 957.167969 263.824219 C 958.171875 263.152344 959.207031 262.535156 960.269531 261.964844 C 961.332031 261.394531 962.421875 260.878906 963.539062 260.417969 C 964.652344 259.957031 965.785156 259.550781 966.941406 259.199219 C 968.097656 258.851562 969.265625 258.558594 970.449219 258.324219 C 971.632812 258.085938 972.824219 257.910156 974.023438 257.792969 C 975.226562 257.675781 976.429688 257.613281 977.636719 257.613281 C 978.84375 257.613281 980.046875 257.675781 981.246094 257.792969 C 982.445312 257.910156 983.640625 258.085938 984.820312 258.324219 C 986.003906 258.558594 987.175781 258.851562 988.328125 259.199219 C 989.484375 259.550781 990.617188 259.957031 991.734375 260.417969 C 992.847656 260.878906 993.9375 261.394531 995 261.964844 C 996.066406 262.535156 997.097656 263.152344 998.101562 263.824219 C 999.105469 264.492188 1000.074219 265.210938 1001.003906 265.976562 C 1001.9375 266.742188 1002.832031 267.550781 1003.683594 268.40625 L 1114.136719 378.859375 C 1114.992188 379.710938 1115.800781 380.605469 1116.566406 381.535156 C 1117.335938 382.46875 1118.050781 383.4375 1118.722656 384.441406 C 1119.394531 385.441406 1120.015625 386.476562 1120.582031 387.539062 C 1121.152344 388.605469 1121.667969 389.695312 1122.128906 390.808594 C 1122.59375 391.921875 1123 393.058594 1123.347656 394.210938 C 1123.699219 395.367188 1123.992188 396.535156 1124.230469 397.71875 C 1124.464844 398.902344 1124.640625 400.097656 1124.757812 401.296875 C 1124.878906 402.496094 1124.9375 403.703125 1124.9375 404.90625 C 1124.9375 406.113281 1124.878906 407.320312 1124.757812 408.519531 C 1124.640625 409.71875 1124.464844 410.914062 1124.230469 412.097656 C 1123.992188 413.28125 1123.699219 414.449219 1123.347656 415.601562 C 1123 416.757812 1122.59375 417.890625 1122.128906 419.007812 C 1121.667969 420.121094 1121.152344 421.210938 1120.582031 422.273438 C 1120.015625 423.339844 1119.394531 424.371094 1118.722656 425.375 C 1118.050781 426.378906 1117.335938 427.347656 1116.566406 428.277344 C 1115.800781 429.210938 1114.992188 430.105469 1114.136719 430.957031 L 1003.683594 541.410156 C 1001.984375 543.125 1000.128906 544.652344 998.128906 546 C 996.125 547.347656 994.011719 548.488281 991.785156 549.417969 C 989.558594 550.351562 987.261719 551.058594 984.894531 551.539062 C 982.53125 552.015625 980.140625 552.261719 977.726562 552.273438 Z M 977.726562 552.273438 " fill-opacity="1" fill-rule="nonzero"/></svg>