<svg xmlns="http://www.w3.org/2000/svg" xmlns:xlink="http://www.w3.org/1999/xlink" width="590" zoomAndPan="magnify" viewBox="0 0 442.5 434.999989" height="580" preserveAspectRatio="xMidYMid meet" version="1.0"><defs><clipPath id="e8b8b8b229"><path d="M 0 29.230469 L 442 29.230469 L 442 391.074219 L 0 391.074219 Z M 0 29.230469 " clip-rule="nonzero"/></clipPath></defs><g clip-path="url(#e8b8b8b229)"><path fill="#000000" d="M 428.214844 42.820312 C 426.050781 40.648438 423.695312 38.707031 421.148438 37 C 418.601562 35.292969 415.910156 33.851562 413.078125 32.675781 C 410.246094 31.496094 407.324219 30.609375 404.316406 30.011719 C 401.308594 29.410156 398.273438 29.109375 395.203125 29.109375 L 46.796875 29.109375 C 45.265625 29.113281 43.742188 29.191406 42.21875 29.34375 C 40.699219 29.496094 39.1875 29.726562 37.691406 30.027344 C 36.191406 30.328125 34.710938 30.699219 33.246094 31.144531 C 31.785156 31.59375 30.347656 32.109375 28.9375 32.695312 C 27.523438 33.28125 26.144531 33.933594 24.796875 34.65625 C 23.449219 35.378906 22.140625 36.164062 20.867188 37.015625 C 19.597656 37.863281 18.371094 38.773438 17.191406 39.742188 C 16.007812 40.710938 14.875 41.738281 13.796875 42.820312 C 12.714844 43.898438 11.6875 45.03125 10.71875 46.210938 C 9.746094 47.390625 8.835938 48.617188 7.988281 49.886719 C 7.136719 51.15625 6.351562 52.464844 5.628906 53.8125 C 4.90625 55.160156 4.253906 56.539062 3.664062 57.949219 C 3.078125 59.359375 2.5625 60.796875 2.117188 62.257812 C 1.667969 63.71875 1.296875 65.199219 0.996094 66.699219 C 0.695312 68.195312 0.464844 69.707031 0.3125 71.226562 C 0.160156 72.746094 0.0820312 74.269531 0.078125 75.796875 L 0.078125 344.496094 C 0.0820312 346.023438 0.160156 347.546875 0.3125 349.066406 C 0.464844 350.589844 0.695312 352.097656 0.996094 353.59375 C 1.296875 355.09375 1.667969 356.574219 2.117188 358.035156 C 2.5625 359.496094 3.078125 360.933594 3.664062 362.34375 C 4.253906 363.753906 4.90625 365.132812 5.628906 366.480469 C 6.351562 367.828125 7.136719 369.136719 7.988281 370.40625 C 8.835938 371.675781 9.746094 372.902344 10.71875 374.082031 C 11.6875 375.265625 12.714844 376.394531 13.796875 377.476562 C 14.875 378.554688 16.007812 379.582031 17.191406 380.550781 C 18.371094 381.519531 19.597656 382.429688 20.867188 383.28125 C 22.140625 384.128906 23.449219 384.914062 24.796875 385.636719 C 26.144531 386.359375 27.523438 387.011719 28.9375 387.597656 C 30.347656 388.183594 31.785156 388.703125 33.246094 389.148438 C 34.710938 389.59375 36.191406 389.964844 37.691406 390.269531 C 39.1875 390.570312 40.699219 390.796875 42.21875 390.949219 C 43.742188 391.101562 45.265625 391.179688 46.796875 391.183594 L 395.203125 391.183594 C 396.734375 391.179688 398.257812 391.101562 399.78125 390.949219 C 401.300781 390.796875 402.8125 390.570312 404.3125 390.269531 C 405.808594 389.964844 407.289062 389.59375 408.753906 389.148438 C 410.214844 388.703125 411.652344 388.183594 413.066406 387.597656 C 414.476562 387.011719 415.855469 386.359375 417.203125 385.636719 C 418.550781 384.914062 419.863281 384.128906 421.132812 383.28125 C 422.402344 382.429688 423.628906 381.519531 424.8125 380.550781 C 425.992188 379.582031 427.125 378.554688 428.207031 377.476562 C 429.285156 376.394531 430.3125 375.265625 431.28125 374.082031 C 432.253906 372.902344 433.164062 371.675781 434.015625 370.40625 C 434.863281 369.136719 435.648438 367.828125 436.371094 366.480469 C 437.09375 365.132812 437.75 363.753906 438.335938 362.34375 C 438.921875 360.933594 439.4375 359.496094 439.886719 358.035156 C 440.332031 356.574219 440.703125 355.09375 441.007812 353.59375 C 441.308594 352.097656 441.535156 350.589844 441.6875 349.066406 C 441.839844 347.546875 441.917969 346.023438 441.921875 344.496094 L 441.921875 75.808594 C 441.921875 72.746094 441.625 69.707031 441.023438 66.703125 C 440.425781 63.695312 439.535156 60.777344 438.359375 57.949219 C 437.183594 55.117188 435.742188 52.429688 434.035156 49.882812 C 432.328125 47.335938 430.386719 44.980469 428.214844 42.820312 Z M 414.316406 344.496094 C 414.3125 345.121094 414.28125 345.742188 414.214844 346.363281 C 414.152344 346.984375 414.058594 347.601562 413.933594 348.214844 C 413.808594 348.828125 413.65625 349.429688 413.472656 350.027344 C 413.289062 350.625 413.074219 351.210938 412.835938 351.789062 C 412.59375 352.363281 412.328125 352.929688 412.03125 353.480469 C 411.734375 354.027344 411.414062 354.5625 411.066406 355.082031 C 410.71875 355.601562 410.34375 356.101562 409.949219 356.585938 C 409.550781 357.066406 409.132812 357.53125 408.691406 357.972656 C 408.246094 358.414062 407.785156 358.832031 407.300781 359.230469 C 406.820312 359.625 406.320312 359.996094 405.800781 360.34375 C 405.28125 360.691406 404.746094 361.015625 404.195312 361.308594 C 403.644531 361.605469 403.078125 361.875 402.503906 362.113281 C 401.925781 362.355469 401.339844 362.566406 400.742188 362.75 C 400.144531 362.933594 399.539062 363.085938 398.925781 363.210938 C 398.3125 363.335938 397.695312 363.429688 397.074219 363.492188 C 396.453125 363.558594 395.828125 363.589844 395.203125 363.59375 L 46.796875 363.59375 C 46.171875 363.589844 45.546875 363.558594 44.925781 363.492188 C 44.304688 363.429688 43.6875 363.335938 43.074219 363.210938 C 42.460938 363.085938 41.855469 362.933594 41.257812 362.75 C 40.660156 362.566406 40.074219 362.355469 39.496094 362.113281 C 38.921875 361.875 38.355469 361.605469 37.804688 361.308594 C 37.253906 361.015625 36.71875 360.691406 36.203125 360.34375 C 35.683594 359.996094 35.179688 359.625 34.699219 359.230469 C 34.214844 358.832031 33.753906 358.414062 33.3125 357.972656 C 32.867188 357.53125 32.449219 357.066406 32.050781 356.585938 C 31.65625 356.101562 31.285156 355.601562 30.933594 355.082031 C 30.585938 354.5625 30.265625 354.027344 29.96875 353.480469 C 29.675781 352.929688 29.40625 352.363281 29.164062 351.789062 C 28.925781 351.210938 28.710938 350.625 28.527344 350.027344 C 28.347656 349.429688 28.191406 348.828125 28.066406 348.214844 C 27.941406 347.601562 27.847656 346.984375 27.785156 346.363281 C 27.722656 345.742188 27.6875 345.121094 27.683594 344.496094 L 27.683594 75.808594 C 27.6875 75.183594 27.722656 74.5625 27.785156 73.941406 C 27.847656 73.320312 27.941406 72.703125 28.066406 72.089844 C 28.191406 71.476562 28.347656 70.875 28.527344 70.277344 C 28.710938 69.679688 28.925781 69.09375 29.164062 68.515625 C 29.40625 67.9375 29.675781 67.375 29.96875 66.824219 C 30.265625 66.273438 30.585938 65.742188 30.933594 65.222656 C 31.285156 64.703125 31.65625 64.203125 32.050781 63.71875 C 32.449219 63.238281 32.867188 62.773438 33.3125 62.332031 C 33.753906 61.890625 34.214844 61.472656 34.699219 61.074219 C 35.179688 60.679688 35.683594 60.304688 36.203125 59.957031 C 36.71875 59.609375 37.253906 59.289062 37.804688 58.992188 C 38.355469 58.699219 38.921875 58.429688 39.496094 58.191406 C 40.074219 57.949219 40.660156 57.738281 41.257812 57.554688 C 41.855469 57.371094 42.460938 57.21875 43.074219 57.09375 C 43.6875 56.96875 44.304688 56.875 44.925781 56.808594 C 45.546875 56.746094 46.171875 56.710938 46.796875 56.710938 L 395.203125 56.710938 C 395.828125 56.710938 396.453125 56.746094 397.074219 56.808594 C 397.695312 56.875 398.3125 56.96875 398.925781 57.09375 C 399.539062 57.21875 400.144531 57.371094 400.742188 57.554688 C 401.339844 57.738281 401.925781 57.949219 402.503906 58.191406 C 403.078125 58.429688 403.644531 58.699219 404.195312 58.992188 C 404.746094 59.289062 405.28125 59.609375 405.800781 59.957031 C 406.320312 60.304688 406.820312 60.679688 407.300781 61.074219 C 407.785156 61.472656 408.246094 61.890625 408.691406 62.332031 C 409.132812 62.773438 409.550781 63.238281 409.949219 63.71875 C 410.34375 64.203125 410.71875 64.703125 411.066406 65.222656 C 411.414062 65.742188 411.734375 66.273438 412.03125 66.824219 C 412.328125 67.375 412.59375 67.9375 412.835938 68.515625 C 413.074219 69.09375 413.289062 69.679688 413.472656 70.277344 C 413.65625 70.875 413.808594 71.476562 413.933594 72.089844 C 414.058594 72.703125 414.152344 73.320312 414.214844 73.941406 C 414.28125 74.5625 414.3125 75.183594 414.316406 75.808594 Z M 271.066406 279.289062 L 170.933594 279.289062 C 170.269531 279.292969 169.609375 279.347656 168.953125 279.449219 C 168.691406 278.800781 168.410156 278.164062 168.113281 277.53125 C 167.816406 276.902344 167.5 276.28125 167.164062 275.667969 C 166.832031 275.054688 166.480469 274.453125 166.109375 273.859375 C 165.742188 273.265625 165.355469 272.6875 164.953125 272.117188 C 164.554688 271.546875 164.136719 270.988281 163.699219 270.441406 C 163.265625 269.894531 162.816406 269.359375 162.351562 268.839844 C 161.886719 268.320312 161.410156 267.8125 160.914062 267.320312 C 160.421875 266.828125 159.914062 266.347656 159.390625 265.886719 C 158.871094 265.421875 158.335938 264.972656 157.789062 264.539062 C 157.242188 264.105469 156.683594 263.691406 156.109375 263.289062 C 155.539062 262.886719 154.957031 262.503906 154.363281 262.136719 C 153.769531 261.769531 153.167969 261.417969 152.554688 261.085938 C 151.941406 260.753906 151.316406 260.4375 150.6875 260.140625 C 150.054688 259.84375 149.414062 259.5625 148.769531 259.304688 C 148.121094 259.042969 147.464844 258.800781 146.804688 258.578125 C 146.144531 258.355469 145.476562 258.152344 144.800781 257.96875 C 144.128906 257.785156 143.449219 257.617188 142.769531 257.472656 C 142.085938 257.328125 141.398438 257.203125 140.710938 257.09375 C 140.019531 256.988281 139.328125 256.902344 138.632812 256.835938 C 137.9375 256.769531 137.242188 256.722656 136.542969 256.699219 C 135.847656 256.671875 135.148438 256.664062 134.449219 256.679688 C 133.753906 256.691406 133.054688 256.726562 132.359375 256.78125 C 131.664062 256.832031 130.96875 256.90625 130.277344 257 C 129.585938 257.09375 128.898438 257.207031 128.214844 257.339844 C 127.527344 257.472656 126.847656 257.625 126.171875 257.796875 C 125.492188 257.96875 124.824219 258.160156 124.15625 258.371094 C 123.492188 258.582031 122.832031 258.8125 122.179688 259.0625 C 121.527344 259.308594 120.882812 259.578125 120.246094 259.863281 C 119.609375 260.148438 118.984375 260.453125 118.363281 260.773438 C 117.742188 261.09375 117.132812 261.433594 116.535156 261.792969 C 115.933594 262.148438 115.34375 262.519531 114.765625 262.910156 C 114.1875 263.300781 113.621094 263.710938 113.066406 264.132812 C 112.511719 264.554688 111.96875 264.992188 111.4375 265.449219 C 110.910156 265.902344 110.394531 266.371094 109.890625 266.855469 C 109.386719 267.339844 108.898438 267.835938 108.425781 268.347656 C 107.949219 268.859375 107.492188 269.386719 107.046875 269.925781 C 106.601562 270.460938 106.175781 271.011719 105.761719 271.574219 C 105.351562 272.140625 104.953125 272.714844 104.574219 273.296875 C 104.195312 273.882812 103.832031 274.480469 103.488281 275.085938 C 103.144531 275.691406 102.816406 276.308594 102.507812 276.933594 C 102.195312 277.558594 101.90625 278.191406 101.632812 278.835938 C 101.359375 279.476562 101.105469 280.125 100.867188 280.78125 C 100.632812 281.4375 100.417969 282.101562 100.21875 282.769531 C 100.019531 283.441406 99.84375 284.113281 99.683594 284.792969 C 99.523438 285.472656 99.386719 286.15625 99.265625 286.84375 C 99.144531 287.53125 99.046875 288.222656 98.964844 288.914062 C 98.886719 289.605469 98.824219 290.300781 98.785156 290.996094 C 98.746094 291.695312 98.726562 292.390625 98.726562 293.089844 C 98.726562 293.785156 98.746094 294.484375 98.785156 295.179688 C 98.824219 295.875 98.886719 296.570312 98.964844 297.265625 C 99.046875 297.957031 99.144531 298.648438 99.265625 299.335938 C 99.386719 300.023438 99.523438 300.707031 99.683594 301.382812 C 99.84375 302.0625 100.019531 302.738281 100.21875 303.40625 C 100.417969 304.074219 100.632812 304.738281 100.867188 305.394531 C 101.105469 306.050781 101.359375 306.703125 101.632812 307.34375 C 101.90625 307.984375 102.195312 308.617188 102.507812 309.242188 C 102.816406 309.867188 103.144531 310.484375 103.488281 311.089844 C 103.832031 311.699219 104.195312 312.292969 104.574219 312.878906 C 104.953125 313.464844 105.351562 314.039062 105.761719 314.601562 C 106.175781 315.164062 106.601562 315.714844 107.046875 316.253906 C 107.492188 316.792969 107.949219 317.316406 108.425781 317.828125 C 108.898438 318.339844 109.386719 318.839844 109.890625 319.324219 C 110.394531 319.804688 110.910156 320.277344 111.4375 320.730469 C 111.96875 321.183594 112.511719 321.621094 113.066406 322.046875 C 113.621094 322.46875 114.1875 322.875 114.765625 323.265625 C 115.34375 323.65625 115.933594 324.03125 116.535156 324.386719 C 117.132812 324.742188 117.742188 325.082031 118.363281 325.402344 C 118.984375 325.726562 119.609375 326.03125 120.246094 326.316406 C 120.882812 326.601562 121.527344 326.867188 122.179688 327.117188 C 122.832031 327.363281 123.492188 327.59375 124.15625 327.804688 C 124.824219 328.015625 125.492188 328.207031 126.171875 328.378906 C 126.847656 328.550781 127.527344 328.703125 128.214844 328.835938 C 128.898438 328.972656 129.585938 329.085938 130.277344 329.175781 C 130.96875 329.269531 131.664062 329.34375 132.359375 329.398438 C 133.054688 329.453125 133.753906 329.484375 134.449219 329.5 C 135.148438 329.511719 135.847656 329.507812 136.542969 329.480469 C 137.242188 329.453125 137.9375 329.40625 138.632812 329.339844 C 139.328125 329.273438 140.019531 329.1875 140.710938 329.082031 C 141.398438 328.976562 142.085938 328.851562 142.769531 328.703125 C 143.453125 328.558594 144.128906 328.394531 144.800781 328.210938 C 145.476562 328.027344 146.144531 327.820312 146.804688 327.597656 C 147.464844 327.375 148.121094 327.132812 148.769531 326.875 C 149.414062 326.613281 150.054688 326.335938 150.6875 326.039062 C 151.316406 325.742188 151.941406 325.425781 152.554688 325.09375 C 153.167969 324.761719 153.769531 324.410156 154.363281 324.042969 C 154.957031 323.675781 155.539062 323.289062 156.109375 322.890625 C 156.683594 322.488281 157.242188 322.070312 157.789062 321.636719 C 158.335938 321.207031 158.871094 320.757812 159.390625 320.292969 C 159.914062 319.828125 160.421875 319.351562 160.914062 318.859375 C 161.410156 318.363281 161.886719 317.859375 162.351562 317.335938 C 162.816406 316.816406 163.265625 316.285156 163.699219 315.738281 C 164.136719 315.191406 164.554688 314.632812 164.953125 314.0625 C 165.355469 313.492188 165.742188 312.910156 166.109375 312.320312 C 166.480469 311.726562 166.832031 311.125 167.164062 310.511719 C 167.5 309.898438 167.816406 309.277344 168.113281 308.644531 C 168.410156 308.015625 168.691406 307.375 168.953125 306.730469 C 169.609375 306.832031 170.269531 306.882812 170.933594 306.890625 L 271.066406 306.890625 C 271.972656 306.890625 272.871094 306.800781 273.761719 306.625 C 274.648438 306.445312 275.511719 306.183594 276.351562 305.839844 C 277.1875 305.492188 277.984375 305.066406 278.738281 304.5625 C 279.488281 304.0625 280.1875 303.488281 280.828125 302.847656 C 281.46875 302.207031 282.042969 301.511719 282.542969 300.757812 C 283.046875 300.003906 283.472656 299.210938 283.820312 298.375 C 284.167969 297.535156 284.429688 296.671875 284.605469 295.785156 C 284.78125 294.898438 284.871094 294 284.871094 293.09375 C 284.871094 292.1875 284.78125 291.292969 284.605469 290.402344 C 284.429688 289.515625 284.167969 288.652344 283.820312 287.816406 C 283.472656 286.976562 283.046875 286.183594 282.542969 285.429688 C 282.042969 284.675781 281.46875 283.980469 280.828125 283.339844 C 280.1875 282.699219 279.488281 282.128906 278.738281 281.625 C 277.984375 281.121094 277.1875 280.695312 276.351562 280.351562 C 275.511719 280.003906 274.648438 279.742188 273.761719 279.566406 C 272.871094 279.386719 271.972656 279.300781 271.066406 279.300781 Z M 141.394531 299.339844 C 141.15625 299.578125 140.902344 299.804688 140.636719 300.011719 C 140.371094 300.222656 140.097656 300.417969 139.808594 300.597656 C 139.523438 300.773438 139.226562 300.9375 138.921875 301.082031 C 138.613281 301.226562 138.300781 301.351562 137.980469 301.460938 C 137.660156 301.570312 137.335938 301.660156 137.003906 301.730469 C 136.675781 301.800781 136.339844 301.855469 136.003906 301.886719 C 135.667969 301.921875 135.328125 301.933594 134.992188 301.929688 C 134.652344 301.925781 134.316406 301.898438 133.980469 301.855469 C 133.644531 301.8125 133.3125 301.75 132.984375 301.664062 C 132.65625 301.582031 132.335938 301.484375 132.019531 301.363281 C 131.703125 301.246094 131.394531 301.109375 131.09375 300.953125 C 130.792969 300.800781 130.5 300.628906 130.21875 300.441406 C 129.9375 300.253906 129.667969 300.050781 129.410156 299.832031 C 129.152344 299.613281 128.90625 299.378906 128.675781 299.132812 C 128.445312 298.886719 128.226562 298.625 128.027344 298.355469 C 127.824219 298.082031 127.640625 297.800781 127.472656 297.507812 C 127.300781 297.214844 127.148438 296.914062 127.015625 296.605469 C 126.878906 296.292969 126.765625 295.976562 126.667969 295.652344 C 126.566406 295.332031 126.488281 295.003906 126.429688 294.667969 C 126.367188 294.335938 126.328125 294.003906 126.304688 293.664062 C 126.28125 293.328125 126.277344 292.988281 126.296875 292.652344 C 126.3125 292.316406 126.347656 291.980469 126.402344 291.644531 C 126.457031 291.3125 126.53125 290.984375 126.625 290.65625 C 126.71875 290.332031 126.828125 290.015625 126.957031 289.703125 C 127.089844 289.390625 127.234375 289.085938 127.398438 288.789062 C 127.5625 288.496094 127.746094 288.210938 127.941406 287.933594 C 128.140625 287.660156 128.351562 287.398438 128.578125 287.144531 C 128.804688 286.894531 129.046875 286.660156 129.300781 286.4375 C 129.554688 286.214844 129.820312 286.003906 130.097656 285.8125 C 130.378906 285.621094 130.664062 285.445312 130.964844 285.285156 C 131.261719 285.125 131.570312 284.984375 131.882812 284.859375 C 132.199219 284.734375 132.519531 284.628906 132.84375 284.542969 C 133.171875 284.457031 133.503906 284.386719 133.835938 284.335938 C 134.171875 284.289062 134.507812 284.257812 134.847656 284.246094 C 135.183594 284.234375 135.523438 284.242188 135.859375 284.273438 C 136.195312 284.300781 136.53125 284.347656 136.863281 284.414062 C 137.195312 284.476562 137.523438 284.5625 137.84375 284.667969 C 138.164062 284.769531 138.480469 284.890625 138.789062 285.03125 C 139.097656 285.171875 139.394531 285.328125 139.6875 285.5 C 139.976562 285.675781 140.253906 285.863281 140.523438 286.070312 C 140.792969 286.277344 141.046875 286.496094 141.289062 286.730469 C 141.535156 286.96875 141.761719 287.214844 141.976562 287.476562 C 142.191406 287.738281 142.390625 288.011719 142.574219 288.296875 C 142.757812 288.578125 142.921875 288.875 143.074219 289.175781 C 143.222656 289.480469 143.355469 289.789062 143.46875 290.109375 C 143.582031 290.425781 143.675781 290.75 143.753906 291.082031 C 143.832031 291.410156 143.886719 291.742188 143.925781 292.078125 C 143.964844 292.414062 143.984375 292.75 143.984375 293.089844 C 143.988281 294.261719 143.765625 295.390625 143.316406 296.472656 C 142.867188 297.554688 142.226562 298.511719 141.394531 299.339844 Z M 307.003906 173.714844 C 305.210938 173.714844 303.429688 173.847656 301.65625 174.109375 C 299.882812 174.375 298.140625 174.765625 296.425781 175.285156 C 294.707031 175.804688 293.042969 176.449219 291.421875 177.214844 C 289.800781 177.980469 288.246094 178.859375 286.753906 179.855469 C 285.265625 180.847656 283.855469 181.949219 282.527344 183.148438 C 281.199219 184.351562 279.964844 185.644531 278.824219 187.03125 C 277.6875 188.414062 276.65625 189.871094 275.734375 191.410156 C 274.8125 192.945312 274.007812 194.539062 273.320312 196.191406 L 170.910156 196.40625 C 170.007812 196.40625 169.113281 196.492188 168.226562 196.667969 C 167.34375 196.84375 166.480469 197.105469 165.648438 197.453125 C 164.8125 197.796875 164.019531 198.21875 163.269531 198.722656 C 162.519531 199.222656 161.824219 199.792969 161.183594 200.429688 C 160.546875 201.070312 159.976562 201.765625 159.472656 202.515625 C 158.972656 203.265625 158.546875 204.058594 158.203125 204.890625 C 157.859375 205.726562 157.597656 206.585938 157.421875 207.46875 C 157.242188 208.355469 157.15625 209.25 157.15625 210.152344 C 157.15625 211.054688 157.242188 211.949219 157.421875 212.832031 C 157.597656 213.71875 157.859375 214.578125 158.203125 215.414062 C 158.546875 216.246094 158.972656 217.039062 159.472656 217.789062 C 159.976562 218.539062 160.546875 219.234375 161.183594 219.871094 C 161.824219 220.511719 162.519531 221.082031 163.269531 221.582031 C 164.019531 222.082031 164.8125 222.507812 165.648438 222.851562 C 166.480469 223.199219 167.34375 223.457031 168.226562 223.632812 C 169.113281 223.8125 170.007812 223.898438 170.910156 223.898438 L 273.15625 223.6875 C 273.5625 224.703125 274.015625 225.703125 274.511719 226.679688 C 275.011719 227.660156 275.550781 228.613281 276.136719 229.539062 C 276.71875 230.46875 277.34375 231.371094 278.007812 232.242188 C 278.675781 233.113281 279.378906 233.953125 280.121094 234.765625 C 280.859375 235.574219 281.636719 236.347656 282.449219 237.085938 C 283.261719 237.824219 284.101562 238.523438 284.976562 239.1875 C 285.851562 239.851562 286.753906 240.472656 287.6875 241.054688 C 288.617188 241.636719 289.570312 242.171875 290.550781 242.667969 C 291.53125 243.164062 292.53125 243.613281 293.550781 244.019531 C 294.570312 244.421875 295.605469 244.78125 296.660156 245.09375 C 297.710938 245.402344 298.777344 245.667969 299.851562 245.882812 C 300.929688 246.097656 302.011719 246.265625 303.105469 246.382812 C 304.195312 246.5 305.289062 246.566406 306.386719 246.585938 C 307.484375 246.605469 308.582031 246.574219 309.675781 246.492188 C 310.769531 246.414062 311.859375 246.285156 312.941406 246.105469 C 314.023438 245.925781 315.097656 245.699219 316.160156 245.425781 C 317.222656 245.148438 318.269531 244.824219 319.304688 244.457031 C 320.335938 244.085938 321.351562 243.671875 322.347656 243.210938 C 323.34375 242.746094 324.316406 242.242188 325.265625 241.691406 C 326.214844 241.144531 327.140625 240.550781 328.035156 239.921875 C 328.933594 239.289062 329.796875 238.617188 330.632812 237.90625 C 331.46875 237.195312 332.273438 236.445312 333.042969 235.664062 C 333.808594 234.878906 334.542969 234.0625 335.234375 233.214844 C 335.929688 232.367188 336.585938 231.488281 337.199219 230.578125 C 337.816406 229.671875 338.390625 228.734375 338.921875 227.777344 C 339.449219 226.816406 339.9375 225.832031 340.378906 224.828125 C 340.820312 223.824219 341.21875 222.804688 341.566406 221.765625 C 341.917969 220.722656 342.21875 219.671875 342.472656 218.605469 C 342.730469 217.535156 342.933594 216.460938 343.09375 215.375 C 343.25 214.289062 343.355469 213.199219 343.414062 212.105469 C 343.476562 211.007812 343.484375 209.914062 343.445312 208.816406 C 343.402344 207.71875 343.3125 206.628906 343.175781 205.539062 C 343.035156 204.453125 342.847656 203.371094 342.613281 202.300781 C 342.375 201.230469 342.089844 200.171875 341.757812 199.125 C 341.425781 198.082031 341.046875 197.050781 340.625 196.039062 C 340.199219 195.03125 339.726562 194.039062 339.214844 193.070312 C 338.699219 192.101562 338.140625 191.15625 337.542969 190.238281 C 336.941406 189.320312 336.300781 188.429688 335.621094 187.570312 C 334.941406 186.707031 334.222656 185.878906 333.46875 185.085938 C 332.714844 184.289062 331.925781 183.527344 331.101562 182.800781 C 330.277344 182.078125 329.421875 181.390625 328.535156 180.742188 C 327.652344 180.097656 326.738281 179.488281 325.796875 178.925781 C 324.855469 178.359375 323.890625 177.835938 322.902344 177.359375 C 321.917969 176.878906 320.910156 176.449219 319.882812 176.0625 C 318.855469 175.671875 317.8125 175.332031 316.753906 175.039062 C 315.699219 174.746094 314.628906 174.5 313.550781 174.304688 C 312.46875 174.109375 311.382812 173.960938 310.289062 173.859375 C 309.195312 173.761719 308.101562 173.714844 307.003906 173.714844 Z M 313.261719 216.402344 C 313.023438 216.640625 312.769531 216.863281 312.503906 217.074219 C 312.238281 217.28125 311.964844 217.476562 311.675781 217.652344 C 311.386719 217.828125 311.089844 217.988281 310.785156 218.132812 C 310.480469 218.277344 310.164062 218.402344 309.84375 218.511719 C 309.523438 218.617188 309.199219 218.707031 308.867188 218.777344 C 308.539062 218.847656 308.203125 218.898438 307.867188 218.929688 C 307.53125 218.960938 307.195312 218.972656 306.855469 218.96875 C 306.519531 218.960938 306.183594 218.933594 305.847656 218.890625 C 305.511719 218.84375 305.179688 218.78125 304.851562 218.699219 C 304.527344 218.613281 304.203125 218.511719 303.886719 218.394531 C 303.570312 218.273438 303.265625 218.136719 302.964844 217.980469 C 302.664062 217.824219 302.375 217.652344 302.09375 217.464844 C 301.8125 217.277344 301.542969 217.070312 301.285156 216.851562 C 301.03125 216.632812 300.785156 216.398438 300.554688 216.152344 C 300.324219 215.90625 300.109375 215.644531 299.910156 215.375 C 299.710938 215.101562 299.523438 214.820312 299.355469 214.527344 C 299.1875 214.234375 299.039062 213.929688 298.90625 213.621094 C 298.769531 213.3125 298.65625 212.992188 298.558594 212.671875 C 298.460938 212.347656 298.382812 212.019531 298.324219 211.6875 C 298.265625 211.355469 298.222656 211.019531 298.203125 210.683594 C 298.183594 210.34375 298.179688 210.007812 298.199219 209.671875 C 298.214844 209.332031 298.253906 208.996094 298.308594 208.664062 C 298.363281 208.332031 298.4375 208.003906 298.53125 207.679688 C 298.625 207.355469 298.738281 207.035156 298.867188 206.722656 C 299 206.414062 299.148438 206.109375 299.3125 205.8125 C 299.476562 205.519531 299.660156 205.234375 299.855469 204.960938 C 300.054688 204.6875 300.265625 204.425781 300.492188 204.175781 C 300.722656 203.925781 300.960938 203.691406 301.21875 203.46875 C 301.472656 203.246094 301.738281 203.039062 302.015625 202.847656 C 302.296875 202.65625 302.585938 202.480469 302.882812 202.324219 C 303.179688 202.164062 303.488281 202.023438 303.800781 201.902344 C 304.117188 201.777344 304.4375 201.671875 304.765625 201.585938 C 305.089844 201.5 305.421875 201.433594 305.757812 201.382812 C 306.089844 201.335938 306.425781 201.304688 306.765625 201.296875 C 307.101562 201.285156 307.441406 201.292969 307.777344 201.324219 C 308.113281 201.351562 308.449219 201.398438 308.777344 201.464844 C 309.109375 201.53125 309.4375 201.617188 309.757812 201.722656 C 310.078125 201.828125 310.394531 201.949219 310.703125 202.089844 C 311.007812 202.230469 311.308594 202.386719 311.597656 202.5625 C 311.886719 202.734375 312.164062 202.925781 312.433594 203.132812 C 312.699219 203.339844 312.957031 203.558594 313.199219 203.792969 C 313.441406 204.03125 313.667969 204.277344 313.882812 204.539062 C 314.09375 204.800781 314.292969 205.074219 314.476562 205.359375 C 314.660156 205.644531 314.824219 205.9375 314.972656 206.242188 C 315.121094 206.542969 315.253906 206.855469 315.363281 207.171875 C 315.476562 207.492188 315.574219 207.816406 315.648438 208.144531 C 315.722656 208.472656 315.78125 208.804688 315.820312 209.140625 C 315.855469 209.476562 315.875 209.8125 315.875 210.152344 C 315.875 211.324219 315.652344 212.453125 315.203125 213.535156 C 314.753906 214.617188 314.113281 215.574219 313.285156 216.402344 Z M 135.140625 163.652344 C 136.949219 163.652344 138.746094 163.519531 140.53125 163.253906 C 142.320312 162.984375 144.078125 162.585938 145.804688 162.058594 C 147.535156 161.527344 149.214844 160.875 150.84375 160.097656 C 152.476562 159.320312 154.039062 158.425781 155.539062 157.414062 C 157.035156 156.402344 158.449219 155.289062 159.78125 154.066406 C 161.113281 152.847656 162.347656 151.535156 163.484375 150.128906 C 164.621094 148.726562 165.648438 147.246094 166.5625 145.6875 C 167.480469 144.132812 168.277344 142.515625 168.953125 140.839844 C 169.609375 140.941406 170.269531 140.996094 170.933594 141 L 271.066406 141 C 271.972656 141 272.871094 140.910156 273.761719 140.734375 C 274.648438 140.558594 275.511719 140.296875 276.351562 139.949219 C 277.1875 139.601562 277.984375 139.175781 278.738281 138.675781 C 279.488281 138.171875 280.1875 137.597656 280.828125 136.957031 C 281.46875 136.316406 282.042969 135.621094 282.542969 134.867188 C 283.046875 134.113281 283.472656 133.320312 283.820312 132.484375 C 284.167969 131.648438 284.429688 130.785156 284.605469 129.894531 C 284.78125 129.007812 284.871094 128.109375 284.871094 127.203125 C 284.871094 126.296875 284.78125 125.402344 284.605469 124.511719 C 284.429688 123.625 284.167969 122.761719 283.820312 121.925781 C 283.472656 121.089844 283.046875 120.292969 282.542969 119.539062 C 282.042969 118.789062 281.46875 118.089844 280.828125 117.449219 C 280.1875 116.808594 279.488281 116.238281 278.738281 115.734375 C 277.984375 115.230469 277.1875 114.804688 276.351562 114.460938 C 275.511719 114.113281 274.648438 113.851562 273.761719 113.675781 C 272.871094 113.5 271.972656 113.410156 271.066406 113.410156 L 170.933594 113.410156 C 170.269531 113.414062 169.609375 113.46875 168.953125 113.570312 C 168.542969 112.550781 168.085938 111.554688 167.585938 110.582031 C 167.085938 109.605469 166.542969 108.652344 165.957031 107.726562 C 165.371094 106.800781 164.742188 105.902344 164.074219 105.03125 C 163.40625 104.160156 162.703125 103.324219 161.960938 102.515625 C 161.214844 101.710938 160.4375 100.9375 159.625 100.203125 C 158.8125 99.464844 157.96875 98.769531 157.09375 98.109375 C 156.214844 97.449219 155.3125 96.828125 154.382812 96.25 C 153.449219 95.671875 152.492188 95.136719 151.511719 94.644531 C 150.53125 94.152344 149.53125 93.703125 148.511719 93.300781 C 147.492188 92.898438 146.453125 92.542969 145.402344 92.234375 C 144.351562 91.925781 143.285156 91.664062 142.210938 91.453125 C 141.132812 91.238281 140.050781 91.078125 138.957031 90.960938 C 137.867188 90.847656 136.773438 90.78125 135.675781 90.765625 C 134.578125 90.75 133.484375 90.78125 132.390625 90.863281 C 131.296875 90.945312 130.207031 91.078125 129.125 91.257812 C 128.042969 91.4375 126.972656 91.667969 125.910156 91.945312 C 124.851562 92.222656 123.804688 92.546875 122.769531 92.917969 C 121.738281 93.289062 120.726562 93.707031 119.730469 94.171875 C 118.738281 94.632812 117.765625 95.140625 116.816406 95.691406 C 115.867188 96.242188 114.945312 96.835938 114.050781 97.46875 C 113.15625 98.101562 112.292969 98.773438 111.457031 99.488281 C 110.621094 100.199219 109.820312 100.945312 109.054688 101.730469 C 108.289062 102.515625 107.558594 103.332031 106.867188 104.183594 C 106.171875 105.03125 105.519531 105.910156 104.90625 106.820312 C 104.292969 107.730469 103.722656 108.664062 103.191406 109.625 C 102.664062 110.585938 102.175781 111.566406 101.738281 112.570312 C 101.296875 113.574219 100.902344 114.597656 100.554688 115.636719 C 100.207031 116.675781 99.90625 117.730469 99.652344 118.796875 C 99.398438 119.863281 99.195312 120.9375 99.039062 122.023438 C 98.882812 123.109375 98.777344 124.199219 98.71875 125.292969 C 98.660156 126.390625 98.652344 127.484375 98.695312 128.578125 C 98.734375 129.675781 98.824219 130.765625 98.964844 131.855469 C 99.105469 132.941406 99.292969 134.019531 99.53125 135.089844 C 99.769531 136.160156 100.054688 137.21875 100.386719 138.261719 C 100.71875 139.308594 101.097656 140.335938 101.523438 141.347656 C 101.949219 142.355469 102.421875 143.347656 102.9375 144.3125 C 103.453125 145.28125 104.007812 146.226562 104.609375 147.140625 C 105.210938 148.058594 105.847656 148.949219 106.53125 149.808594 C 107.210938 150.667969 107.929688 151.496094 108.683594 152.292969 C 109.4375 153.085938 110.226562 153.847656 111.050781 154.570312 C 111.875 155.296875 112.730469 155.980469 113.617188 156.628906 C 114.5 157.273438 115.414062 157.878906 116.355469 158.445312 C 117.296875 159.007812 118.257812 159.53125 119.246094 160.007812 C 120.234375 160.484375 121.242188 160.917969 122.269531 161.304688 C 123.292969 161.691406 124.335938 162.03125 125.394531 162.324219 C 126.449219 162.617188 127.519531 162.863281 128.597656 163.058594 C 129.675781 163.253906 130.761719 163.402344 131.855469 163.5 C 132.949219 163.597656 134.042969 163.648438 135.140625 163.648438 Z M 128.882812 120.964844 C 129.121094 120.726562 129.371094 120.5 129.636719 120.289062 C 129.902344 120.078125 130.179688 119.882812 130.464844 119.703125 C 130.753906 119.523438 131.050781 119.363281 131.355469 119.21875 C 131.664062 119.070312 131.976562 118.945312 132.296875 118.835938 C 132.617188 118.726562 132.941406 118.636719 133.273438 118.5625 C 133.605469 118.492188 133.9375 118.4375 134.277344 118.40625 C 134.613281 118.371094 134.949219 118.359375 135.289062 118.363281 C 135.628906 118.367188 135.964844 118.390625 136.300781 118.4375 C 136.636719 118.480469 136.96875 118.542969 137.296875 118.625 C 137.628906 118.707031 137.949219 118.808594 138.265625 118.925781 C 138.585938 119.042969 138.894531 119.179688 139.195312 119.335938 C 139.496094 119.488281 139.789062 119.660156 140.070312 119.847656 C 140.351562 120.035156 140.621094 120.238281 140.882812 120.457031 C 141.140625 120.675781 141.386719 120.910156 141.617188 121.15625 C 141.847656 121.402344 142.066406 121.664062 142.269531 121.933594 C 142.46875 122.207031 142.65625 122.488281 142.824219 122.78125 C 142.996094 123.074219 143.148438 123.375 143.28125 123.6875 C 143.417969 123.996094 143.535156 124.316406 143.632812 124.636719 C 143.730469 124.960938 143.8125 125.289062 143.871094 125.625 C 143.933594 125.957031 143.976562 126.292969 143.996094 126.628906 C 144.019531 126.96875 144.023438 127.304688 144.007812 127.644531 C 143.988281 127.980469 143.953125 128.320312 143.898438 128.652344 C 143.84375 128.988281 143.769531 129.316406 143.679688 129.640625 C 143.585938 129.96875 143.472656 130.285156 143.34375 130.601562 C 143.214844 130.914062 143.066406 131.21875 142.902344 131.511719 C 142.738281 131.808594 142.558594 132.09375 142.363281 132.371094 C 142.164062 132.644531 141.953125 132.910156 141.726562 133.160156 C 141.496094 133.410156 141.257812 133.648438 141 133.871094 C 140.746094 134.09375 140.480469 134.300781 140.203125 134.496094 C 139.925781 134.6875 139.636719 134.863281 139.335938 135.023438 C 139.039062 135.183594 138.730469 135.324219 138.417969 135.449219 C 138.101562 135.574219 137.78125 135.679688 137.453125 135.769531 C 137.125 135.855469 136.792969 135.925781 136.460938 135.976562 C 136.125 136.023438 135.789062 136.054688 135.449219 136.066406 C 135.109375 136.078125 134.773438 136.070312 134.433594 136.042969 C 134.097656 136.015625 133.761719 135.96875 133.429688 135.902344 C 133.097656 135.835938 132.769531 135.75 132.449219 135.648438 C 132.125 135.542969 131.808594 135.421875 131.5 135.28125 C 131.191406 135.144531 130.894531 134.988281 130.601562 134.8125 C 130.3125 134.636719 130.03125 134.449219 129.761719 134.242188 C 129.496094 134.035156 129.238281 133.816406 128.996094 133.582031 C 128.75 133.34375 128.523438 133.097656 128.308594 132.835938 C 128.09375 132.574219 127.894531 132.300781 127.710938 132.015625 C 127.527344 131.730469 127.359375 131.4375 127.210938 131.132812 C 127.058594 130.828125 126.925781 130.519531 126.8125 130.199219 C 126.699219 129.878906 126.605469 129.554688 126.527344 129.226562 C 126.449219 128.898438 126.390625 128.5625 126.355469 128.226562 C 126.316406 127.890625 126.296875 127.554688 126.296875 127.214844 C 126.292969 126.042969 126.515625 124.914062 126.964844 123.832031 C 127.414062 122.75 128.050781 121.792969 128.882812 120.964844 Z M 128.882812 120.964844 " fill-opacity="1" fill-rule="evenodd"/></g></svg>