<svg xmlns="http://www.w3.org/2000/svg" xmlns:xlink="http://www.w3.org/1999/xlink" width="590" zoomAndPan="magnify" viewBox="0 0 442.5 434.999989" height="580" preserveAspectRatio="xMidYMid meet" version="1.0"><defs><clipPath id="f0b0d659d5"><path d="M 66 0.246094 L 374 0.246094 L 374 434.753906 L 66 434.753906 Z M 66 0.246094 " clip-rule="nonzero"/></clipPath><clipPath id="490466fd2c"><path d="M 112 170 L 324 170 L 324 434.753906 L 112 434.753906 Z M 112 170 " clip-rule="nonzero"/></clipPath><clipPath id="37a8e4f63d"><path d="M 165 288 L 272 288 L 272 434.753906 L 165 434.753906 Z M 165 288 " clip-rule="nonzero"/></clipPath></defs><g clip-path="url(#f0b0d659d5)"><path fill="#fe3d2d" d="M 223.949219 0.285156 L 223.628906 0.492188 C 222.921875 0.828125 222.511719 2.304688 222.402344 4.917969 C 224.96875 17.65625 226.007812 28.476562 225.523438 37.375 C 225.269531 44.113281 223.292969 52.730469 219.59375 63.230469 C 217.964844 67.636719 213.746094 74.765625 206.949219 84.613281 L 167.488281 137.550781 C 162.722656 146.558594 159.46875 158.347656 157.722656 172.917969 C 144.660156 151.164062 140.773438 126.890625 146.054688 100.105469 C 144.847656 98.667969 139.921875 107.496094 131.28125 126.582031 C 126.445312 138.214844 122.554688 152.175781 119.613281 168.460938 C 118.867188 178.625 119.25 199.457031 120.761719 230.953125 C 120.296875 238.367188 119.335938 243.242188 117.875 245.574219 C 114.675781 250.179688 111.515625 252.210938 108.386719 251.675781 C 102.34375 249.761719 97.660156 246.179688 94.328125 240.933594 C 88.769531 234.898438 86.929688 222.191406 88.808594 202.820312 L 74.78125 239.925781 C 71.605469 249.796875 69.359375 259.585938 68.042969 269.289062 C 65.4375 286.890625 66.378906 305.363281 70.867188 324.707031 C 73.980469 338.191406 79.824219 352.617188 88.402344 367.988281 C 93.941406 376.949219 100.597656 385.800781 108.378906 394.542969 C 127.722656 412.5625 146.460938 423.945312 164.59375 428.691406 C 172.464844 431.140625 180.738281 432.960938 189.410156 434.160156 C 220.609375 434.53125 239.566406 433.480469 246.28125 431.007812 C 273.230469 426.375 296.957031 417.105469 317.464844 403.199219 C 326.6875 397.035156 334.019531 390.691406 339.460938 384.164062 C 348.925781 373.902344 356.710938 361.289062 362.816406 346.332031 C 372.917969 318.484375 375.515625 289.527344 370.605469 259.46875 C 369.007812 249.882812 363.269531 234.996094 353.398438 214.816406 C 346.96875 203.816406 330.582031 180.832031 304.230469 145.863281 C 298.734375 136.773438 295.503906 127.792969 294.539062 118.921875 C 286.761719 141.285156 283.011719 154.980469 283.292969 160.015625 L 264.832031 147.46875 C 261.300781 144.171875 258.066406 139.902344 255.136719 134.667969 C 252.089844 129.246094 250.265625 121.226562 249.664062 110.617188 C 253.863281 66.765625 254.878906 43.089844 252.710938 39.585938 C 251.34375 31.5 247.03125 22.15625 239.777344 11.554688 C 235.316406 6.148438 230.039062 2.390625 223.949219 0.285156 " fill-opacity="1" fill-rule="nonzero"/></g><g clip-path="url(#490466fd2c)"><path fill="#fec107" d="M 201.078125 170.980469 L 200.6875 171.007812 C 199.660156 171.152344 198.761719 171.875 197.996094 173.179688 C 196.15625 180.589844 193.230469 189.386719 189.214844 199.566406 C 181.335938 215.503906 172.875 233.726562 163.832031 254.242188 C 159.941406 262.746094 156.835938 271.730469 154.519531 281.195312 C 150.753906 296.75 151.238281 315.203125 155.972656 336.550781 C 155.824219 336.917969 155.542969 337.101562 155.128906 337.101562 C 154.460938 337.101562 153.457031 336.621094 152.109375 335.664062 C 132.902344 320.046875 120.472656 309.605469 114.8125 304.339844 C 114.628906 304.101562 114.425781 303.980469 114.203125 303.980469 C 113.867188 303.980469 113.496094 304.257812 113.082031 304.816406 C 112.128906 308.253906 111.921875 313.449219 112.453125 320.394531 L 115.785156 346.050781 L 121.492188 369.5625 L 129.570312 390.929688 L 140.019531 410.152344 L 150.058594 423.53125 L 150.074219 423.53125 C 154.957031 425.714844 159.796875 427.4375 164.59375 428.691406 C 172.464844 431.140625 180.738281 432.960938 189.410156 434.160156 C 193.480469 434.210938 197.34375 434.234375 200.996094 434.234375 C 225.347656 434.234375 240.441406 433.160156 246.28125 431.007812 C 273.230469 426.375 296.957031 417.105469 317.464844 403.199219 C 319.324219 401.957031 321.105469 400.707031 322.8125 399.453125 L 322.828125 399.453125 C 325.011719 366.109375 322.222656 330.855469 314.460938 293.699219 C 309.226562 275.011719 304.367188 265.667969 299.882812 265.667969 C 299.394531 265.667969 298.910156 265.78125 298.433594 266 C 296.914062 266.753906 295.535156 268.15625 294.296875 270.207031 C 284.433594 288.847656 277.652344 300.644531 273.949219 305.605469 C 269.34375 312.296875 265.742188 315.644531 263.144531 315.644531 C 262.605469 315.644531 262.113281 315.503906 261.660156 315.214844 C 256.28125 274.597656 250.882812 247.28125 245.464844 233.269531 C 238.085938 217.144531 231.734375 205.4375 226.410156 198.148438 C 216.113281 183.6875 207.667969 174.628906 201.078125 170.980469 Z M 201.078125 170.980469 " fill-opacity="0.996" fill-rule="nonzero"/></g><g clip-path="url(#37a8e4f63d)"><path fill="#feeb3a" d="M 215.273438 288.90625 L 214.933594 288.96875 C 214.066406 289.171875 213.128906 290.402344 212.117188 292.660156 L 204.644531 314.65625 C 202.378906 322.023438 200.542969 330.230469 199.136719 339.273438 C 198.210938 346.324219 197.84375 352.824219 198.035156 358.78125 L 200.617188 389.402344 C 200.191406 389.734375 199.742188 389.898438 199.273438 389.898438 C 198.699219 389.898438 198.09375 389.652344 197.453125 389.160156 L 173.179688 369.332031 C 170.226562 367.160156 168.25 366.074219 167.25 366.074219 C 167.238281 366.074219 167.226562 366.074219 167.210938 366.074219 C 164.515625 366.738281 164.941406 376.304688 168.492188 394.777344 L 172 405.605469 L 176.875 415.828125 L 183.113281 425.445312 L 190.480469 434.171875 L 190.5 434.175781 C 194.171875 434.214844 197.671875 434.234375 200.996094 434.234375 C 225.347656 434.234375 240.441406 433.160156 246.28125 431.007812 C 253.71875 429.730469 260.914062 428.097656 267.859375 426.113281 L 267.878906 426.113281 C 269.480469 415.8125 270.484375 406.675781 270.894531 398.699219 C 271.097656 394.6875 271.152344 390.964844 271.054688 387.539062 C 270.546875 379.488281 270.0625 375.011719 269.597656 374.105469 C 268.445312 369.027344 267.183594 366.488281 265.816406 366.488281 C 265.425781 366.488281 265.027344 366.695312 264.621094 367.105469 L 251.792969 388.53125 C 250.777344 389.933594 249.875 390.636719 249.085938 390.636719 C 248.734375 390.636719 248.402344 390.496094 248.09375 390.214844 C 247.664062 377.507812 246.894531 366.351562 245.78125 356.746094 C 243.601562 341.003906 241.675781 331.417969 240.007812 327.996094 C 236.519531 318.960938 232.949219 311.371094 229.304688 305.21875 C 227.484375 302.144531 225.640625 299.425781 223.78125 297.070312 C 221.917969 294.71875 220.039062 292.722656 218.136719 291.085938 Z M 215.273438 288.90625 " fill-opacity="0.996" fill-rule="nonzero"/></g></svg>