<svg xmlns="http://www.w3.org/2000/svg" xmlns:xlink="http://www.w3.org/1999/xlink" width="500" zoomAndPan="magnify" viewBox="0 0 375 374.999991" height="500" preserveAspectRatio="xMidYMid meet" version="1.0"><path fill="#ff700d" d="M 375 187.5 C 375 190.570312 374.925781 193.636719 374.773438 196.699219 C 374.625 199.765625 374.398438 202.824219 374.097656 205.878906 C 373.796875 208.933594 373.421875 211.976562 372.96875 215.011719 C 372.519531 218.046875 371.996094 221.070312 371.398438 224.078125 C 370.796875 227.089844 370.125 230.082031 369.378906 233.058594 C 368.636719 236.035156 367.816406 238.992188 366.925781 241.929688 C 366.035156 244.863281 365.074219 247.777344 364.039062 250.667969 C 363.003906 253.554688 361.902344 256.417969 360.726562 259.253906 C 359.554688 262.089844 358.308594 264.890625 356.996094 267.667969 C 355.6875 270.441406 354.308594 273.179688 352.859375 275.886719 C 351.414062 278.59375 349.902344 281.261719 348.324219 283.894531 C 346.746094 286.527344 345.105469 289.117188 343.402344 291.667969 C 341.695312 294.222656 339.929688 296.730469 338.101562 299.195312 C 336.273438 301.660156 334.386719 304.078125 332.441406 306.449219 C 330.492188 308.820312 328.488281 311.144531 326.429688 313.417969 C 324.367188 315.691406 322.253906 317.914062 320.082031 320.082031 C 317.914062 322.253906 315.691406 324.367188 313.417969 326.429688 C 311.144531 328.488281 308.820312 330.492188 306.449219 332.441406 C 304.078125 334.386719 301.660156 336.273438 299.195312 338.101562 C 296.730469 339.929688 294.222656 341.695312 291.667969 343.402344 C 289.117188 345.105469 286.527344 346.746094 283.894531 348.324219 C 281.261719 349.902344 278.59375 351.414062 275.886719 352.859375 C 273.179688 354.308594 270.441406 355.6875 267.667969 356.996094 C 264.894531 358.308594 262.089844 359.554688 259.253906 360.726562 C 256.417969 361.902344 253.554688 363.003906 250.667969 364.039062 C 247.777344 365.074219 244.863281 366.035156 241.929688 366.925781 C 238.992188 367.816406 236.035156 368.636719 233.058594 369.378906 C 230.082031 370.125 227.089844 370.796875 224.078125 371.398438 C 221.070312 371.996094 218.046875 372.519531 215.011719 372.96875 C 211.976562 373.421875 208.933594 373.796875 205.878906 374.097656 C 202.824219 374.398438 199.765625 374.625 196.699219 374.773438 C 193.636719 374.925781 190.570312 375 187.5 375 C 184.429688 375 181.363281 374.925781 178.300781 374.773438 C 175.234375 374.625 172.175781 374.398438 169.121094 374.097656 C 166.066406 373.796875 163.023438 373.421875 159.988281 372.96875 C 156.953125 372.519531 153.929688 371.996094 150.921875 371.398438 C 147.910156 370.796875 144.917969 370.125 141.941406 369.378906 C 138.964844 368.636719 136.007812 367.816406 133.070312 366.925781 C 130.136719 366.035156 127.222656 365.074219 124.332031 364.039062 C 121.445312 363.003906 118.582031 361.902344 115.746094 360.726562 C 112.910156 359.554688 110.105469 358.308594 107.332031 356.996094 C 104.558594 355.6875 101.820312 354.308594 99.113281 352.859375 C 96.40625 351.414062 93.738281 349.902344 91.105469 348.324219 C 88.472656 346.746094 85.882812 345.105469 83.332031 343.402344 C 80.777344 341.695312 78.269531 339.929688 75.804688 338.101562 C 73.339844 336.273438 70.921875 334.386719 68.550781 332.441406 C 66.179688 330.492188 63.855469 328.488281 61.582031 326.429688 C 59.308594 324.367188 57.085938 322.253906 54.917969 320.082031 C 52.746094 317.914062 50.632812 315.691406 48.570312 313.417969 C 46.511719 311.144531 44.507812 308.820312 42.558594 306.449219 C 40.613281 304.078125 38.726562 301.660156 36.898438 299.195312 C 35.070312 296.730469 33.304688 294.222656 31.597656 291.667969 C 29.894531 289.117188 28.253906 286.527344 26.675781 283.894531 C 25.097656 281.261719 23.585938 278.59375 22.140625 275.886719 C 20.691406 273.179688 19.3125 270.441406 18.003906 267.667969 C 16.691406 264.890625 15.445312 262.089844 14.273438 259.253906 C 13.097656 256.417969 11.996094 253.554688 10.960938 250.667969 C 9.925781 247.777344 8.964844 244.863281 8.074219 241.929688 C 7.183594 238.992188 6.363281 236.035156 5.621094 233.058594 C 4.875 230.082031 4.203125 227.089844 3.601562 224.078125 C 3.003906 221.070312 2.480469 218.046875 2.03125 215.011719 C 1.578125 211.976562 1.203125 208.933594 0.902344 205.878906 C 0.601562 202.824219 0.375 199.765625 0.226562 196.699219 C 0.0742188 193.636719 0 190.570312 0 187.5 C 0 184.429688 0.0742188 181.363281 0.226562 178.300781 C 0.375 175.234375 0.601562 172.175781 0.902344 169.121094 C 1.203125 166.066406 1.578125 163.023438 2.03125 159.988281 C 2.480469 156.953125 3.003906 153.929688 3.601562 150.921875 C 4.203125 147.910156 4.875 144.917969 5.621094 141.941406 C 6.363281 138.964844 7.183594 136.007812 8.074219 133.070312 C 8.964844 130.136719 9.925781 127.222656 10.960938 124.332031 C 11.996094 121.445312 13.097656 118.582031 14.273438 115.746094 C 15.445312 112.910156 16.691406 110.105469 18.003906 107.332031 C 19.3125 104.558594 20.691406 101.820312 22.140625 99.113281 C 23.585938 96.40625 25.097656 93.738281 26.675781 91.105469 C 28.253906 88.472656 29.894531 85.882812 31.597656 83.332031 C 33.304688 80.777344 35.070312 78.269531 36.898438 75.804688 C 38.726562 73.339844 40.613281 70.921875 42.558594 68.550781 C 44.507812 66.179688 46.511719 63.855469 48.570312 61.582031 C 50.632812 59.308594 52.746094 57.085938 54.917969 54.917969 C 57.085938 52.746094 59.308594 50.632812 61.582031 48.570312 C 63.855469 46.511719 66.179688 44.507812 68.550781 42.558594 C 70.921875 40.613281 73.339844 38.726562 75.804688 36.898438 C 78.269531 35.070312 80.777344 33.304688 83.332031 31.597656 C 85.882812 29.894531 88.472656 28.253906 91.105469 26.675781 C 93.738281 25.097656 96.40625 23.585938 99.113281 22.140625 C 101.820312 20.691406 104.558594 19.3125 107.332031 18.003906 C 110.105469 16.691406 112.910156 15.445312 115.746094 14.273438 C 118.582031 13.097656 121.445312 11.996094 124.332031 10.960938 C 127.222656 9.925781 130.136719 8.964844 133.070312 8.074219 C 136.007812 7.183594 138.964844 6.363281 141.941406 5.617188 C 144.917969 4.875 147.910156 4.203125 150.921875 3.601562 C 153.929688 3.003906 156.953125 2.480469 159.988281 2.03125 C 163.023438 1.578125 166.066406 1.203125 169.121094 0.902344 C 172.175781 0.601562 175.234375 0.375 178.300781 0.226562 C 181.363281 0.0742188 184.429688 0 187.5 0 C 190.570312 0 193.636719 0.0742188 196.699219 0.226562 C 199.765625 0.375 202.824219 0.601562 205.878906 0.902344 C 208.933594 1.203125 211.976562 1.578125 215.011719 2.03125 C 218.046875 2.480469 221.070312 3.003906 224.078125 3.601562 C 227.089844 4.203125 230.082031 4.875 233.058594 5.617188 C 236.035156 6.363281 238.992188 7.183594 241.929688 8.074219 C 244.863281 8.964844 247.777344 9.925781 250.667969 10.960938 C 253.554688 11.996094 256.417969 13.097656 259.253906 14.273438 C 262.089844 15.445312 264.894531 16.691406 267.667969 18.003906 C 270.441406 19.3125 273.179688 20.691406 275.886719 22.140625 C 278.59375 23.585938 281.261719 25.097656 283.894531 26.675781 C 286.527344 28.253906 289.117188 29.894531 291.667969 31.597656 C 294.222656 33.304688 296.730469 35.070312 299.195312 36.898438 C 301.660156 38.726562 304.078125 40.613281 306.449219 42.558594 C 308.820312 44.507812 311.144531 46.511719 313.417969 48.570312 C 315.691406 50.632812 317.914062 52.746094 320.082031 54.917969 C 322.253906 57.085938 324.367188 59.308594 326.429688 61.582031 C 328.488281 63.855469 330.492188 66.179688 332.441406 68.550781 C 334.386719 70.921875 336.273438 73.339844 338.101562 75.804688 C 339.929688 78.269531 341.695312 80.777344 343.402344 83.332031 C 345.105469 85.882812 346.746094 88.472656 348.324219 91.105469 C 349.902344 93.738281 351.414062 96.40625 352.859375 99.113281 C 354.308594 101.820312 355.6875 104.558594 356.996094 107.332031 C 358.308594 110.105469 359.554688 112.910156 360.726562 115.746094 C 361.902344 118.582031 363.003906 121.445312 364.039062 124.332031 C 365.074219 127.222656 366.035156 130.136719 366.925781 133.070312 C 367.816406 136.007812 368.636719 138.964844 369.378906 141.941406 C 370.125 144.917969 370.796875 147.910156 371.398438 150.921875 C 371.996094 153.929688 372.519531 156.953125 372.96875 159.988281 C 373.421875 163.023438 373.796875 166.066406 374.097656 169.121094 C 374.398438 172.175781 374.625 175.234375 374.773438 178.300781 C 374.925781 181.363281 375 184.429688 375 187.5 Z M 375 187.5 " fill-opacity="1" fill-rule="nonzero"/><path fill="#ffffff" d="M 175.542969 170.480469 L 175.402344 110.980469 C 175.402344 93.820312 189.46875 79.753906 206.628906 79.753906 L 267.675781 79.753906 C 284.835938 79.753906 298.902344 93.820312 298.902344 110.980469 L 298.902344 170.480469 Z M 279.632812 155.851562 C 280.617188 155.851562 281.460938 155.007812 281.460938 154.023438 C 281.460938 153.039062 280.617188 152.335938 279.632812 152.335938 L 260.363281 152.335938 C 259.378906 152.335938 258.675781 153.039062 258.675781 154.023438 C 258.675781 155.007812 259.378906 155.851562 260.363281 155.851562 Z M 246.859375 155.851562 C 247.84375 155.851562 248.546875 155.007812 248.546875 154.023438 C 248.546875 153.039062 247.84375 152.335938 246.859375 152.335938 L 227.449219 152.335938 C 226.460938 152.335938 225.757812 153.039062 225.757812 154.023438 C 225.757812 155.007812 226.460938 155.851562 227.449219 155.851562 Z M 213.945312 155.851562 C 214.929688 155.851562 215.632812 155.007812 215.632812 154.023438 C 215.632812 153.039062 214.929688 152.335938 213.945312 152.335938 L 194.671875 152.335938 C 193.6875 152.335938 192.84375 153.039062 192.84375 154.023438 C 192.84375 155.007812 193.6875 155.851562 194.671875 155.851562 Z M 279.632812 142.769531 C 280.617188 142.769531 281.460938 141.925781 281.460938 140.941406 C 281.460938 139.957031 280.617188 139.113281 279.632812 139.113281 L 246.15625 139.113281 C 245.171875 139.113281 244.46875 139.957031 244.46875 140.941406 C 244.46875 141.925781 245.171875 142.769531 246.15625 142.769531 Z M 228.152344 142.769531 C 229.136719 142.769531 229.839844 141.925781 229.839844 140.941406 C 229.839844 139.957031 229.136719 139.113281 228.152344 139.113281 L 194.671875 139.113281 C 193.6875 139.113281 192.84375 139.957031 192.84375 140.941406 C 192.84375 141.925781 193.6875 142.769531 194.671875 142.769531 Z M 279.773438 129.546875 C 280.757812 129.546875 281.601562 128.703125 281.601562 127.71875 C 281.601562 126.734375 280.757812 126.03125 279.773438 126.03125 L 194.53125 126.03125 C 193.546875 126.03125 192.703125 126.734375 192.703125 127.71875 C 192.703125 128.703125 193.546875 129.546875 194.53125 129.546875 Z M 234.621094 116.746094 C 235.464844 116.746094 236.167969 116.183594 236.449219 115.339844 L 241.371094 96.914062 C 241.652344 95.929688 241.089844 94.945312 240.105469 94.664062 C 239.121094 94.382812 238.136719 94.945312 237.855469 95.929688 L 232.933594 114.496094 C 232.652344 115.480469 233.214844 116.464844 234.199219 116.605469 C 234.339844 116.746094 234.480469 116.746094 234.621094 116.746094 Z M 226.886719 116.324219 C 227.449219 116.324219 227.871094 116.183594 228.152344 115.902344 C 228.855469 115.199219 228.855469 114.074219 228.152344 113.371094 L 220.273438 105.355469 L 228.152344 97.476562 C 228.855469 96.773438 228.855469 95.648438 228.152344 94.945312 C 227.449219 94.242188 226.320312 94.242188 225.617188 94.945312 L 216.476562 104.089844 C 215.773438 104.792969 215.773438 105.917969 216.476562 106.621094 L 225.617188 115.902344 C 226.039062 116.183594 226.460938 116.324219 226.886719 116.324219 Z M 247.421875 116.324219 C 247.84375 116.324219 248.265625 116.183594 248.6875 115.902344 L 257.832031 106.621094 C 258.535156 105.917969 258.535156 104.792969 257.832031 104.089844 L 248.6875 94.945312 C 247.984375 94.242188 246.859375 94.242188 246.15625 94.945312 C 245.453125 95.648438 245.453125 96.773438 246.15625 97.476562 L 254.03125 105.355469 L 246.15625 113.371094 C 245.453125 114.074219 245.453125 115.199219 246.15625 115.902344 C 246.4375 116.183594 246.859375 116.324219 247.421875 116.324219 Z M 247.421875 116.324219 " fill-opacity="1" fill-rule="evenodd"/><path fill="#ffffff" d="M 288.210938 198.332031 L 224.492188 198.332031 L 224.492188 193.96875 C 224.492188 185.953125 217.882812 179.339844 209.722656 179.339844 L 166.683594 179.339844 L 166.683594 178.917969 C 166.683594 176.105469 169.074219 173.714844 172.027344 173.714844 L 302.417969 173.714844 C 305.234375 173.714844 307.625 176.105469 307.625 178.917969 C 307.625 189.609375 298.902344 198.332031 288.210938 198.332031 Z M 245.734375 187.78125 C 246.71875 187.78125 247.5625 187.078125 247.5625 186.09375 C 247.5625 184.96875 246.859375 184.265625 245.734375 184.265625 L 228.574219 184.265625 C 227.589844 184.265625 226.746094 184.96875 226.746094 186.09375 C 226.746094 187.078125 227.589844 187.78125 228.574219 187.78125 Z M 245.734375 187.78125 " fill-opacity="1" fill-rule="evenodd"/><path fill="#ffffff" d="M 67.515625 238.980469 L 67.515625 214.929688 L 221.257812 214.929688 L 221.257812 283.851562 C 221.257812 290.183594 216.054688 295.246094 209.722656 295.246094 L 78.910156 295.246094 C 72.582031 295.246094 67.515625 290.183594 67.515625 283.851562 Z M 203.535156 258.535156 C 204.519531 258.535156 205.222656 257.6875 205.222656 256.703125 C 205.222656 255.71875 204.519531 254.875 203.535156 254.875 L 155.570312 254.875 C 154.585938 254.875 153.742188 255.71875 153.742188 256.703125 C 153.742188 257.6875 154.585938 258.535156 155.570312 258.535156 Z M 133.347656 258.535156 C 134.332031 258.535156 135.035156 257.6875 135.035156 256.703125 C 135.035156 255.71875 134.332031 254.875 133.347656 254.875 L 85.378906 254.875 C 84.394531 254.875 83.550781 255.71875 83.550781 256.703125 C 83.550781 257.6875 84.394531 258.535156 85.378906 258.535156 Z M 203.535156 244.46875 C 204.519531 244.46875 205.222656 243.625 205.222656 242.640625 C 205.222656 241.652344 204.519531 240.808594 203.535156 240.808594 L 154.023438 240.808594 C 153.039062 240.808594 152.195312 241.652344 152.195312 242.640625 C 152.195312 243.625 153.039062 244.46875 154.023438 244.46875 Z M 139.394531 244.46875 C 140.378906 244.46875 141.222656 243.625 141.222656 242.640625 C 141.222656 241.652344 140.378906 240.808594 139.394531 240.808594 L 119.703125 240.808594 C 118.71875 240.808594 117.875 241.652344 117.875 242.640625 C 117.875 243.625 118.71875 244.46875 119.703125 244.46875 Z M 105.074219 244.46875 C 106.058594 244.46875 106.902344 243.625 106.902344 242.640625 C 106.902344 241.652344 106.058594 240.808594 105.074219 240.808594 L 85.378906 240.808594 C 84.394531 240.808594 83.550781 241.652344 83.550781 242.640625 C 83.550781 243.625 84.394531 244.46875 85.378906 244.46875 Z M 203.394531 272.457031 C 204.378906 272.457031 205.082031 271.753906 205.082031 270.769531 C 205.082031 269.785156 204.378906 268.941406 203.394531 268.941406 L 85.238281 268.941406 C 84.253906 268.941406 83.410156 269.785156 83.410156 270.769531 C 83.410156 271.753906 84.253906 272.457031 85.238281 272.457031 Z M 203.394531 230.402344 C 204.378906 230.402344 205.082031 229.558594 205.082031 228.574219 C 205.082031 227.589844 204.378906 226.886719 203.394531 226.886719 L 85.238281 226.886719 C 84.253906 226.886719 83.410156 227.589844 83.410156 228.574219 C 83.410156 229.558594 84.253906 230.402344 85.238281 230.402344 Z M 203.113281 201.285156 C 204.097656 201.285156 204.941406 200.441406 204.941406 199.457031 C 204.941406 198.472656 204.097656 197.628906 203.113281 197.628906 L 179.199219 197.628906 C 178.214844 197.628906 177.371094 198.472656 177.371094 199.457031 C 177.371094 200.441406 178.214844 201.285156 179.199219 201.285156 Z M 137.566406 201.285156 C 138.550781 201.285156 139.394531 200.441406 139.394531 199.457031 C 139.394531 198.472656 138.550781 197.628906 137.566406 197.628906 L 127.71875 197.628906 C 126.734375 197.628906 125.890625 198.472656 125.890625 199.457031 C 125.890625 200.441406 126.734375 201.285156 127.71875 201.285156 Z M 116.605469 201.285156 C 117.59375 201.285156 118.296875 200.441406 118.296875 199.457031 C 118.296875 198.472656 117.59375 197.628906 116.605469 197.628906 L 106.621094 197.628906 C 105.636719 197.628906 104.792969 198.472656 104.792969 199.457031 C 104.792969 200.441406 105.636719 201.285156 106.621094 201.285156 Z M 95.507812 201.285156 C 96.492188 201.285156 97.335938 200.441406 97.335938 199.457031 C 97.335938 198.472656 96.492188 197.628906 95.507812 197.628906 L 85.519531 197.628906 C 84.535156 197.628906 83.832031 198.472656 83.832031 199.457031 C 83.832031 200.441406 84.535156 201.285156 85.519531 201.285156 Z M 67.515625 211.414062 L 67.515625 193.96875 C 67.515625 187.78125 72.582031 182.578125 78.910156 182.578125 L 209.722656 182.578125 C 216.054688 182.578125 221.257812 187.78125 221.257812 193.96875 L 221.257812 211.414062 Z M 67.515625 211.414062 " fill-opacity="1" fill-rule="evenodd"/></svg>