<svg xmlns="http://www.w3.org/2000/svg" xmlns:xlink="http://www.w3.org/1999/xlink" width="590" zoomAndPan="magnify" viewBox="0 0 442.5 434.999989" height="580" preserveAspectRatio="xMidYMid meet" version="1.0"><defs><clipPath id="a4944e88da"><path d="M 10 37 L 432 37 L 432 405.523438 L 10 405.523438 Z M 10 37 " clip-rule="nonzero"/></clipPath></defs><g clip-path="url(#a4944e88da)"><path fill="#000000" d="M 220.839844 405.441406 C 218.007812 405.421875 216.171875 403.824219 215.75 403.441406 L 52.265625 239.964844 C 13.351562 204.753906 -0.03125 151.085938 18.105469 106.53125 C 39.238281 54.605469 92.59375 41.058594 96.1875 40.21875 C 142.03125 29.519531 191.023438 49.449219 220.890625 90.109375 C 250.753906 49.449219 299.757812 29.519531 345.589844 40.21875 C 347.894531 40.753906 402.292969 53.992188 423.671875 106.53125 C 441.945312 151.4375 428.21875 205.039062 389.515625 239.964844 L 226.027344 403.441406 C 225.617188 403.816406 223.734375 405.460938 220.839844 405.441406 Z M 99.089844 52.652344 C 96.0625 53.359375 48.675781 65.28125 29.933594 111.34375 C 13.660156 151.332031 26.117188 199.253906 60.933594 230.585938 L 61.175781 230.816406 L 220.890625 390.519531 L 380.71875 230.699219 L 380.84375 230.585938 C 415.660156 199.253906 428.117188 151.332031 411.84375 111.34375 C 392.925781 64.855469 344.730469 53.128906 342.6875 52.652344 C 299.25 42.515625 252.472656 63.492188 226.285156 104.84375 L 220.890625 113.363281 L 215.496094 104.84375 C 189.308594 63.242188 142.144531 42.578125 99.089844 52.652344 Z M 99.089844 52.652344 " fill-opacity="1" fill-rule="nonzero"/></g></svg>