<svg xmlns="http://www.w3.org/2000/svg" xmlns:xlink="http://www.w3.org/1999/xlink" width="470" zoomAndPan="magnify" viewBox="0 0 352.5 374.999991" height="500" preserveAspectRatio="xMidYMid meet" version="1.0"><defs><clipPath id="087d4f3c34"><path d="M 136 9.421875 L 352 9.421875 L 352 225 L 136 225 Z M 136 9.421875 " clip-rule="nonzero"/></clipPath><clipPath id="f812c8f980"><path d="M 136 9.421875 L 317 9.421875 L 317 182 L 136 182 Z M 136 9.421875 " clip-rule="nonzero"/></clipPath><clipPath id="a855b3db0b"><path d="M 0 251 L 163 251 L 163 365.917969 L 0 365.917969 Z M 0 251 " clip-rule="nonzero"/></clipPath><clipPath id="06c1b5a1fb"><path d="M 75 251 L 163 251 L 163 365.917969 L 75 365.917969 Z M 75 251 " clip-rule="nonzero"/></clipPath></defs><g clip-path="url(#087d4f3c34)"><path fill="#aeb8c6" d="M 136.789062 130.285156 L 136.789062 103.859375 L 155.019531 103.859375 C 156.039062 96.886719 157.855469 90.179688 160.367188 83.824219 L 144.597656 74.707031 L 157.796875 51.820312 L 173.59375 60.949219 C 177.898438 55.519531 182.820312 50.601562 188.242188 46.285156 L 179.125 30.472656 L 201.988281 17.261719 L 211.097656 33.054688 C 217.445312 30.539062 224.148438 28.714844 231.113281 27.691406 L 231.113281 9.453125 L 257.511719 9.453125 L 257.511719 27.691406 C 264.476562 28.714844 271.179688 30.53125 277.527344 33.046875 L 286.632812 17.261719 L 309.492188 30.472656 L 300.375 46.277344 C 305.800781 50.582031 310.710938 55.511719 315.023438 60.941406 L 330.8125 51.8125 L 344.011719 74.695312 L 328.238281 83.808594 C 330.753906 90.160156 332.570312 96.878906 333.589844 103.84375 L 351.820312 103.84375 L 351.820312 130.265625 L 333.589844 130.265625 C 332.570312 137.238281 330.753906 143.949219 328.238281 150.304688 L 344.011719 159.414062 L 330.8125 182.296875 L 315.023438 173.171875 C 310.722656 178.601562 305.800781 183.519531 300.375 187.835938 L 309.492188 203.636719 L 286.632812 216.847656 L 277.527344 201.0625 C 271.179688 203.578125 264.46875 205.394531 257.511719 206.417969 L 257.511719 224.664062 L 231.113281 224.664062 L 231.113281 206.417969 C 224.148438 205.394531 217.445312 203.578125 211.097656 201.0625 L 201.996094 216.847656 L 179.132812 203.636719 L 188.25 187.835938 C 182.828125 183.527344 177.914062 178.601562 173.601562 173.171875 L 157.8125 182.296875 L 144.613281 159.414062 L 160.386719 150.304688 C 157.871094 143.949219 156.058594 137.230469 155.035156 130.265625 L 136.789062 130.265625 Z M 244.304688 65.554688 C 215.878906 65.554688 192.828125 88.617188 192.828125 117.078125 C 192.828125 145.542969 215.871094 168.605469 244.304688 168.605469 C 272.738281 168.605469 295.78125 145.542969 295.78125 117.078125 C 295.78125 88.617188 272.730469 65.554688 244.304688 65.554688 Z M 244.304688 65.554688 " fill-opacity="1" fill-rule="evenodd"/></g><g clip-path="url(#f812c8f980)"><path fill="#c1ccdc" d="M 136.789062 130.285156 L 136.789062 103.859375 L 155.019531 103.859375 C 156.039062 96.886719 157.855469 90.179688 160.367188 83.824219 L 144.597656 74.707031 L 157.796875 51.820312 L 173.59375 60.949219 C 177.898438 55.519531 182.820312 50.601562 188.242188 46.285156 L 179.125 30.472656 L 201.988281 17.261719 L 211.097656 33.054688 C 217.445312 30.539062 224.148438 28.714844 231.113281 27.691406 L 231.113281 9.453125 L 257.511719 9.453125 L 257.511719 27.691406 C 264.476562 28.714844 271.179688 30.53125 277.527344 33.046875 L 286.632812 17.261719 L 309.492188 30.472656 L 300.375 46.277344 C 305.800781 50.582031 310.710938 55.511719 315.023438 60.941406 L 316.507812 60.082031 C 313.984375 81.183594 306.707031 100.832031 295.765625 117.898438 C 295.773438 117.625 295.773438 117.34375 295.773438 117.070312 C 295.773438 88.617188 272.730469 65.546875 244.296875 65.546875 C 215.863281 65.546875 192.820312 88.609375 192.820312 117.070312 C 192.820312 143.570312 212.8125 165.398438 238.515625 168.269531 C 221.03125 176.535156 201.53125 181.242188 180.945312 181.421875 C 178.324219 178.839844 175.859375 176.089844 173.566406 173.203125 L 161.417969 180.226562 C 159.636719 179.988281 157.863281 179.714844 156.105469 179.417969 L 144.589844 159.4375 L 160.359375 150.328125 C 157.847656 143.972656 156.03125 137.257812 155.011719 130.292969 L 136.789062 130.292969 Z M 136.789062 130.285156 " fill-opacity="1" fill-rule="evenodd"/></g><path fill="#ffd1d1" d="M 213.652344 79.160156 C 211.46875 79.351562 209.539062 77.726562 209.347656 75.539062 C 209.160156 73.351562 210.78125 71.421875 212.96875 71.230469 C 213.007812 71.230469 226.84375 69.761719 229.589844 88.074219 C 229.902344 90.242188 228.402344 92.265625 226.234375 92.578125 C 224.066406 92.894531 222.046875 91.390625 221.730469 89.21875 C 220.117188 78.441406 213.667969 79.160156 213.652344 79.160156 Z M 213.652344 79.160156 " fill-opacity="1" fill-rule="nonzero"/><path fill="#ffd1d1" d="M 198.136719 128.253906 C 196.074219 127.496094 195.019531 125.214844 195.777344 123.152344 C 196.535156 121.089844 198.8125 120.035156 200.875 120.792969 C 200.890625 120.800781 206.925781 123.152344 211.285156 113.144531 C 212.160156 111.136719 214.492188 110.214844 216.503906 111.089844 C 218.507812 111.964844 219.429688 114.300781 218.558594 116.3125 C 211.171875 133.269531 198.175781 128.269531 198.136719 128.253906 Z M 198.136719 128.253906 " fill-opacity="1" fill-rule="nonzero"/><path fill="#ffd1d1" d="M 201.261719 95.855469 C 199.09375 96.152344 197.089844 94.640625 196.792969 92.464844 C 196.496094 90.292969 198.003906 88.289062 200.179688 87.992188 C 200.214844 87.984375 211.699219 86.300781 215.761719 98.816406 C 216.4375 100.90625 215.300781 103.140625 213.214844 103.820312 C 211.128906 104.496094 208.894531 103.355469 208.21875 101.269531 C 206.207031 95.121094 201.269531 95.855469 201.261719 95.855469 Z M 201.261719 95.855469 " fill-opacity="1" fill-rule="nonzero"/><path fill="#ffd1d1" d="M 199.933594 152.746094 C 198.003906 153.785156 195.597656 153.058594 194.558594 151.128906 C 193.519531 149.199219 194.246094 146.789062 196.175781 145.75 C 196.214844 145.730469 209.234375 138.484375 217.289062 151.394531 C 218.441406 153.257812 217.875 155.707031 216.019531 156.863281 C 214.15625 158.019531 211.707031 157.449219 210.550781 155.59375 C 206.488281 149.097656 199.949219 152.738281 199.933594 152.746094 Z M 199.933594 152.746094 " fill-opacity="1" fill-rule="nonzero"/><path fill="#ffd1d1" d="M 231.886719 173.871094 C 230.808594 175.777344 228.394531 176.445312 226.488281 175.363281 C 224.585938 174.285156 223.917969 171.867188 224.996094 169.960938 C 225.011719 169.933594 230.066406 161.089844 225.78125 159.695312 C 223.695312 159.027344 222.546875 156.789062 223.214844 154.703125 C 223.882812 152.613281 226.117188 151.46875 228.203125 152.136719 C 241.832031 156.566406 231.921875 173.820312 231.886719 173.871094 Z M 231.886719 173.871094 " fill-opacity="1" fill-rule="nonzero"/><path fill="#ffd1d1" d="M 234.601562 96.25 C 236.761719 95.90625 238.789062 97.382812 239.136719 99.542969 C 239.480469 101.707031 238.007812 103.734375 235.847656 104.082031 C 235.828125 104.082031 231.304688 104.742188 231.90625 110.941406 C 232.109375 113.117188 230.511719 115.058594 228.335938 115.265625 C 226.160156 115.472656 224.222656 113.871094 224.015625 111.691406 C 222.679688 98.007812 234.566406 96.25 234.601562 96.25 Z M 234.601562 96.25 " fill-opacity="1" fill-rule="nonzero"/><path fill="#ffd1d1" d="M 226.957031 143.296875 C 224.796875 143.644531 222.769531 142.167969 222.425781 140.003906 C 222.078125 137.84375 223.554688 135.8125 225.714844 135.464844 C 225.730469 135.464844 230.257812 134.804688 229.65625 128.609375 C 229.449219 126.429688 231.046875 124.492188 233.222656 124.285156 C 235.402344 124.078125 237.339844 125.679688 237.542969 127.855469 C 238.878906 141.53125 226.992188 143.289062 226.957031 143.296875 Z M 226.957031 143.296875 " fill-opacity="1" fill-rule="nonzero"/><path fill="#ffd1d1" d="M 213.59375 141.5 C 211.433594 141.835938 209.40625 140.351562 209.078125 138.1875 C 208.738281 136.027344 210.222656 133.996094 212.382812 133.667969 C 212.382812 133.667969 212.390625 133.667969 212.316406 132.933594 L 220.207031 132.191406 C 221.007812 140.402344 213.609375 141.5 213.59375 141.5 Z M 213.59375 141.5 L 212.382812 133.667969 Z M 212.316406 132.933594 L 220.207031 132.191406 C 220 130.011719 218.070312 128.410156 215.886719 128.617188 C 213.710938 128.816406 212.109375 130.753906 212.316406 132.933594 Z M 212.316406 132.933594 " fill-opacity="1" fill-rule="nonzero"/><path fill="#ffd1d1" d="M 201.96875 113.382812 C 199.808594 113.722656 197.78125 112.234375 197.453125 110.074219 C 197.113281 107.910156 198.597656 105.890625 200.757812 105.550781 C 200.757812 105.550781 200.765625 105.550781 200.691406 104.816406 L 208.582031 104.074219 C 209.382812 112.285156 201.988281 113.375 201.96875 113.382812 Z M 201.96875 113.382812 L 200.757812 105.550781 Z M 200.691406 104.816406 L 208.582031 104.074219 C 208.375 101.894531 206.445312 100.296875 204.261719 100.5 C 202.085938 100.699219 200.484375 102.628906 200.691406 104.816406 Z M 200.691406 104.816406 " fill-opacity="1" fill-rule="nonzero"/><path fill="#ffd1d1" d="M 231.269531 79.203125 C 229.109375 79.539062 227.082031 78.054688 226.753906 75.894531 C 226.414062 73.730469 227.898438 71.703125 230.058594 71.371094 C 230.058594 71.371094 230.066406 71.371094 229.992188 70.636719 L 237.882812 69.894531 C 238.683594 78.105469 231.296875 79.203125 231.269531 79.203125 Z M 231.269531 79.203125 L 230.058594 71.371094 Z M 229.992188 70.636719 L 237.882812 69.894531 C 237.675781 67.714844 235.746094 66.113281 233.5625 66.320312 C 231.386719 66.519531 229.785156 68.457031 229.992188 70.636719 Z M 229.992188 70.636719 " fill-opacity="1" fill-rule="nonzero"/><path fill="#ffd1d1" d="M 240.332031 171.503906 L 240.332031 63.664062 C 239.300781 61.585938 235.589844 55.632812 229.71875 62.894531 C 228.773438 64.078125 227.28125 64.570312 225.886719 64.308594 C 224.75 64.152344 215.828125 63.308594 217.253906 74.714844 C 217.519531 76.890625 215.96875 78.878906 213.792969 79.144531 L 213.683594 79.152344 C 212.53125 79.300781 201.179688 81.042969 204.476562 90.632812 C 205.183594 92.710938 204.082031 94.972656 202.011719 95.683594 C 201.375 95.898438 200.734375 95.945312 200.113281 95.847656 C 199.917969 95.824219 198.128906 95.796875 198.632812 101.515625 C 198.761719 103.042969 198.011719 104.4375 196.808594 105.214844 C 195.539062 106.164062 186.691406 113.425781 201.335938 120.992188 C 203.28125 122 204.046875 124.390625 203.042969 126.339844 C 202.738281 126.933594 202.308594 127.410156 201.796875 127.765625 C 201.765625 127.792969 190.734375 135.382812 200.980469 146.574219 C 202.457031 148.191406 202.339844 150.691406 200.734375 152.167969 C 200.289062 152.574219 199.777344 152.863281 199.242188 153.027344 L 199.242188 153.035156 C 198.984375 153.117188 199.539062 153.636719 199.066406 154.882812 C 198.640625 156.015625 198.324219 157.316406 198.359375 158.582031 C 198.382812 159.636719 198.664062 160.691406 199.363281 161.59375 C 200.511719 163.0625 202.8125 164.308594 206.898438 164.960938 C 208.855469 165.265625 210.253906 166.957031 210.253906 168.878906 L 210.273438 168.878906 C 210.273438 169.144531 210.90625 170.546875 212.152344 172.289062 C 212.925781 173.367188 213.898438 174.390625 215.019531 174.945312 C 215.9375 175.398438 217.058594 175.546875 218.375 175.09375 C 220.304688 174.441406 222.628906 172.707031 225.417969 169.367188 C 226.820312 167.683594 229.308594 167.453125 230.988281 168.855469 C 231.386719 169.183594 231.707031 169.582031 231.9375 170 C 231.9375 170.042969 236.5625 178.648438 240.332031 171.503906 Z M 248.277344 62.839844 L 248.277344 172.402344 L 248.269531 172.402344 C 248.269531 172.949219 248.15625 173.5 247.914062 174.035156 C 240.578125 190.226562 232.25 183.617188 227.921875 178.210938 C 225.433594 180.488281 223.074219 181.882812 220.867188 182.636719 C 217.28125 183.847656 214.136719 183.402344 211.484375 182.082031 C 209.027344 180.859375 207.097656 178.914062 205.664062 176.898438 C 204.589844 175.40625 203.777344 173.757812 203.214844 172.328125 C 198.277344 171.148438 195.078125 169.027344 193.097656 166.492188 C 191.226562 164.09375 190.476562 161.410156 190.410156 158.792969 C 190.355469 156.375 190.882812 154.050781 191.613281 152.109375 C 191.984375 151.128906 192.457031 150.203125 192.976562 149.378906 C 184.863281 138.660156 189.019531 130.050781 192.957031 125.316406 C 176.882812 114.578125 186.273438 103.851562 190.566406 100.0625 C 190.460938 93.089844 193.148438 90.078125 195.859375 88.808594 C 194.351562 77.75 203.644531 73.542969 209.085938 72.039062 C 208.871094 57.484375 219.96875 56.179688 224.90625 56.320312 C 238.515625 41.234375 246.679688 58.398438 247.824219 61.046875 C 248.121094 61.566406 248.277344 62.1875 248.277344 62.839844 Z M 248.277344 62.839844 " fill-opacity="1" fill-rule="nonzero"/><path fill="#ffd1d1" d="M 275.640625 71.230469 C 277.824219 71.421875 279.449219 73.34375 279.261719 75.539062 C 279.070312 77.726562 277.148438 79.351562 274.957031 79.160156 C 274.941406 79.160156 268.492188 78.453125 266.878906 89.230469 C 266.5625 91.398438 264.542969 92.902344 262.375 92.585938 C 260.207031 92.273438 258.707031 90.253906 259.019531 88.082031 C 261.765625 69.769531 275.609375 71.230469 275.640625 71.230469 Z M 275.640625 71.230469 " fill-opacity="1" fill-rule="nonzero"/><path fill="#ffd1d1" d="M 287.734375 120.792969 C 289.796875 120.035156 292.070312 121.097656 292.832031 123.152344 C 293.589844 125.214844 292.527344 127.496094 290.472656 128.253906 C 290.433594 128.269531 277.4375 133.269531 270.066406 116.3125 C 269.195312 114.308594 270.109375 111.964844 272.121094 111.089844 C 274.125 110.214844 276.464844 111.128906 277.339844 113.144531 C 281.683594 123.152344 287.71875 120.800781 287.734375 120.792969 Z M 287.734375 120.792969 " fill-opacity="1" fill-rule="nonzero"/><path fill="#ffd1d1" d="M 288.4375 87.992188 C 290.605469 88.289062 292.121094 90.292969 291.824219 92.464844 C 291.527344 94.632812 289.523438 96.152344 287.355469 95.855469 C 287.339844 95.855469 282.402344 95.121094 280.414062 101.269531 C 279.738281 103.355469 277.496094 104.496094 275.417969 103.820312 C 273.332031 103.140625 272.195312 100.898438 272.871094 98.816406 C 276.917969 86.300781 288.402344 87.984375 288.4375 87.992188 Z M 288.4375 87.992188 " fill-opacity="1" fill-rule="nonzero"/><path fill="#ffd1d1" d="M 292.433594 145.757812 C 294.363281 146.796875 295.089844 149.207031 294.050781 151.136719 C 293.011719 153.066406 290.605469 153.792969 288.675781 152.753906 C 288.660156 152.746094 282.113281 149.105469 278.058594 155.601562 C 276.902344 157.464844 274.453125 158.035156 272.589844 156.871094 C 270.726562 155.714844 270.160156 153.265625 271.320312 151.402344 C 279.382812 138.496094 292.402344 145.730469 292.433594 145.757812 Z M 292.433594 145.757812 " fill-opacity="1" fill-rule="nonzero"/><path fill="#ffd1d1" d="M 263.613281 169.960938 C 264.691406 171.867188 264.023438 174.285156 262.121094 175.363281 C 260.214844 176.445312 257.800781 175.777344 256.71875 173.871094 C 256.695312 173.820312 246.777344 156.566406 260.40625 152.136719 C 262.492188 151.46875 264.71875 152.613281 265.394531 154.703125 C 266.070312 156.789062 264.914062 159.019531 262.828125 159.695312 C 258.542969 161.089844 263.597656 169.933594 263.613281 169.960938 Z M 263.613281 169.960938 " fill-opacity="1" fill-rule="nonzero"/><path fill="#ffd1d1" d="M 252.761719 104.082031 C 250.601562 103.734375 249.128906 101.707031 249.472656 99.542969 C 249.820312 97.382812 251.847656 95.90625 254.007812 96.25 C 254.042969 96.261719 265.929688 98.007812 264.59375 111.691406 C 264.386719 113.871094 262.457031 115.472656 260.273438 115.265625 C 258.097656 115.058594 256.496094 113.128906 256.703125 110.941406 C 257.3125 104.742188 252.78125 104.082031 252.761719 104.082031 Z M 252.761719 104.082031 " fill-opacity="1" fill-rule="nonzero"/><path fill="#ffd1d1" d="M 262.894531 135.464844 C 265.054688 135.8125 266.53125 137.84375 266.183594 140.003906 C 265.839844 142.167969 263.8125 143.644531 261.652344 143.296875 C 261.617188 143.289062 249.730469 141.539062 251.066406 127.855469 C 251.269531 125.679688 253.199219 124.078125 255.386719 124.285156 C 257.5625 124.492188 259.160156 126.421875 258.953125 128.609375 C 258.34375 134.796875 262.878906 135.457031 262.894531 135.464844 Z M 262.894531 135.464844 " fill-opacity="1" fill-rule="nonzero"/><path fill="#ffd1d1" d="M 276.226562 133.667969 C 278.386719 134.003906 279.871094 136.027344 279.53125 138.1875 C 279.195312 140.351562 277.175781 141.835938 275.015625 141.5 C 274.988281 141.5 267.601562 140.402344 268.402344 132.179688 C 268.609375 130.003906 270.539062 128.402344 272.722656 128.609375 C 274.898438 128.816406 276.5 130.746094 276.292969 132.933594 C 276.21875 133.667969 276.226562 133.667969 276.226562 133.667969 Z M 276.226562 133.667969 " fill-opacity="1" fill-rule="nonzero"/><path fill="#ffd1d1" d="M 287.851562 105.550781 C 290.011719 105.890625 291.496094 107.910156 291.15625 110.074219 C 290.820312 112.234375 288.800781 113.722656 286.640625 113.382812 C 286.613281 113.382812 279.226562 112.285156 280.027344 104.066406 C 280.234375 101.886719 282.164062 100.285156 284.347656 100.492188 C 286.523438 100.699219 288.125 102.628906 287.917969 104.816406 C 287.84375 105.550781 287.851562 105.550781 287.851562 105.550781 Z M 287.851562 105.550781 " fill-opacity="1" fill-rule="nonzero"/><path fill="#ffd1d1" d="M 258.550781 71.371094 C 260.710938 71.710938 262.195312 73.730469 261.855469 75.894531 C 261.519531 78.054688 259.5 79.539062 257.339844 79.203125 C 257.3125 79.203125 249.925781 78.105469 250.726562 69.886719 C 250.933594 67.707031 252.863281 66.105469 255.046875 66.3125 C 257.222656 66.519531 258.824219 68.449219 258.617188 70.636719 C 258.542969 71.371094 258.550781 71.371094 258.550781 71.371094 Z M 258.550781 71.371094 " fill-opacity="1" fill-rule="nonzero"/><path fill="#ffd1d1" d="M 247.980469 64.316406 C 247.164062 66.355469 244.855469 67.335938 242.828125 66.519531 C 240.792969 65.703125 239.8125 63.390625 240.628906 61.359375 C 240.652344 61.296875 248.996094 40.019531 263.6875 56.300781 C 268.625 56.164062 279.722656 57.472656 279.507812 72.023438 C 284.949219 73.523438 294.242188 77.742188 292.730469 88.792969 C 295.4375 90.0625 298.125 93.074219 298.015625 100.046875 C 302.3125 103.835938 311.703125 114.5625 295.625 125.300781 C 299.566406 130.035156 303.722656 138.644531 295.609375 149.363281 C 296.128906 150.1875 296.597656 151.113281 296.96875 152.09375 C 297.703125 154.035156 298.238281 156.359375 298.171875 158.777344 C 298.105469 161.402344 297.363281 164.085938 295.484375 166.476562 C 293.507812 169.019531 290.308594 171.132812 285.371094 172.3125 C 284.808594 173.738281 283.992188 175.390625 282.921875 176.882812 C 281.488281 178.890625 279.558594 180.84375 277.101562 182.066406 C 274.445312 183.386719 271.304688 183.832031 267.71875 182.617188 C 265.515625 181.875 263.152344 180.472656 260.660156 178.195312 C 256.332031 183.601562 248.007812 190.210938 240.667969 174.019531 C 239.769531 172.023438 240.660156 169.671875 242.65625 168.761719 C 244.652344 167.863281 247 168.753906 247.90625 170.753906 C 251.734375 179.195312 256.664062 170.027344 256.671875 170 C 256.902344 169.570312 257.222656 169.183594 257.621094 168.855469 C 259.300781 167.453125 261.800781 167.683594 263.191406 169.367188 C 265.972656 172.707031 268.296875 174.441406 270.234375 175.09375 C 271.558594 175.539062 272.671875 175.398438 273.589844 174.945312 C 274.710938 174.382812 275.683594 173.367188 276.457031 172.289062 C 277.703125 170.546875 278.335938 169.136719 278.335938 168.878906 L 278.355469 168.878906 C 278.355469 166.957031 279.746094 165.265625 281.710938 164.960938 C 285.796875 164.316406 288.097656 163.070312 289.246094 161.59375 C 289.945312 160.691406 290.226562 159.636719 290.25 158.582031 C 290.285156 157.316406 289.96875 156.015625 289.542969 154.882812 C 289.070312 153.636719 289.625 153.109375 289.367188 153.035156 L 289.367188 153.027344 C 288.832031 152.863281 288.320312 152.574219 287.875 152.167969 C 286.261719 150.691406 286.152344 148.191406 287.628906 146.574219 C 297.867188 135.390625 286.84375 127.792969 286.8125 127.765625 C 286.300781 127.410156 285.871094 126.925781 285.566406 126.339844 C 284.5625 124.390625 285.328125 122 287.273438 120.992188 C 301.90625 113.417969 293.070312 106.164062 291.800781 105.214844 C 290.597656 104.445312 289.847656 103.042969 289.976562 101.515625 C 290.472656 95.796875 288.691406 95.832031 288.496094 95.847656 C 287.875 95.945312 287.226562 95.898438 286.597656 95.683594 C 284.519531 94.972656 283.414062 92.710938 284.132812 90.632812 C 287.429688 81.050781 276.078125 79.308594 274.925781 79.152344 L 274.816406 79.144531 C 272.640625 78.878906 271.089844 76.890625 271.355469 74.714844 C 272.78125 63.308594 263.859375 64.152344 262.722656 64.308594 C 261.328125 64.570312 259.84375 64.078125 258.890625 62.894531 C 251.921875 54.273438 248 64.28125 247.980469 64.316406 Z M 247.980469 64.316406 " fill-opacity="1" fill-rule="nonzero"/><path fill="#5e56a9" d="M 29.308594 140.976562 C 29.308594 143.171875 27.527344 144.957031 25.335938 144.957031 C 23.140625 144.957031 21.363281 143.171875 21.363281 140.976562 L 21.363281 75.175781 C 21.363281 71.882812 22.707031 68.894531 24.867188 66.726562 C 27.023438 64.5625 30.019531 63.21875 33.308594 63.21875 L 104.367188 63.21875 C 106.558594 63.21875 108.339844 65 108.339844 67.195312 C 108.339844 69.390625 106.558594 71.171875 104.367188 71.171875 L 33.300781 71.171875 C 32.203125 71.171875 31.207031 71.628906 30.480469 72.34375 C 29.753906 73.070312 29.308594 74.070312 29.308594 75.167969 Z M 29.308594 140.976562 " fill-opacity="1" fill-rule="evenodd"/><path fill="#453f7f" d="M 83.523438 88.074219 C 81.785156 89.402344 79.292969 89.070312 77.96875 87.332031 C 76.640625 85.589844 76.96875 83.097656 78.710938 81.769531 L 97.8125 67.195312 L 78.710938 52.621094 C 76.96875 51.292969 76.632812 48.800781 77.96875 47.058594 C 79.292969 45.320312 81.785156 44.980469 83.523438 46.316406 L 106.699219 63.992188 C 106.996094 64.214844 107.277344 64.480469 107.507812 64.785156 C 108.832031 66.527344 108.503906 69.019531 106.765625 70.347656 Z M 83.523438 88.074219 " fill-opacity="1" fill-rule="evenodd"/><path fill="#5e56a9" d="M 232.300781 329.886719 C 230.109375 329.886719 228.328125 328.105469 228.328125 325.910156 C 228.328125 323.714844 230.109375 321.933594 232.300781 321.933594 L 298.042969 321.933594 C 299.136719 321.933594 300.136719 321.476562 300.859375 320.761719 C 301.585938 320.035156 302.03125 319.035156 302.03125 317.9375 L 302.03125 246.8125 C 302.03125 244.617188 303.8125 242.835938 306.003906 242.835938 C 308.199219 242.835938 309.980469 244.617188 309.980469 246.8125 L 309.980469 317.9375 C 309.980469 321.230469 308.636719 324.21875 306.476562 326.386719 C 304.316406 328.550781 301.324219 329.894531 298.03125 329.894531 L 232.300781 329.894531 Z M 232.300781 329.886719 " fill-opacity="1" fill-rule="evenodd"/><path fill="#453f7f" d="M 291.453125 272.484375 C 290.125 274.226562 287.636719 274.566406 285.898438 273.226562 C 284.15625 271.898438 283.820312 269.40625 285.15625 267.664062 L 302.863281 244.402344 C 304.191406 242.660156 306.679688 242.324219 308.421875 243.660156 C 308.734375 243.898438 308.996094 244.171875 309.210938 244.46875 L 326.871094 267.664062 C 328.199219 269.40625 327.867188 271.898438 326.128906 273.226562 C 324.390625 274.554688 321.898438 274.226562 320.574219 272.484375 L 306.011719 253.363281 Z M 291.453125 272.484375 " fill-opacity="1" fill-rule="evenodd"/><path fill="#ffe4e4" d="M 209.050781 138.1875 C 208.714844 136.027344 210.199219 133.996094 212.359375 133.667969 C 212.359375 133.667969 212.367188 133.667969 212.292969 132.933594 C 212.085938 130.753906 213.683594 128.816406 215.863281 128.609375 C 218.039062 128.402344 219.976562 130.003906 220.183594 132.179688 C 220.980469 140.402344 213.59375 141.488281 213.570312 141.5 C 211.410156 141.835938 209.390625 140.351562 209.050781 138.1875 Z M 222.40625 140.003906 C 222.0625 137.84375 223.539062 135.8125 225.695312 135.464844 C 225.714844 135.464844 230.238281 134.804688 229.636719 128.609375 C 229.433594 126.429688 231.03125 124.492188 233.207031 124.285156 C 235.382812 124.078125 237.320312 125.679688 237.527344 127.855469 C 238.863281 141.539062 226.976562 143.289062 226.941406 143.296875 C 224.773438 143.636719 222.746094 142.167969 222.40625 140.003906 Z M 240.3125 171.503906 L 240.3125 63.664062 C 239.285156 61.585938 235.574219 55.632812 229.703125 62.894531 C 228.753906 64.078125 227.261719 64.570312 225.871094 64.308594 C 224.839844 64.167969 217.527344 63.472656 217.097656 71.628906 C 221.417969 72.683594 227.800781 76.273438 229.570312 88.074219 C 229.886719 90.242188 228.386719 92.265625 226.214844 92.578125 C 224.046875 92.894531 222.027344 91.390625 221.714844 89.21875 C 220.164062 78.855469 214.136719 79.113281 213.660156 79.152344 C 213.652344 79.152344 213.644531 79.152344 213.636719 79.152344 C 213.636719 79.152344 213.636719 79.152344 213.628906 79.152344 C 212.449219 79.308594 203.238281 80.785156 203.882812 88.082031 C 207.617188 88.652344 213.15625 90.886719 215.730469 98.800781 C 216.40625 100.890625 215.269531 103.125 213.183594 103.800781 C 211.097656 104.480469 208.863281 103.339844 208.1875 101.253906 C 206.390625 95.699219 202.191406 95.757812 201.375 95.824219 C 200.9375 95.898438 200.511719 95.898438 200.089844 95.832031 C 199.890625 95.804688 198.101562 95.78125 198.605469 101.5 C 198.738281 103.027344 197.988281 104.421875 196.785156 105.195312 C 195.523438 106.144531 186.785156 113.308594 201.03125 120.835938 C 202.035156 121.125 207.335938 122.164062 211.269531 113.128906 C 212.144531 111.121094 214.476562 110.199219 216.488281 111.074219 C 218.492188 111.945312 219.414062 114.28125 218.542969 116.296875 C 213.117188 128.765625 204.648438 129.359375 200.542969 128.796875 C 198.175781 131.042969 193.734375 136.769531 199.28125 144.492188 C 203.644531 143.183594 211.671875 142.390625 217.289062 151.375 C 218.441406 153.242188 217.875 155.691406 216.019531 156.847656 C 214.15625 158.003906 211.707031 157.433594 210.550781 155.578125 C 206.496094 149.082031 199.957031 152.722656 199.941406 152.730469 C 199.710938 152.851562 199.480469 152.953125 199.242188 153.027344 C 198.984375 153.109375 199.539062 153.628906 199.066406 154.875 C 198.640625 156.003906 198.324219 157.308594 198.359375 158.570312 C 198.382812 159.628906 198.664062 160.683594 199.363281 161.585938 C 200.511719 163.054688 202.8125 164.300781 206.898438 164.949219 C 208.855469 165.257812 210.253906 166.949219 210.253906 168.871094 L 210.273438 168.871094 C 210.273438 169.136719 210.90625 170.539062 212.152344 172.277344 C 212.925781 173.359375 213.898438 174.382812 215.019531 174.9375 C 215.9375 175.390625 217.058594 175.539062 218.375 175.085938 C 220.246094 174.449219 222.488281 172.808594 225.160156 169.664062 C 225.976562 168.152344 229.636719 160.925781 225.796875 159.679688 C 223.710938 159.007812 222.5625 156.773438 223.230469 154.683594 C 223.898438 152.597656 226.132812 151.449219 228.21875 152.117188 C 238.847656 155.566406 235.160156 166.816406 233.011719 171.628906 C 234.566406 173.746094 237.652344 176.546875 240.3125 171.503906 Z M 231.253906 79.203125 C 229.09375 79.539062 227.066406 78.054688 226.734375 75.894531 C 226.398438 73.730469 227.882812 71.703125 230.042969 71.371094 C 230.042969 71.371094 230.050781 71.371094 229.976562 70.636719 C 229.769531 68.457031 231.371094 66.519531 233.546875 66.3125 C 235.722656 66.105469 237.660156 67.707031 237.867188 69.886719 C 238.664062 78.105469 231.269531 79.203125 231.253906 79.203125 Z M 201.945312 113.382812 C 199.785156 113.722656 197.765625 112.234375 197.425781 110.074219 C 197.089844 107.910156 198.574219 105.890625 200.734375 105.550781 C 200.734375 105.550781 200.742188 105.550781 200.667969 104.816406 C 200.460938 102.640625 202.0625 100.699219 204.238281 100.492188 C 206.414062 100.285156 208.351562 101.886719 208.558594 104.066406 C 209.363281 112.285156 201.96875 113.375 201.945312 113.382812 Z M 228.3125 115.265625 C 226.132812 115.472656 224.195312 113.871094 223.992188 111.691406 C 222.65625 98.007812 234.542969 96.261719 234.578125 96.25 C 236.738281 95.90625 238.765625 97.382812 239.109375 99.542969 C 239.457031 101.707031 237.980469 103.734375 235.820312 104.082031 C 235.804688 104.082031 231.277344 104.742188 231.878906 110.941406 C 232.085938 113.117188 230.496094 115.058594 228.3125 115.265625 Z M 228.3125 115.265625 " fill-opacity="1" fill-rule="nonzero"/><path fill="#ffe4e4" d="M 288.050781 128.816406 C 283.933594 129.375 275.476562 128.78125 270.042969 116.3125 C 269.167969 114.308594 270.085938 111.964844 272.097656 111.089844 C 274.097656 110.214844 276.441406 111.128906 277.316406 113.144531 C 281.246094 122.179688 286.546875 121.140625 287.554688 120.851562 C 301.792969 113.332031 293.0625 106.164062 291.800781 105.214844 C 290.597656 104.445312 289.847656 103.042969 289.976562 101.515625 C 290.472656 95.796875 288.691406 95.832031 288.496094 95.847656 C 288.074219 95.914062 287.636719 95.914062 287.207031 95.839844 C 286.398438 95.773438 282.195312 95.722656 280.398438 101.269531 C 279.722656 103.355469 277.480469 104.496094 275.402344 103.820312 C 273.316406 103.140625 272.179688 100.898438 272.855469 98.816406 C 275.425781 90.894531 280.96875 88.667969 284.703125 88.097656 C 285.34375 80.804688 276.136719 79.328125 274.957031 79.167969 C 274.957031 79.167969 274.949219 79.167969 274.925781 79.167969 C 274.453125 79.136719 268.425781 78.863281 266.871094 89.238281 C 266.554688 91.40625 264.535156 92.910156 262.367188 92.597656 C 260.199219 92.28125 258.699219 90.261719 259.011719 88.089844 C 260.785156 76.289062 267.15625 72.699219 271.484375 71.644531 C 271.058594 63.492188 263.746094 64.183594 262.714844 64.324219 C 261.320312 64.589844 259.835938 64.09375 258.878906 62.914062 C 253.011719 55.652344 249.300781 61.601562 248.269531 63.679688 L 248.269531 171.519531 C 250.933594 176.570312 254.015625 173.765625 255.609375 171.667969 C 253.457031 166.847656 249.769531 155.609375 260.398438 152.160156 C 262.484375 151.492188 264.710938 152.640625 265.386719 154.726562 C 266.054688 156.8125 264.90625 159.042969 262.820312 159.71875 C 258.980469 160.964844 262.640625 168.203125 263.457031 169.703125 C 266.128906 172.847656 268.371094 174.5 270.242188 175.125 C 271.570312 175.570312 272.679688 175.429688 273.597656 174.976562 C 274.71875 174.417969 275.691406 173.402344 276.464844 172.320312 C 277.710938 170.578125 278.34375 169.167969 278.34375 168.910156 L 278.363281 168.910156 C 278.363281 166.988281 279.753906 165.296875 281.71875 164.992188 C 285.804688 164.347656 288.105469 163.101562 289.253906 161.625 C 289.953125 160.726562 290.234375 159.667969 290.257812 158.613281 C 290.292969 157.351562 289.976562 156.046875 289.550781 154.917969 C 289.078125 153.671875 289.632812 153.140625 289.375 153.058594 C 289.136719 152.984375 288.90625 152.886719 288.675781 152.761719 C 288.660156 152.753906 282.113281 149.113281 278.058594 155.609375 C 276.902344 157.472656 274.453125 158.042969 272.589844 156.878906 C 270.726562 155.726562 270.160156 153.273438 271.320312 151.410156 C 276.9375 142.414062 284.964844 143.207031 289.328125 144.527344 C 294.851562 136.785156 290.40625 131.058594 288.050781 128.816406 Z M 262.878906 135.464844 C 265.039062 135.8125 266.515625 137.84375 266.167969 140.003906 C 265.824219 142.167969 263.792969 143.644531 261.632812 143.296875 C 261.601562 143.289062 249.714844 141.539062 251.046875 127.855469 C 251.253906 125.679688 253.183594 124.078125 255.367188 124.285156 C 257.546875 124.492188 259.144531 126.421875 258.9375 128.609375 C 258.328125 134.796875 262.863281 135.457031 262.878906 135.464844 Z M 268.386719 132.191406 C 268.59375 130.011719 270.523438 128.410156 272.707031 128.617188 C 274.882812 128.824219 276.480469 130.753906 276.277344 132.941406 C 276.203125 133.675781 276.210938 133.675781 276.210938 133.675781 C 278.371094 134.011719 279.855469 136.035156 279.515625 138.199219 C 279.179688 140.359375 277.160156 141.84375 275 141.507812 C 274.980469 141.5 267.585938 140.402344 268.386719 132.191406 Z M 260.257812 115.265625 C 258.082031 115.058594 256.480469 113.128906 256.6875 110.941406 C 257.289062 104.742188 252.753906 104.082031 252.746094 104.082031 C 250.585938 103.734375 249.109375 101.707031 249.457031 99.542969 C 249.804688 97.382812 251.832031 95.90625 253.992188 96.25 C 254.023438 96.261719 265.914062 98.007812 264.578125 111.691406 C 264.371094 113.871094 262.433594 115.472656 260.257812 115.265625 Z M 257.324219 79.203125 C 257.304688 79.203125 249.910156 78.105469 250.710938 69.886719 C 250.917969 67.707031 252.847656 66.105469 255.03125 66.3125 C 257.207031 66.519531 258.804688 68.449219 258.601562 70.636719 C 258.527344 71.371094 258.535156 71.371094 258.535156 71.371094 C 260.695312 71.710938 262.179688 73.730469 261.839844 75.894531 C 261.503906 78.054688 259.484375 79.539062 257.324219 79.203125 Z M 286.621094 113.382812 C 286.597656 113.382812 279.210938 112.285156 280.011719 104.066406 C 280.21875 101.886719 282.144531 100.285156 284.332031 100.492188 C 286.507812 100.699219 288.105469 102.628906 287.902344 104.816406 C 287.828125 105.550781 287.835938 105.550781 287.835938 105.550781 C 289.996094 105.890625 291.480469 107.910156 291.140625 110.074219 C 290.800781 112.234375 288.78125 113.714844 286.621094 113.382812 Z M 286.621094 113.382812 " fill-opacity="1" fill-rule="nonzero"/><path fill="#b0b9be" d="M 64.695312 230.273438 L 98.265625 230.273438 L 98.265625 258.078125 L 64.695312 258.078125 Z M 64.695312 230.273438 " fill-opacity="1" fill-rule="evenodd"/><path fill="#b0b9be" d="M 0.199219 237.652344 L 20.207031 237.652344 L 20.207031 255.253906 L 0.199219 255.253906 Z M 0.199219 237.652344 " fill-opacity="1" fill-rule="evenodd"/><path fill="#b0b9be" d="M 142.742188 237.652344 L 162.75 237.652344 L 162.75 255.253906 L 142.742188 255.253906 Z M 142.742188 237.652344 " fill-opacity="1" fill-rule="evenodd"/><g clip-path="url(#a855b3db0b)"><path fill="#c4ced3" d="M 144.085938 281.382812 L 132.015625 365.949219 L 30.933594 365.949219 L 18.863281 281.382812 L 0.199219 281.382812 L 0.199219 251.9375 L 162.75 251.9375 L 162.75 281.382812 Z M 144.085938 281.382812 " fill-opacity="1" fill-rule="evenodd"/></g><path fill="#b0b9be" d="M 125.675781 271.570312 L 37.273438 271.570312 L 47.941406 346.316406 L 115.007812 346.316406 Z M 125.675781 271.570312 " fill-opacity="1" fill-rule="evenodd"/><path fill="#c4ced3" d="M 44.972656 236.414062 L 117.976562 236.414062 C 123.574219 236.414062 128.160156 231.828125 128.160156 226.222656 L 128.160156 192.933594 C 128.160156 187.332031 123.574219 182.742188 117.976562 182.742188 L 44.972656 182.742188 C 39.375 182.742188 34.792969 187.332031 34.792969 192.933594 L 34.792969 226.222656 C 34.792969 231.828125 39.375 236.414062 44.972656 236.414062 Z M 44.972656 236.414062 " fill-opacity="1" fill-rule="evenodd"/><path fill="#b0b9be" d="M 62.945312 194.882812 C 71.050781 194.882812 77.628906 201.457031 77.628906 209.578125 C 77.628906 217.691406 71.058594 224.277344 62.945312 224.277344 C 54.839844 224.277344 48.261719 217.699219 48.261719 209.578125 C 48.269531 201.46875 54.839844 194.882812 62.945312 194.882812 Z M 100.003906 194.882812 C 108.109375 194.882812 114.6875 201.457031 114.6875 209.578125 C 114.6875 217.691406 108.117188 224.277344 100.003906 224.277344 C 91.890625 224.277344 85.320312 217.699219 85.320312 209.578125 C 85.320312 201.46875 91.898438 194.882812 100.003906 194.882812 Z M 100.003906 194.882812 " fill-opacity="1" fill-rule="evenodd"/><path fill="#0eebf1" d="M 62.945312 219.300781 C 68.296875 219.300781 72.65625 214.933594 72.65625 209.578125 C 72.65625 204.222656 68.296875 199.859375 62.945312 199.859375 C 57.59375 199.859375 53.234375 204.222656 53.234375 209.578125 C 53.234375 214.933594 57.59375 219.300781 62.945312 219.300781 Z M 62.945312 219.300781 " fill-opacity="1" fill-rule="evenodd"/><path fill="#0eebf1" d="M 100.003906 219.300781 C 105.355469 219.300781 109.714844 214.933594 109.714844 209.578125 C 109.714844 204.222656 105.355469 199.859375 100.003906 199.859375 C 94.652344 199.859375 90.292969 204.222656 90.292969 209.578125 C 90.292969 214.933594 94.652344 219.300781 100.003906 219.300781 Z M 100.003906 219.300781 " fill-opacity="1" fill-rule="evenodd"/><path fill="#c4ced3" d="M 66.203125 303.414062 C 71.097656 303.414062 75.089844 299.421875 75.089844 294.519531 C 75.089844 289.617188 71.097656 285.621094 66.203125 285.621094 C 61.304688 285.621094 57.316406 289.617188 57.316406 294.519531 C 57.316406 299.421875 61.3125 303.414062 66.203125 303.414062 Z M 66.203125 303.414062 " fill-opacity="1" fill-rule="evenodd"/><path fill="#c4ced3" d="M 96.746094 303.414062 C 101.644531 303.414062 105.636719 299.421875 105.636719 294.519531 C 105.636719 289.617188 101.644531 285.621094 96.746094 285.621094 C 91.851562 285.621094 87.859375 289.617188 87.859375 294.519531 C 87.859375 299.421875 91.851562 303.414062 96.746094 303.414062 Z M 96.746094 303.414062 " fill-opacity="1" fill-rule="evenodd"/><path fill="#c4ced3" d="M 66.203125 332.253906 C 71.097656 332.253906 75.089844 328.261719 75.089844 323.359375 C 75.089844 318.457031 71.097656 314.464844 66.203125 314.464844 C 61.304688 314.464844 57.316406 318.457031 57.316406 323.359375 C 57.316406 328.261719 61.3125 332.253906 66.203125 332.253906 Z M 66.203125 332.253906 " fill-opacity="1" fill-rule="evenodd"/><path fill="#c4ced3" d="M 96.746094 332.253906 C 101.644531 332.253906 105.636719 328.261719 105.636719 323.359375 C 105.636719 318.457031 101.644531 314.464844 96.746094 314.464844 C 91.851562 314.464844 87.859375 318.457031 87.859375 323.359375 C 87.859375 328.261719 91.851562 332.253906 96.746094 332.253906 Z M 96.746094 332.253906 " fill-opacity="1" fill-rule="evenodd"/><g clip-path="url(#06c1b5a1fb)"><path fill="#b0b9be" d="M 162.75 251.9375 L 138.457031 251.9375 C 135.613281 272.558594 129.328125 292.074219 120.195312 309.890625 L 114.992188 346.316406 L 95.570312 346.316406 C 91.769531 350.699219 87.761719 354.890625 83.566406 358.894531 C 81.015625 361.320312 78.402344 363.671875 75.714844 365.949219 L 132.015625 365.949219 L 139.378906 314.375 L 142.074219 295.5 L 144.085938 281.390625 L 162.761719 281.390625 L 162.761719 251.9375 Z M 162.75 251.9375 " fill-opacity="1" fill-rule="evenodd"/></g><path fill="#9ea7ab" d="M 115.007812 346.316406 L 120.210938 309.890625 C 113.476562 323.046875 105.179688 335.269531 95.585938 346.316406 Z M 115.007812 346.316406 " fill-opacity="1" fill-rule="evenodd"/></svg>