<svg xmlns="http://www.w3.org/2000/svg" xmlns:xlink="http://www.w3.org/1999/xlink" width="1920" zoomAndPan="magnify" viewBox="0 0 1440 809.999993" height="1080" preserveAspectRatio="xMidYMid meet" version="1.0"><defs><clipPath id="07c6b8529c"><path d="M 307 4.769531 L 851 4.769531 L 851 810 L 307 810 Z M 307 4.769531 " clip-rule="nonzero"/></clipPath></defs><g clip-path="url(#07c6b8529c)"><path fill="#ada26a" d="M 748.980469 746.207031 L 733.640625 746.207031 L 728.667969 436.914062 L 839.890625 435.003906 C 839.890625 435.003906 854.269531 473.042969 849.761719 508.320312 C 845.253906 543.59375 842.707031 559.652344 844.132812 575.195312 C 845.558594 590.722656 850.582031 613.394531 847.980469 648.261719 C 845.398438 683.144531 839.875 746.207031 839.875 746.207031 L 824.714844 746.207031 C 824.714844 746.207031 808.144531 769.503906 805.402344 766.511719 C 802.65625 763.515625 748.980469 746.207031 748.980469 746.207031 Z M 828.082031 284.851562 L 828.082031 33.574219 C 828.082031 17.675781 815.183594 4.769531 799.289062 4.769531 L 450.835938 4.769531 C 434.925781 4.769531 422.046875 17.675781 422.046875 33.574219 L 422.046875 284.832031 C 422.046875 300.75 434.945312 313.636719 450.835938 313.636719 L 799.289062 313.636719 C 815.183594 313.65625 828.082031 300.75 828.082031 284.851562 Z M 318.058594 768.222656 C 318.058594 768.222656 306.550781 791.019531 307.796875 809.683594 L 460.992188 809.683594 C 460.992188 802.800781 458.140625 796.242188 453.136719 791.554688 L 443.691406 782.710938 L 394.289062 753.585938 L 382.550781 767.5625 L 376.652344 794.621094 C 376.652344 794.621094 372.644531 783.976562 364.359375 774.476562 C 356.078125 764.976562 332.238281 750.789062 332.238281 750.789062 Z M 318.058594 768.222656 " fill-opacity="1" fill-rule="nonzero"/></g><path fill="#09262c" d="M 1134.238281 386.34375 L 1134.238281 809.683594 L 1104.96875 809.683594 L 1104.96875 637.691406 L 1017.441406 637.691406 L 1017.441406 809.683594 L 988.171875 809.683594 L 988.171875 608.40625 L 1104.96875 608.40625 L 1104.96875 386.34375 Z M 1134.238281 386.34375 " fill-opacity="1" fill-rule="nonzero"/><path fill="#efd2c3" d="M 791.96875 245.957031 C 791.96875 246.902344 791.203125 247.667969 790.257812 247.667969 L 496.78125 247.667969 L 496.78125 53.378906 C 496.78125 52.433594 497.550781 51.667969 498.492188 51.667969 C 499.4375 51.667969 500.203125 52.433594 500.203125 53.378906 L 500.203125 244.226562 L 790.257812 244.226562 C 791.203125 244.246094 791.96875 245.011719 791.96875 245.957031 Z M 539.648438 205.53125 L 760.828125 205.53125 C 761.769531 205.53125 762.535156 204.761719 762.535156 203.820312 C 762.535156 202.875 761.769531 202.109375 760.828125 202.109375 L 539.648438 202.109375 C 538.703125 202.109375 537.9375 202.875 537.9375 203.820312 C 537.9375 204.761719 538.703125 205.53125 539.648438 205.53125 Z M 539.648438 160.933594 L 760.828125 160.933594 C 761.769531 160.933594 762.535156 160.167969 762.535156 159.222656 C 762.535156 158.277344 761.769531 157.511719 760.828125 157.511719 L 539.648438 157.511719 C 538.703125 157.511719 537.9375 158.277344 537.9375 159.222656 C 537.9375 160.167969 538.703125 160.933594 539.648438 160.933594 Z M 539.648438 116.316406 L 760.828125 116.316406 C 761.769531 116.316406 762.535156 115.550781 762.535156 114.605469 C 762.535156 113.660156 761.769531 112.894531 760.828125 112.894531 L 539.648438 112.894531 C 538.703125 112.894531 537.9375 113.660156 537.9375 114.605469 C 537.9375 115.550781 538.703125 116.316406 539.648438 116.316406 Z M 539.648438 71.71875 L 760.828125 71.71875 C 761.769531 71.71875 762.535156 70.953125 762.535156 70.007812 C 762.535156 69.0625 761.769531 68.296875 760.828125 68.296875 L 539.648438 68.296875 C 538.703125 68.296875 537.9375 69.0625 537.9375 70.007812 C 537.9375 70.953125 538.703125 71.71875 539.648438 71.71875 Z M 482.636719 201.359375 L 468.902344 201.359375 C 467.546875 201.359375 466.441406 202.464844 466.441406 203.820312 C 466.441406 205.171875 467.546875 206.277344 468.902344 206.277344 L 482.636719 206.277344 C 483.992188 206.277344 485.097656 205.171875 485.097656 203.820312 C 485.078125 202.464844 483.992188 201.359375 482.636719 201.359375 Z M 482.636719 156.761719 L 468.902344 156.761719 C 467.546875 156.761719 466.441406 157.867188 466.441406 159.222656 C 466.441406 160.574219 467.546875 161.679688 468.902344 161.679688 L 482.636719 161.679688 C 483.992188 161.679688 485.097656 160.574219 485.097656 159.222656 C 485.078125 157.867188 483.992188 156.761719 482.636719 156.761719 Z M 482.636719 112.164062 L 468.902344 112.164062 C 467.546875 112.164062 466.441406 113.269531 466.441406 114.625 C 466.441406 115.980469 467.546875 117.082031 468.902344 117.082031 L 482.636719 117.082031 C 483.992188 117.082031 485.097656 115.980469 485.097656 114.625 C 485.078125 113.25 483.992188 112.164062 482.636719 112.164062 Z M 482.636719 67.566406 L 468.902344 67.566406 C 467.546875 67.566406 466.441406 68.671875 466.441406 70.027344 C 466.441406 71.382812 467.546875 72.484375 468.902344 72.484375 L 482.636719 72.484375 C 483.992188 72.484375 485.097656 71.382812 485.097656 70.027344 C 485.078125 68.652344 483.992188 67.566406 482.636719 67.566406 Z M 482.636719 245.957031 L 468.902344 245.957031 C 467.546875 245.957031 466.441406 247.0625 466.441406 248.417969 C 466.441406 249.769531 467.546875 250.875 468.902344 250.875 L 482.636719 250.875 C 483.992188 250.875 485.097656 249.769531 485.097656 248.417969 C 485.078125 247.0625 483.992188 245.957031 482.636719 245.957031 Z M 482.636719 245.957031 " fill-opacity="1" fill-rule="nonzero"/><path fill="#e96852" d="M 855.25 782.160156 C 871.515625 773.425781 879.941406 764.601562 879.941406 764.601562 L 932.726562 756.972656 L 937.023438 767.097656 L 941.652344 763.570312 L 952.664062 764.601562 L 989.878906 757.117188 C 989.878906 757.117188 1007.304688 795.671875 1001.691406 809.449219 L 834.261719 809.449219 C 837.058594 797.773438 844.683594 787.828125 855.25 782.160156 Z M 522.472656 226.546875 L 604.496094 173.339844 L 644.382812 202.5 L 683.453125 82.398438 C 686.109375 90.648438 691.417969 107.171875 696.816406 123.570312 C 712.492188 171.183594 713.367188 171.394531 714.828125 171.753906 L 715.808594 172.054688 L 716.539062 171.324219 C 718.335938 169.898438 744.0625 156.351562 761.914062 147.066406 C 762.804688 146.601562 763.160156 145.496094 762.679688 144.585938 C 762.214844 143.695312 761.113281 143.339844 760.222656 143.804688 C 747.484375 150.433594 722.949219 163.25 715.914062 167.421875 C 711.921875 158.382812 695.78125 109.042969 685.21875 75.871094 L 683.488281 70.453125 L 642.460938 196.5625 L 604.621094 168.898438 L 520.496094 223.480469 C 519.640625 224.03125 519.410156 225.171875 519.960938 226.027344 C 520.476562 226.847656 521.617188 227.097656 522.472656 226.546875 Z M 522.472656 226.546875 " fill-opacity="1" fill-rule="nonzero"/><path fill="#efd2c3" d="M 1057.132812 511.527344 L 1109.902344 538.640625 L 1113.625 568.78125 C 1117.261719 598.246094 1094.296875 624.214844 1064.632812 624.214844 L 995.617188 624.214844 C 1004.203125 657.636719 1001.585938 687.582031 1000.410156 705.105469 C 999.234375 722.625 996.277344 757.097656 996.277344 757.097656 L 989.878906 757.097656 L 971.476562 763.210938 L 950.703125 756.957031 L 932.710938 756.957031 L 897.828125 763.210938 L 887.921875 756.957031 L 874.953125 756.4375 L 902.746094 587.976562 C 907.09375 561.667969 929.183594 541.9375 955.800781 540.617188 L 995.457031 538.640625 Z M 766.8125 810.214844 L 833.835938 810.214844 C 833.835938 810.214844 828.152344 761.554688 824.730469 746.207031 L 748.996094 746.207031 C 749.550781 753.996094 740.75 767.722656 725.535156 775.171875 C 721.507812 777.132812 717.980469 778.84375 714.96875 780.269531 C 707.289062 783.925781 702.820312 792.089844 703.871094 800.539062 L 766.832031 800.539062 C 766.117188 803.585938 766.8125 810.214844 766.8125 810.214844 Z M 766.8125 810.214844 " fill-opacity="1" fill-rule="nonzero"/><path fill="#09262c" d="M 786.054688 746.207031 C 786.035156 752.480469 785.464844 764.941406 781.6875 773.621094 C 776.449219 785.652344 770.304688 787.882812 766.8125 800.519531 L 703.851562 800.519531 C 702.800781 792.070312 707.273438 783.90625 714.953125 780.253906 C 717.980469 778.808594 721.507812 777.117188 725.515625 775.15625 C 740.730469 767.703125 749.515625 753.980469 748.980469 746.191406 L 733.640625 746.191406 L 728.667969 436.894531 L 754.804688 436.449219 C 755.785156 455.238281 758.832031 506.039062 765.246094 555.214844 C 773.332031 617.121094 786.054688 746.207031 786.054688 746.207031 Z M 786.054688 746.207031 " fill-opacity="0.1" fill-rule="nonzero"/><path fill="#09262c" d="M 850.777344 291.605469 L 844.132812 320.535156 L 850.207031 443.0625 L 719.921875 443.0625 L 719.921875 331.070312 C 719.921875 331.070312 710.515625 343.136719 697.722656 349.695312 C 696.496094 350.339844 680.871094 343.527344 680.871094 343.527344 L 669.183594 308.023438 C 669.183594 308.023438 687.585938 282.121094 702.480469 262.621094 C 711.886719 250.304688 725.480469 241.890625 740.675781 238.898438 L 757.476562 235.601562 L 788.992188 235.566406 L 809.675781 236.777344 C 820.542969 237.417969 830.824219 242 838.574219 249.664062 C 849.636719 260.574219 854.25 276.453125 850.777344 291.605469 Z M 310.859375 402.527344 C 310.859375 402.527344 292.101562 459.175781 296.820312 503.238281 C 301.542969 547.300781 300.792969 556.945312 300.617188 574.128906 C 300.4375 591.3125 298.925781 608.601562 298.925781 608.601562 L 304.410156 608.601562 L 343.015625 634.394531 L 436.921875 608.601562 C 436.921875 608.601562 430.632812 456.714844 425.699219 402.527344 C 420.765625 348.339844 310.859375 402.527344 310.859375 402.527344 Z M 310.859375 402.527344 " fill-opacity="1" fill-rule="nonzero"/><path fill="#bd755c" d="M 887.941406 756.957031 L 932.726562 756.957031 L 902.671875 769.523438 C 894.816406 772.800781 885.730469 770.839844 879.941406 764.585938 Z M 950.722656 756.957031 L 941.652344 763.550781 L 942.5625 764.371094 C 948.386719 769.539062 956.65625 770.914062 963.835938 767.9375 L 989.878906 757.117188 Z M 436.921875 608.601562 L 304.410156 608.601562 C 304.410156 630.027344 308.4375 677.296875 314.371094 715.316406 C 320.300781 753.335938 318.058594 768.238281 318.058594 768.238281 C 318.058594 768.238281 337.011719 757.027344 360.546875 774.476562 C 360.546875 774.476562 363.417969 776.867188 364.359375 774.476562 C 364.359375 774.476562 361.671875 768.273438 361.242188 765.085938 C 360.816406 761.894531 370.667969 629.667969 370.667969 629.667969 C 370.667969 629.667969 381.019531 724.335938 382.550781 741.789062 C 384.082031 759.21875 382.550781 767.5625 382.550781 767.5625 C 382.550781 767.5625 395.804688 758.738281 412.855469 770.71875 C 421.691406 776.917969 428.371094 781.375 432.753906 784.210938 C 436.28125 786.492188 440.929688 785.851562 443.710938 782.695312 C 443.710938 782.695312 427.996094 765.03125 427.25 762.800781 C 426.5 760.574219 436.921875 608.601562 436.921875 608.601562 Z M 722.363281 439.640625 C 717.375 443.847656 690.722656 454.753906 686.660156 460.136719 C 682.597656 465.523438 673.371094 483.703125 673.371094 483.703125 C 673.371094 483.703125 677.699219 497 697.492188 469.890625 C 697.492188 469.890625 696.496094 482.0625 702.070312 486.109375 C 707.648438 490.15625 715.324219 489.816406 715.324219 489.816406 C 715.324219 489.816406 719.976562 496.199219 733.371094 480.226562 C 734.671875 478.050781 729.722656 474.683594 729.722656 474.683594 C 735.386719 471.617188 743.492188 473.722656 747.324219 463.3125 C 747.324219 463.3125 785.164062 419.890625 804.847656 393.3125 L 762.679688 362.246094 C 757.15625 369.964844 727.351562 435.433594 722.363281 439.640625 Z M 722.363281 439.640625 " fill-opacity="1" fill-rule="nonzero"/><path fill="#09262c" d="M 1043.238281 533.648438 C 1029.699219 538.265625 1017.28125 549.941406 1017.28125 549.941406 L 961.820312 553.058594 C 939 554.34375 921.558594 573.96875 922.949219 596.800781 L 932.726562 756.972656 L 937.023438 767.097656 C 937.023438 767.097656 932.941406 773.445312 916.675781 782.179688 C 906.113281 787.847656 898.488281 797.792969 895.707031 809.46875 L 834.28125 809.46875 C 837.058594 797.792969 844.683594 787.863281 855.25 782.179688 C 871.515625 773.445312 879.941406 764.621094 879.941406 764.621094 L 887.941406 756.992188 L 874.96875 756.476562 L 902.761719 588.011719 C 907.109375 561.703125 929.199219 541.972656 955.816406 540.652344 L 995.472656 538.675781 L 1033.636719 521.902344 C 1036.929688 525.804688 1040.121094 529.761719 1043.238281 533.648438 Z M 376.652344 794.621094 C 376.652344 794.621094 372.644531 783.976562 364.359375 774.476562 C 364.359375 774.476562 361.671875 768.273438 361.242188 765.085938 C 360.816406 761.894531 370.667969 629.667969 370.667969 629.667969 C 370.667969 629.667969 369.492188 617.851562 368.40625 608.601562 L 304.410156 608.601562 C 304.410156 630.027344 308.4375 677.296875 314.371094 715.316406 C 320.300781 753.335938 318.058594 768.238281 318.058594 768.238281 C 318.058594 768.238281 306.550781 791.035156 307.796875 809.699219 L 376.652344 809.699219 C 376.652344 809.683594 375.386719 800.429688 376.652344 794.621094 Z M 376.652344 794.621094 " fill-opacity="0.1" fill-rule="nonzero"/><path fill="#efd2c3" d="M 897.203125 441.226562 L 893.625 494.023438 L 864.726562 494.023438 L 861.144531 441.226562 Z M 464.089844 301.070312 L 441.128906 252.890625 C 435.210938 240.464844 422.6875 232.550781 408.933594 232.550781 L 346.847656 213.410156 C 341.34375 213.410156 315.882812 233.800781 311.144531 236.046875 C 301.828125 240.484375 294.613281 248.828125 291.78125 259.273438 C 291.78125 259.273438 279.46875 295.527344 273.144531 324.5625 C 270.257812 337.789062 280.269531 350.300781 293.792969 350.300781 L 304.410156 350.300781 L 310.859375 402.527344 L 425.699219 402.527344 L 434.304688 336.667969 L 442.410156 349.804688 C 451.316406 364.242188 472.429688 363.8125 480.765625 349.054688 L 491.867188 329.394531 L 485.933594 297.753906 L 466.425781 298.503906 Z M 710.035156 484.113281 L 676.382812 484.113281 L 655.449219 424.863281 C 653.417969 419.105469 647.964844 415.257812 641.871094 415.257812 L 554.628906 415.257812 C 549.054688 415.257812 545.152344 420.78125 547.003906 426.039062 L 571.25 494.683594 L 710.035156 494.683594 C 712.957031 494.683594 715.324219 492.3125 715.324219 489.390625 C 715.324219 486.484375 712.957031 484.113281 710.035156 484.113281 Z M 710.035156 484.113281 " fill-opacity="1" fill-rule="nonzero"/><path fill="#09262c" d="M 789.011719 217.828125 L 776.949219 224.921875 L 742.851562 191.074219 L 742.851562 182.054688 C 742.851562 167.0625 754.984375 154.925781 769.964844 154.925781 C 784.949219 154.925781 797.382812 166.601562 797.988281 181.574219 C 799.078125 208.472656 789.011719 217.828125 789.011719 217.828125 Z M 490.441406 274.246094 C 490.441406 274.246094 507.722656 266.082031 507.507812 265.011719 C 507.292969 263.941406 502.875 253.210938 502.875 253.210938 L 503.125 247.382812 C 503.214844 245.316406 501.699219 243.550781 499.652344 243.300781 C 497.511719 243.050781 495.570312 244.546875 495.285156 246.667969 L 493.308594 260.859375 Z M 1058.453125 350.320312 C 1061.996094 350.179688 1064.757812 347.273438 1064.792969 343.742188 C 1065.863281 344.402344 1067.144531 344.757812 1068.5 344.707031 C 1072.152344 344.5625 1075.003906 341.480469 1074.859375 337.824219 C 1074.84375 337.488281 1074.789062 337.164062 1074.71875 336.84375 C 1075.75 337.414062 1076.925781 337.753906 1078.191406 337.699219 C 1081.84375 337.558594 1084.695312 334.472656 1084.550781 330.820312 C 1084.515625 329.894531 1084.285156 329.039062 1083.929688 328.253906 C 1084.105469 328.253906 1084.285156 328.289062 1084.464844 328.289062 C 1088.113281 328.144531 1090.964844 325.0625 1090.824219 321.410156 C 1090.734375 319.179688 1089.558594 317.253906 1087.8125 316.132812 C 1090.09375 315.007812 1091.625 312.640625 1091.519531 309.929688 C 1091.410156 307.09375 1089.523438 304.761719 1086.976562 303.921875 C 1088.203125 302.675781 1088.933594 300.945312 1088.863281 299.039062 C 1088.738281 295.792969 1086.316406 293.210938 1083.214844 292.746094 C 1083.804688 291.710938 1084.140625 290.519531 1084.089844 289.234375 C 1083.945312 285.582031 1080.863281 282.730469 1077.210938 282.871094 C 1076.214844 282.90625 1075.289062 283.175781 1074.46875 283.601562 C 1074.539062 283.15625 1074.574219 282.691406 1074.558594 282.210938 C 1074.414062 278.558594 1071.332031 275.707031 1067.679688 275.847656 C 1066.128906 275.902344 1064.757812 276.507812 1063.65625 277.453125 C 1062.726562 274.742188 1060.164062 272.835938 1057.167969 272.960938 C 1055.066406 273.050781 1053.230469 274.121094 1052.09375 275.707031 C 1050.828125 274.207031 1048.921875 273.28125 1046.820312 273.351562 C 1044.039062 273.460938 1041.742188 275.261719 1040.851562 277.71875 C 1039.710938 276.917969 1038.320312 276.453125 1036.824219 276.507812 C 1033.761719 276.632812 1031.285156 278.824219 1030.640625 281.695312 C 1029.769531 281.320312 1028.824219 281.125 1027.828125 281.160156 C 1024.175781 281.304688 1021.324219 284.386719 1021.46875 288.039062 C 1021.46875 288.183594 1021.519531 288.324219 1021.519531 288.46875 C 1021.164062 288.433594 1020.808594 288.378906 1020.433594 288.398438 C 1016.78125 288.539062 1013.929688 291.625 1014.074219 295.277344 C 1014.089844 295.917969 1014.234375 296.523438 1014.429688 297.09375 C 1011.347656 297.753906 1009.585938 301.945312 1010.171875 305.152344 C 1011.0625 310.070312 1016.105469 315.9375 1019.757812 315.792969 C 1019.757812 315.792969 1011.667969 335.828125 1034.167969 348.339844 C 1056.6875 360.925781 1058.453125 350.320312 1058.453125 350.320312 Z M 409.253906 230.875 C 407.242188 226.507812 403.679688 223.085938 399.316406 221.074219 C 397.53125 220.253906 395.625 219.21875 393.878906 218.007812 L 399.332031 179.96875 C 399.332031 178.703125 401.738281 172.410156 401.59375 171.199219 C 399.761719 155.960938 386.789062 144.160156 371.058594 144.160156 C 354.082031 144.160156 340.308594 157.9375 340.308594 174.925781 C 339.527344 182.785156 338.617188 189.378906 337.742188 194.746094 C 335.910156 206.101562 329.671875 216.261719 320.445312 223.105469 L 319.980469 223.445312 C 315.972656 226.421875 313.035156 230.628906 311.644531 235.40625 C 311.359375 235.492188 311.234375 235.777344 311.164062 236.082031 C 315.902344 233.816406 321.15625 232.550781 326.679688 232.550781 L 330.5625 232.550781 C 327.714844 240.949219 322.53125 259.824219 323.277344 279.199219 C 323.6875 289.589844 332.347656 297.738281 342.730469 297.738281 L 376.847656 297.738281 C 388.910156 297.738281 397.960938 286.703125 395.554688 274.886719 C 393.257812 263.496094 390.976562 248.71875 390.316406 232.550781 L 408.933594 232.550781 C 409.308594 232.550781 409.664062 232.589844 410.023438 232.589844 C 410.023438 232.570312 410.023438 232.570312 410.023438 232.550781 Z M 409.253906 230.875 " fill-opacity="1" fill-rule="nonzero"/><path fill="#ada26a" d="M 890.042969 465.914062 C 890.042969 471.921875 885.179688 476.785156 879.175781 476.785156 C 873.171875 476.785156 868.308594 471.921875 868.308594 465.914062 C 868.308594 459.90625 873.171875 455.039062 879.175781 455.039062 C 885.179688 455.039062 890.042969 459.90625 890.042969 465.914062 Z M 1136.464844 492.6875 C 1159.199219 488.300781 1169.691406 461.796875 1156.152344 443.027344 L 1122.230469 395.988281 C 1109.441406 378.25 1088.917969 367.734375 1067.058594 367.734375 C 1067.058594 367.734375 1061.054688 358.378906 1060.929688 357.539062 L 1024.996094 360.980469 L 1019.972656 367.734375 L 1004.828125 367.734375 C 989.71875 367.734375 975.914062 376.34375 969.25 389.910156 L 957.367188 414.113281 L 980.117188 472.082031 L 995.421875 538.601562 L 1109.851562 538.601562 L 1103.667969 486.984375 L 1136.464844 492.6875 " fill-opacity="1" fill-rule="nonzero"/><path fill="#bd755c" d="M 900.785156 441.046875 C 900.785156 442.492188 899.609375 443.667969 898.167969 443.667969 L 860.183594 443.667969 C 858.742188 443.667969 857.566406 442.492188 857.566406 441.046875 C 857.566406 439.605469 858.742188 438.429688 860.183594 438.429688 L 862.285156 438.429688 C 862.355469 435.613281 864.65625 433.332031 867.503906 433.332031 L 890.863281 433.332031 C 893.695312 433.332031 895.992188 435.59375 896.082031 438.429688 L 898.183594 438.429688 C 899.609375 438.429688 900.785156 439.605469 900.785156 441.046875 Z M 1030.875 382.332031 L 1060.929688 357.558594 L 1057.8125 351.335938 C 1043.328125 352.28125 1045.039062 336.753906 1045.039062 336.753906 C 1045.570312 336.71875 1046.089844 336.667969 1046.605469 336.558594 C 1051.09375 335.722656 1054.90625 332.425781 1056.226562 327.789062 C 1057.082031 324.796875 1055.421875 321.675781 1052.484375 320.679688 L 1044.449219 318.699219 C 1033.332031 315.972656 1026.5625 304.707031 1029.378906 293.601562 C 1029.378906 293.601562 1015.996094 299.679688 1011.988281 308.164062 C 1011.792969 308.59375 1009.066406 316.542969 1006.324219 324.527344 C 1003.136719 333.796875 1007.945312 343.902344 1017.136719 347.289062 L 1024.476562 349.980469 C 1024.460938 349.980469 1024.03125 371.085938 1030.875 382.332031 Z M 970.746094 367.753906 C 971.941406 361.070312 973.597656 346.167969 972.902344 345.097656 C 971.03125 342.476562 966.828125 344.722656 966.828125 344.722656 C 966.828125 344.722656 966.703125 336.183594 964.367188 329.75 C 962.035156 323.316406 958.1875 326.347656 958.1875 326.347656 C 956.296875 323.992188 952.59375 326.078125 951.273438 330.390625 C 946.875 327.699219 946.195312 341.210938 946.195312 341.210938 C 946.195312 341.210938 942.492188 340.820312 942.3125 346.878906 C 942.136719 352.941406 938.929688 360.675781 935.347656 368.464844 C 931.765625 376.253906 935.488281 382.332031 935.488281 382.332031 L 934.757812 440.550781 L 980.136719 432.527344 C 980.847656 432.046875 964.671875 381.566406 964.671875 381.566406 C 964.671875 381.566406 969.570312 374.4375 970.746094 367.753906 Z M 1112.238281 450.566406 C 1112.238281 450.566406 1067.003906 457.445312 1062.941406 457.820312 C 1058.878906 458.195312 1033.207031 450.65625 1030.304688 450.851562 C 1027.382812 451.046875 1023.925781 454.203125 1023.925781 454.203125 L 1031.976562 477.375 C 1039.515625 477.570312 1053.605469 489.335938 1060.910156 483.828125 C 1060.910156 483.828125 1119.59375 497.265625 1136.484375 492.6875 Z M 401.828125 188.417969 L 401.828125 177.917969 C 401.828125 177.917969 401.828125 174.90625 401.613281 171.183594 C 399.082031 177.832031 392.652344 182.554688 385.117188 182.554688 L 382.496094 182.554688 C 378.167969 182.554688 374.460938 186.101562 374.53125 190.433594 C 374.605469 195.386719 378.203125 199.503906 382.941406 200.359375 C 382.941406 200.359375 385.257812 211.128906 393.917969 218.007812 C 398.476562 216.832031 401.84375 212.675781 401.84375 207.742188 L 401.84375 198.898438 C 402.664062 198.898438 403.660156 198.917969 404.535156 198.917969 C 405.53125 198.933594 406.191406 197.902344 405.78125 196.992188 Z M 513.191406 264.121094 C 511.996094 259.148438 508.773438 258.007812 508.773438 258.007812 C 507.453125 252.820312 502.894531 253.230469 502.894531 253.230469 L 501.558594 263.425781 C 501.289062 265.457031 499.5625 266.988281 497.511719 266.988281 C 495.339844 266.988281 493.539062 265.277344 493.433594 263.105469 L 493.328125 260.894531 C 493.328125 260.894531 486.449219 268.523438 484.5625 271.570312 C 483.367188 273.621094 482.761719 281.320312 482.761719 281.320312 L 466.480469 298.523438 L 491.917969 329.410156 C 491.917969 329.410156 504.90625 298.699219 505.085938 298.523438 C 505.261719 298.324219 514.082031 289.21875 516.328125 282.550781 C 518.570312 275.882812 516.488281 271.570312 516.488281 271.570312 C 516.808594 264.65625 513.191406 264.121094 513.191406 264.121094 Z M 778.960938 207.777344 L 778.960938 205.316406 C 783.523438 203.160156 786.675781 198.507812 786.675781 193.125 C 786.675781 190.003906 784.148438 187.472656 781.03125 187.472656 C 779 187.472656 777.339844 189.132812 777.339844 191.164062 L 777.339844 194.03125 C 774.277344 194.03125 771.496094 192.214844 770.25 189.417969 C 767.988281 184.28125 766.722656 177.5625 766.722656 177.5625 L 748.25 177.5625 C 748.25 177.5625 742.867188 182.820312 742.867188 191.074219 C 742.867188 191.5 742.867188 199.398438 742.867188 209.558594 C 742.867188 217.632812 749.40625 224.191406 757.476562 224.191406 L 757.496094 235.582031 L 766.4375 255.847656 L 789.011719 235.546875 L 789.011719 217.828125 C 783.46875 217.828125 778.960938 213.335938 778.960938 207.777344 Z M 669.203125 308.003906 C 663.144531 299.304688 627.601562 281.089844 621.222656 276.3125 C 618.605469 274.296875 611.605469 261.480469 610.5 260.625 C 609.394531 259.789062 593.128906 250.09375 591.953125 249.824219 C 590.777344 249.539062 588.480469 253.28125 592.648438 259.734375 C 589.40625 258.664062 577.414062 250.128906 575.957031 248.773438 C 574.496094 247.4375 571.414062 249.859375 572.019531 253.210938 C 568.1875 251.375 566.511719 256.152344 568.777344 260.609375 C 568.777344 260.609375 565.125 261.160156 570.664062 269.289062 C 567.582031 270.519531 570.644531 278.433594 579.535156 288.449219 C 581.761719 290.820312 604.550781 299.234375 604.550781 299.234375 C 604.550781 299.234375 622.542969 326.023438 640.5 347.09375 C 652.367188 360.996094 672.445312 364.492188 688.40625 355.578125 C 693.945312 352.476562 698.097656 350 697.742188 349.660156 C 696.691406 348.714844 669.203125 308.003906 669.203125 308.003906 Z M 669.203125 308.003906 " fill-opacity="1" fill-rule="nonzero"/><path fill="#e96852" d="M 1156.097656 494.789062 L 1156.097656 521.867188 L 1079.796875 521.867188 L 1079.796875 809.683594 L 1052.734375 809.683594 L 1052.734375 521.867188 L 542.390625 521.867188 L 542.390625 809.699219 L 515.328125 809.699219 L 515.328125 521.882812 L 438.472656 521.882812 L 438.472656 494.808594 L 926.226562 494.808594 L 1040.957031 491.082031 L 1060.234375 494.789062 Z M 1156.097656 494.789062 " fill-opacity="1" fill-rule="nonzero"/><path fill="#09262c" d="M 1065.523438 489.496094 C 1065.523438 492.417969 1063.15625 494.789062 1060.234375 494.789062 L 926.226562 494.808594 L 904.027344 430.886719 C 901.78125 424.4375 906.574219 417.699219 913.398438 417.699219 L 1002.832031 417.699219 C 1007.875 417.699219 1012.347656 420.886719 1014.003906 425.648438 L 1034.332031 484.203125 L 1060.234375 484.203125 C 1063.15625 484.203125 1065.523438 486.574219 1065.523438 489.496094 Z M 515.882812 95.945312 L 569.628906 113.179688 L 623.898438 67.246094 L 667.5625 169.453125 L 716.269531 101.308594 L 761.894531 101.308594 C 762.910156 101.308594 763.730469 100.488281 763.730469 99.472656 C 763.730469 98.457031 762.910156 97.636719 761.894531 97.636719 L 714.363281 97.636719 L 668.347656 162.019531 L 625.304688 61.257812 L 568.792969 109.082031 L 516.984375 92.449219 C 516.023438 92.148438 514.992188 92.679688 514.6875 93.644531 C 514.382812 94.605469 514.917969 95.640625 515.882812 95.945312 Z M 515.882812 95.945312 " fill-opacity="1" fill-rule="nonzero"/></svg>