<svg width="390" height="844" viewBox="0 0 390 844" fill="none" xmlns="http://www.w3.org/2000/svg">
<path d="M192.405 43.9139L195.565 54.9934L195.665 55.3432L196.029 55.3562L207.507 55.7649L197.981 62.208L197.681 62.4108L197.781 62.7591L200.942 73.8426L191.897 66.7421L191.611 66.5169L191.309 66.7211L181.788 73.1605L185.72 62.3297L185.843 61.9893L185.558 61.7656L176.508 54.6611L187.987 55.0698L188.35 55.0828L188.474 54.7409L192.405 43.9139Z" fill="#FBFBFB" stroke="#D9D9D9"/>
<path d="M32.7743 45.0138L32.1377 56.5249L32.1176 56.8883L32.4561 57.0207L43.1612 61.2083L32.0615 64.1371L31.7116 64.2294L31.6915 64.592L31.0547 76.1053L24.8335 66.4032L24.6366 66.0961L24.2854 66.1888L13.1891 69.1166L20.4416 60.1912L20.67 59.9102L20.4738 59.6042L14.2507 49.8992L24.9557 54.0868L25.2943 54.2192L25.5232 53.9375L32.7743 45.0138Z" fill="#FBFBFB" stroke="#D9D9D9"/>
<path d="M76.933 192.746L76.543 204.268L76.5307 204.632L76.872 204.757L87.6644 208.712L76.6298 211.88L76.2819 211.98L76.2697 212.343L75.8796 223.868L69.4521 214.303L69.2486 214L68.8994 214.1L57.8685 217.268L64.9282 208.188L65.1505 207.902L64.9479 207.6L58.5183 198.032L69.3106 201.987L69.6519 202.112L69.8748 201.825L76.933 192.746Z" fill="#FBFBFB" stroke="#D9D9D9"/>
<path d="M62.2162 115.299L61.8262 126.821L61.8139 127.185L62.1552 127.31L72.9476 131.264L61.913 134.433L61.5651 134.533L61.5529 134.896L61.1628 146.42L54.7353 136.856L54.5318 136.553L54.1826 136.653L43.1517 139.821L50.2114 130.74L50.4337 130.454L50.2311 130.153L43.8015 120.585L54.5938 124.539L54.9351 124.664L55.158 124.378L62.2162 115.299Z" fill="#FBFBFB" stroke="#D9D9D9"/>
<path d="M273.605 157.247L270.553 168.361L270.456 168.712L270.759 168.913L280.334 175.294L268.872 175.782L268.51 175.797L268.414 176.148L265.362 187.262L261.33 176.449L261.202 176.108L260.841 176.123L249.378 176.611L258.349 169.441L258.632 169.214L258.505 168.873L254.473 158.061L264.049 164.442L264.351 164.643L264.634 164.417L273.605 157.247Z" fill="#FBFBFB" stroke="#D9D9D9"/>
<path d="M159.854 346.985L166.912 356.064L167.135 356.35L167.476 356.225L178.268 352.271L171.839 361.839L171.636 362.14L171.858 362.426L178.918 371.507L167.887 368.339L167.538 368.239L167.335 368.542L160.907 378.106L160.517 366.582L160.505 366.219L160.157 366.119L149.122 362.95L159.915 358.996L160.256 358.871L160.244 358.507L159.854 346.985Z" fill="#FBFBFB" stroke="#D9D9D9"/>
<path d="M39.1914 318.353L42.3519 329.432L42.4517 329.782L42.8152 329.795L54.2937 330.204L44.7678 336.647L44.4678 336.85L44.5672 337.198L47.7289 348.281L38.6841 341.181L38.3972 340.956L38.0952 341.16L28.5747 347.599L32.5063 336.768L32.6299 336.428L32.345 336.204L23.295 329.1L34.7735 329.509L35.137 329.521L35.2611 329.18L39.1914 318.353Z" fill="#FBFBFB" stroke="#D9D9D9"/>
<path d="M292.969 264.469L298.758 274.416L298.941 274.73L299.296 274.651L310.517 272.185L302.874 280.802L302.633 281.074L302.816 281.387L308.606 291.336L298.096 286.712L297.762 286.566L297.52 286.839L289.881 295.452L291.025 283.979L291.061 283.618L290.729 283.472L280.214 278.846L291.435 276.38L291.79 276.302L291.826 275.939L292.969 264.469Z" fill="#FBFBFB" stroke="#D9D9D9"/>
<path d="M162.544 126.186L163.686 137.657L163.722 138.019L164.078 138.097L175.298 140.565L164.782 145.19L164.451 145.335L164.487 145.696L165.629 157.17L157.991 148.556L157.749 148.283L157.415 148.429L146.904 153.051L152.696 143.103L152.878 142.79L152.638 142.518L144.996 133.9L156.216 136.368L156.571 136.446L156.754 136.132L162.544 126.186Z" fill="#FBFBFB" stroke="#D9D9D9"/>
<path d="M192.462 260.958L191.805 272.468L191.784 272.832L192.123 272.965L202.82 277.171L191.716 280.08L191.365 280.172L191.345 280.535L190.688 292.047L184.484 282.334L184.287 282.026L183.936 282.118L172.835 285.027L180.103 276.114L180.331 275.833L180.136 275.527L173.93 265.811L184.627 270.018L184.966 270.151L185.195 269.869L192.462 260.958Z" fill="#FBFBFB" stroke="#D9D9D9"/>
<path d="M335.425 86.8348L345.432 81.2068L345.748 81.0291L345.678 80.6736L343.46 69.335L351.853 77.1958L352.119 77.4457L352.438 77.2661L362.437 71.6428L357.626 82.1347L357.475 82.4624L357.738 82.7082L366.142 90.5795L354.772 89.1934L354.409 89.1492L354.257 89.4822L349.452 99.96L347.233 88.6214L347.164 88.2659L346.805 88.2221L335.425 86.8348Z" fill="#FBFBFB" stroke="#D9D9D9"/>
<path d="M296.739 20.6833L298.63 32.0526L298.69 32.4115L299.049 32.4659L310.408 34.1832L300.217 39.4964L299.896 39.6637L299.956 40.0212L301.848 51.3942L293.662 43.3062L293.402 43.0497L293.079 43.2181L282.894 48.5285L288.021 38.2168L288.182 37.8926L287.924 37.6378L279.734 29.5455L291.092 31.2628L291.452 31.3172L291.613 30.9917L296.739 20.6833Z" fill="#FBFBFB" stroke="#D9D9D9"/>
<path d="M96.5046 7.6414L103.533 16.7433L103.755 17.0306L104.097 16.9067L114.902 12.9877L108.442 22.5345L108.238 22.8354L108.459 23.1221L115.49 32.2258L104.469 29.0219L104.12 28.9204L103.916 29.2226L97.4574 38.7661L97.1046 27.2404L97.0935 26.8775L96.746 26.7765L85.7217 23.5714L96.5267 19.6524L96.8685 19.5285L96.8573 19.1647L96.5046 7.6414Z" fill="#FBFBFB" stroke="#D9D9D9"/>
<path d="M99.9263 255.705L104.774 266.148L104.927 266.478L105.288 266.433L116.688 265.024L108.285 272.892L108.02 273.14L108.172 273.468L113.022 283.915L102.983 278.331L102.664 278.154L102.398 278.403L93.9987 286.266L96.1939 274.949L96.2629 274.593L95.9466 274.417L85.9017 268.83L97.3017 267.421L97.6626 267.376L97.7319 267.019L99.9263 255.705Z" fill="#FBFBFB" stroke="#D9D9D9"/>
<path d="M302.282 358.316L299.197 369.421L299.1 369.771L299.402 369.974L308.959 376.383L297.495 376.837L297.133 376.851L297.036 377.202L293.951 388.307L289.951 377.482L289.824 377.14L289.463 377.154L277.999 377.608L286.99 370.465L287.274 370.239L287.148 369.897L283.148 359.073L292.705 365.482L293.007 365.685L293.29 365.459L302.282 358.316Z" fill="#FBFBFB" stroke="#D9D9D9"/>
<path d="M89.8027 391.749L92.9633 402.829L93.063 403.178L93.4265 403.191L104.905 403.6L95.3791 410.043L95.0792 410.246L95.1785 410.594L98.3402 421.678L89.2954 414.577L89.0085 414.352L88.7065 414.556L79.186 420.996L83.1177 410.165L83.2412 409.824L82.9563 409.601L73.9064 402.496L85.3849 402.905L85.7483 402.918L85.8724 402.576L89.8027 391.749Z" fill="#FBFBFB" stroke="#D9D9D9"/>
<path d="M204.028 440.68L207.188 451.759L207.288 452.109L207.652 452.122L219.13 452.531L209.604 458.974L209.304 459.177L209.404 459.525L212.565 470.609L203.52 463.508L203.234 463.283L202.932 463.487L193.411 469.927L197.343 459.096L197.466 458.755L197.181 458.532L188.131 451.427L199.61 451.836L199.973 451.849L200.098 451.507L204.028 440.68Z" fill="#FBFBFB" stroke="#D9D9D9"/>
<path d="M322.475 465.726L320.892 477.145L320.842 477.505L321.168 477.665L331.491 482.733L320.189 484.724L319.832 484.787L319.782 485.147L318.198 496.567L312.798 486.378L312.627 486.056L312.27 486.119L300.97 488.109L308.933 479.821L309.184 479.56L309.014 479.238L303.613 469.047L313.936 474.115L314.262 474.275L314.513 474.013L322.475 465.726Z" fill="#FBFBFB" stroke="#D9D9D9"/>
<path d="M267.645 505.225L266.062 516.644L266.012 517.005L266.338 517.165L276.66 522.232L265.358 524.223L265.002 524.286L264.952 524.646L263.368 536.066L257.968 525.878L257.797 525.555L257.44 525.618L246.14 527.609L254.103 519.32L254.354 519.059L254.184 518.738L248.783 508.547L259.105 513.614L259.431 513.774L259.683 513.513L267.645 505.225Z" fill="#FBFBFB" stroke="#D9D9D9"/>
<path d="M161.505 558.604L168.213 567.947L168.425 568.242L168.771 568.13L179.706 564.593L172.918 573.908L172.704 574.201L172.915 574.495L179.626 583.841L168.723 580.251L168.378 580.138L168.163 580.433L161.378 589.743L161.425 578.212L161.426 577.849L161.083 577.736L150.176 574.145L161.11 570.608L161.456 570.497L161.458 570.133L161.505 558.604Z" fill="#FBFBFB" stroke="#D9D9D9"/>
<path d="M296.695 581.594L296.847 593.121L296.852 593.485L297.199 593.594L308.165 597.03L297.291 600.721L296.948 600.837L296.953 601.2L297.105 612.73L290.236 603.482L290.018 603.19L289.674 603.306L278.804 606.996L285.429 597.589L285.638 597.293L285.421 597.002L278.549 587.75L289.515 591.186L289.862 591.295L290.071 590.998L296.695 581.594Z" fill="#FBFBFB" stroke="#D9D9D9"/>
<path d="M52.9642 591.524L55.0607 602.857L55.1268 603.215L55.4874 603.263L66.8747 604.772L56.7819 610.271L56.4641 610.444L56.53 610.8L58.6272 622.136L50.2962 614.2L50.0321 613.948L49.7122 614.122L39.6248 619.618L44.5647 609.214L44.72 608.887L44.4575 608.637L36.1221 600.696L47.5095 602.205L47.87 602.253L48.0259 601.925L52.9642 591.524Z" fill="#FBFBFB" stroke="#D9D9D9"/>
<path d="M52.9642 591.524L55.0607 602.857L55.1268 603.215L55.4874 603.263L66.8747 604.772L56.7819 610.271L56.4641 610.444L56.53 610.8L58.6272 622.136L50.2962 614.2L50.0321 613.948L49.7122 614.122L39.6248 619.618L44.5647 609.214L44.72 608.887L44.4575 608.637L36.1221 600.696L47.5095 602.205L47.87 602.253L48.0259 601.925L52.9642 591.524Z" fill="#FBFBFB" stroke="#D9D9D9"/>
<path d="M159.519 669.364L165.745 679.039L165.941 679.345L166.292 679.251L177.392 676.281L170.14 685.234L169.912 685.516L170.108 685.821L176.335 695.499L165.629 691.354L165.29 691.222L165.06 691.506L157.811 700.455L158.444 688.941L158.464 688.579L158.126 688.449L147.416 684.301L158.516 681.332L158.867 681.238L158.887 680.874L159.519 669.364Z" fill="#FBFBFB" stroke="#D9D9D9"/>
<path d="M332.505 640.346L338.73 650.021L338.927 650.327L339.278 650.233L350.378 647.263L343.126 656.216L342.898 656.498L343.094 656.803L349.321 666.481L338.615 662.336L338.276 662.204L338.046 662.488L330.797 671.437L331.43 659.923L331.449 659.561L331.112 659.43L320.401 655.283L331.501 652.313L331.853 652.219L331.873 651.856L332.505 640.346Z" fill="#FBFBFB" stroke="#D9D9D9"/>
<path d="M263.321 697.741L261.877 709.179L261.832 709.54L262.16 709.696L272.543 714.635L261.266 716.766L260.911 716.833L260.865 717.194L259.421 728.633L253.897 718.512L253.722 718.192L253.366 718.259L242.091 720.39L249.952 712.003L250.2 711.739L250.026 711.419L244.501 701.296L254.884 706.235L255.213 706.391L255.461 706.127L263.321 697.741Z" fill="#FBFBFB" stroke="#D9D9D9"/>
<path d="M57.0904 697.566L55.6464 709.004L55.6008 709.365L55.929 709.521L66.3127 714.461L55.0357 716.591L54.68 716.659L54.6345 717.019L53.1904 728.458L47.6662 718.337L47.4915 718.017L47.1349 718.084L35.8603 720.215L43.7216 711.828L43.9694 711.564L43.7952 711.245L38.2699 701.121L48.6536 706.061L48.9818 706.217L49.23 705.952L57.0904 697.566Z" fill="#FBFBFB" stroke="#D9D9D9"/>
<path d="M155.571 763.348L163.222 771.927L163.463 772.198L163.795 772.05L174.298 767.373L168.524 777.355L168.342 777.669L168.583 777.94L176.235 786.521L165.016 784.108L164.661 784.032L164.479 784.348L158.706 794.327L157.545 782.856L157.509 782.494L157.155 782.418L145.934 780.005L156.437 775.328L156.769 775.18L156.732 774.818L155.571 763.348Z" fill="#FBFBFB" stroke="#D9D9D9"/>
<path d="M57.6676 815.776L46.4868 818.319L46.1337 818.399L46.1004 818.76L45.0369 830.266L39.2006 820.334L39.0151 820.019L38.6583 820.1L27.4872 822.641L35.054 813.951L35.2902 813.68L35.1078 813.369L29.2633 803.423L39.777 807.995L40.1128 808.141L40.353 807.865L47.9092 799.188L46.8458 810.694L46.8125 811.055L47.1447 811.199L57.6676 815.776Z" fill="#FBFBFB" stroke="#D9D9D9"/>
<path d="M295.041 829.006L284.358 824.834L284.021 824.703L283.792 824.984L276.528 833.935L277.194 822.41L277.215 822.045L276.876 821.912L266.197 817.742L277.291 814.786L277.639 814.693L277.66 814.331L278.327 802.798L284.515 812.501L284.711 812.808L285.062 812.715L296.148 809.76L288.884 818.711L288.655 818.993L288.85 819.3L295.041 829.006Z" fill="#FBFBFB" stroke="#D9D9D9"/>
<path d="M335.335 767.267L328.046 758.375L327.815 758.094L327.477 758.228L316.79 762.462L322.972 752.73L323.167 752.424L322.937 752.144L315.647 743.25L326.755 746.129L327.107 746.221L327.303 745.913L333.482 736.184L334.168 747.694L334.19 748.057L334.54 748.147L345.652 751.028L334.965 755.262L334.627 755.396L334.649 755.759L335.335 767.267Z" fill="#FBFBFB" stroke="#D9D9D9"/>
<path d="M19.1154 485.356L22.276 496.435L22.3758 496.785L22.7393 496.798L34.2178 497.207L24.6918 503.65L24.3919 503.853L24.4913 504.201L27.6529 515.285L18.6081 508.184L18.3213 507.959L18.0193 508.163L8.49873 514.603L12.4304 503.772L12.554 503.431L12.269 503.208L3.2191 496.103L14.6976 496.512L15.0611 496.525L15.1852 496.183L19.1154 485.356Z" fill="#FBFBFB" stroke="#D9D9D9"/>
<path d="M134.703 501.602L136.108 513.042L136.153 513.404L136.51 513.473L147.784 515.68L137.377 520.548L137.049 520.701L137.093 521.061L138.499 532.505L130.665 524.071L130.416 523.804L130.087 523.958L119.684 528.824L125.246 518.743L125.421 518.426L125.174 518.16L117.336 509.722L128.611 511.928L128.968 511.998L129.143 511.679L134.703 501.602Z" fill="#FBFBFB" stroke="#D9D9D9"/>
<path d="M372.034 188.579L375.194 199.659L375.294 200.009L375.658 200.022L387.136 200.43L377.61 206.873L377.31 207.076L377.41 207.425L380.571 218.508L371.527 211.407L371.24 211.182L370.938 211.387L361.417 217.826L365.349 206.995L365.472 206.655L365.187 206.431L356.138 199.326L367.616 199.735L367.98 199.748L368.104 199.406L372.034 188.579Z" fill="#FBFBFB" stroke="#D9D9D9"/>
</svg>
