<svg width="14" height="14" viewBox="0 0 14 14" fill="none" xmlns="http://www.w3.org/2000/svg">
<path d="M6.83594 12.4142H12.8605" stroke="#808080" stroke-width="1.33333" stroke-linecap="round" stroke-linejoin="round"/>
<path d="M9.84841 1.41421C10.1147 1.149 10.4759 1 10.8525 1C11.039 1 11.2236 1.03658 11.3959 1.10765C11.5682 1.17872 11.7247 1.28289 11.8566 1.41421C11.9885 1.54554 12.0931 1.70144 12.1644 1.87302C12.2358 2.0446 12.2725 2.2285 12.2725 2.41421C12.2725 2.59993 12.2358 2.78383 12.1644 2.95541C12.0931 3.12699 11.9885 3.28289 11.8566 3.41421L3.48912 11.7475L0.811523 12.4142L1.48092 9.74755L9.84841 1.41421Z" stroke="#808080" stroke-width="1.33333" stroke-linecap="round" stroke-linejoin="round"/>
<path d="M9.84841 1.41421C10.1147 1.149 10.4759 1 10.8525 1C11.039 1 11.2236 1.03658 11.3959 1.10765C11.5682 1.17872 11.7247 1.28289 11.8566 1.41421C11.9885 1.54554 12.0931 1.70144 12.1644 1.87302C12.2358 2.0446 12.2725 2.2285 12.2725 2.41421C12.2725 2.59993 12.2358 2.78383 12.1644 2.95541C12.0931 3.12699 11.9885 3.28289 11.8566 3.41421L3.48912 11.7475L0.811523 12.4142L1.48092 9.74755L9.84841 1.41421Z" stroke="#808080" stroke-width="1.33333" stroke-linecap="round" stroke-linejoin="round"/>
</svg>
