<svg width="18" height="23" viewBox="0 0 18 23" fill="none" xmlns="http://www.w3.org/2000/svg">
<path d="M17.0804 22.9997C16.9022 22.9988 16.7281 22.9481 16.5792 22.8538L8.97931 18.0592L1.37939 22.8538C1.24327 22.9376 1.0866 22.9853 0.925171 22.9923C0.76374 22.9993 0.603246 22.9653 0.459855 22.8936C0.318164 22.8149 0.200859 22.7013 0.120039 22.5644C0.0392192 22.4276 -0.00218799 22.2725 8.90976e-05 22.1151V0.884605C8.90976e-05 0.649993 0.0969682 0.424991 0.269414 0.259095C0.441859 0.0931992 0.675746 0 0.919621 0L17.0804 0C17.3243 0 17.5581 0.0931992 17.7306 0.259095C17.903 0.424991 17.9999 0.649993 17.9999 0.884605V22.1151C18.0022 22.2725 17.9608 22.4276 17.88 22.5644C17.7991 22.7013 17.6818 22.8149 17.5401 22.8936C17.3991 22.9669 17.2406 23.0035 17.0804 22.9997ZM8.97931 16.1175C9.15827 16.1187 9.33337 16.1677 9.48505 16.259L16.1608 20.4786V1.76921H1.79777V20.4786L8.47357 16.259C8.62526 16.1677 8.80035 16.1187 8.97931 16.1175Z" fill="black"/>
</svg>
