<svg xmlns="http://www.w3.org/2000/svg" xmlns:xlink="http://www.w3.org/1999/xlink" width="1920" zoomAndPan="magnify" viewBox="0 0 1440 809.999993" height="1080" preserveAspectRatio="xMidYMid meet" version="1.0"><defs><clipPath id="c59a477525"><path d="M 171.355469 0 L 1268.46875 0 L 1268.46875 810 L 171.355469 810 Z M 171.355469 0 " clip-rule="nonzero"/></clipPath></defs><path fill="#f6f4e7" d="M 1260.882812 91.265625 L 1260.882812 439.058594 C 1260.882812 484.949219 1223.691406 522.152344 1177.8125 522.152344 L 1128.121094 522.152344 L 1153.75 629.65625 L 953.722656 522.152344 L 615.773438 522.152344 C 569.894531 522.152344 532.699219 484.949219 532.699219 439.058594 L 532.699219 91.265625 C 532.699219 45.375 569.894531 8.171875 615.773438 8.171875 L 1177.8125 8.171875 C 1223.691406 8.171875 1260.882812 45.375 1260.882812 91.265625 Z M 1260.882812 91.265625 " fill-opacity="1" fill-rule="nonzero"/><path fill="#ec6a2c" d="M 907.109375 263.519531 L 907.109375 611.3125 C 907.109375 657.207031 869.917969 694.40625 824.039062 694.40625 L 486.085938 694.40625 L 286.0625 801.910156 L 311.691406 694.40625 L 262 694.40625 C 216.121094 694.40625 178.925781 657.207031 178.925781 611.3125 L 178.925781 263.519531 C 178.925781 217.628906 216.121094 180.425781 262 180.425781 L 824.039062 180.425781 C 869.917969 180.425781 907.109375 217.628906 907.109375 263.519531 Z M 907.109375 263.519531 " fill-opacity="1" fill-rule="nonzero"/><g clip-path="url(#c59a477525)"><path fill="#000000" d="M 1177.808594 0.492188 L 615.769531 0.492188 C 565.734375 0.492188 525.027344 41.210938 525.027344 91.261719 L 525.027344 172.746094 L 262 172.746094 C 211.960938 172.746094 171.25 213.46875 171.25 263.519531 L 171.25 611.3125 C 171.25 661.367188 211.960938 702.085938 262 702.085938 L 301.96875 702.085938 L 278.59375 800.128906 C 277.890625 803.070312 278.984375 806.148438 281.378906 807.996094 C 282.75 809.050781 284.402344 809.589844 286.0625 809.589844 C 287.304688 809.589844 288.554688 809.289062 289.695312 808.675781 L 488.019531 702.085938 L 824.039062 702.085938 C 874.078125 702.085938 914.789062 661.367188 914.789062 611.3125 L 914.789062 529.835938 L 951.78125 529.835938 L 1150.109375 636.414062 C 1151.25 637.027344 1152.496094 637.328125 1153.742188 637.328125 C 1155.402344 637.328125 1157.054688 636.792969 1158.425781 635.734375 C 1160.820312 633.890625 1161.914062 630.8125 1161.210938 627.867188 L 1137.835938 529.835938 L 1177.808594 529.835938 C 1227.84375 529.835938 1268.550781 489.117188 1268.550781 439.070312 L 1268.550781 91.261719 C 1268.550781 41.210938 1227.84375 0.492188 1177.808594 0.492188 Z M 824.039062 686.726562 L 486.085938 686.726562 C 484.820312 686.726562 483.570312 687.042969 482.453125 687.640625 L 297.5 787.046875 L 319.160156 696.1875 C 319.703125 693.902344 319.171875 691.492188 317.71875 689.648438 C 316.261719 687.804688 314.042969 686.726562 311.691406 686.726562 L 262 686.726562 C 220.425781 686.726562 186.605469 652.898438 186.605469 611.3125 L 186.605469 263.519531 C 186.605469 221.9375 220.425781 188.105469 262 188.105469 L 532.675781 188.105469 C 532.683594 188.105469 532.695312 188.109375 532.707031 188.109375 C 532.71875 188.109375 532.726562 188.105469 532.738281 188.105469 L 824.039062 188.105469 C 865.613281 188.105469 899.433594 221.9375 899.433594 263.519531 L 899.433594 326.382812 C 899.433594 326.390625 899.433594 326.398438 899.433594 326.40625 C 899.433594 326.410156 899.433594 326.417969 899.433594 326.425781 L 899.433594 423.75 C 899.433594 423.757812 899.433594 423.765625 899.433594 423.773438 C 899.433594 423.78125 899.433594 423.785156 899.433594 423.792969 L 899.433594 522.136719 C 899.433594 522.144531 899.433594 522.152344 899.433594 522.15625 C 899.433594 522.164062 899.433594 522.171875 899.433594 522.179688 L 899.433594 611.3125 C 899.433594 652.898438 865.613281 686.726562 824.039062 686.726562 Z M 1253.195312 439.070312 C 1253.195312 480.648438 1219.378906 514.476562 1177.808594 514.476562 L 1128.109375 514.476562 C 1125.761719 514.476562 1123.542969 515.554688 1122.085938 517.398438 C 1120.628906 519.242188 1120.097656 521.65625 1120.644531 523.941406 L 1142.304688 614.785156 L 957.347656 515.394531 C 956.230469 514.792969 954.980469 514.476562 953.714844 514.476562 L 914.789062 514.476562 L 914.789062 431.453125 L 1171.949219 431.453125 C 1176.191406 431.453125 1179.628906 428.015625 1179.628906 423.773438 C 1179.628906 419.53125 1176.191406 416.09375 1171.949219 416.09375 L 914.789062 416.09375 L 914.789062 334.085938 L 1171.949219 334.085938 C 1176.191406 334.085938 1179.628906 330.644531 1179.628906 326.40625 C 1179.628906 322.164062 1176.191406 318.722656 1171.949219 318.722656 L 914.789062 318.722656 L 914.789062 263.519531 C 914.789062 254.195312 913.371094 245.191406 910.746094 236.714844 L 1171.949219 236.714844 C 1176.191406 236.714844 1179.628906 233.277344 1179.628906 229.035156 C 1179.628906 224.792969 1176.191406 221.355469 1171.949219 221.355469 L 904.367188 221.355469 C 889.160156 192.484375 858.867188 172.746094 824.039062 172.746094 L 540.382812 172.746094 L 540.382812 91.261719 C 540.382812 49.679688 574.203125 15.851562 615.769531 15.851562 L 1177.808594 15.851562 C 1219.378906 15.851562 1253.195312 49.679688 1253.195312 91.261719 Z M 1179.625 131.679688 C 1179.625 135.921875 1176.1875 139.359375 1171.949219 139.359375 L 621.636719 139.359375 C 617.394531 139.359375 613.957031 135.921875 613.957031 131.679688 C 613.957031 127.4375 617.394531 124 621.636719 124 L 1171.949219 124 C 1176.1875 124 1179.625 127.4375 1179.625 131.679688 Z M 825.851562 303.933594 C 825.851562 308.175781 822.414062 311.613281 818.175781 311.613281 L 267.863281 311.613281 C 263.621094 311.613281 260.183594 308.175781 260.183594 303.933594 C 260.183594 299.691406 263.621094 296.253906 267.863281 296.253906 L 818.175781 296.253906 C 822.414062 296.253906 825.851562 299.691406 825.851562 303.933594 Z M 825.851562 401.296875 C 825.851562 405.539062 822.414062 408.976562 818.175781 408.976562 L 267.863281 408.976562 C 263.621094 408.976562 260.183594 405.539062 260.183594 401.296875 C 260.183594 397.054688 263.621094 393.617188 267.863281 393.617188 L 818.175781 393.617188 C 822.414062 393.617188 825.851562 397.054688 825.851562 401.296875 Z M 825.851562 498.65625 C 825.851562 502.898438 822.414062 506.335938 818.175781 506.335938 L 267.863281 506.335938 C 263.621094 506.335938 260.183594 502.898438 260.183594 498.65625 C 260.183594 494.417969 263.621094 490.976562 267.863281 490.976562 L 818.175781 490.976562 C 822.414062 490.976562 825.851562 494.417969 825.851562 498.65625 Z M 825.851562 596.019531 C 825.851562 600.257812 822.414062 603.699219 818.175781 603.699219 L 267.863281 603.699219 C 263.621094 603.699219 260.183594 600.257812 260.183594 596.019531 C 260.183594 591.777344 263.621094 588.339844 267.863281 588.339844 L 818.175781 588.339844 C 822.414062 588.339844 825.851562 591.777344 825.851562 596.019531 Z M 825.851562 596.019531 " fill-opacity="1" fill-rule="nonzero"/></g></svg>