<svg xmlns="http://www.w3.org/2000/svg" xmlns:xlink="http://www.w3.org/1999/xlink" width="1920" zoomAndPan="magnify" viewBox="0 0 1440 809.999993" height="1080" preserveAspectRatio="xMidYMid meet" version="1.0"><path fill="#ff9300" d="M 969.363281 626.621094 C 974 646.261719 970.738281 666.53125 960.140625 683.703125 C 953.914062 693.773438 945.628906 702.082031 935.851562 708.15625 C 939.710938 726.171875 936.539062 744.683594 926.820312 760.40625 C 916.835938 776.585938 901.160156 787.898438 882.679688 792.273438 L 816.234375 807.996094 C 810.753906 809.292969 805.214844 809.921875 799.71875 809.921875 C 786.675781 809.921875 773.863281 806.3125 762.484375 799.28125 C 746.75 789.558594 735.621094 774.449219 731 756.585938 C 699.648438 753.644531 672.191406 731.082031 664.535156 698.757812 L 648.515625 630.996094 C 644.699219 614.875 646.226562 598.3125 652.773438 583.410156 C 636.542969 562.683594 616.152344 545.585938 592.648438 533.128906 C 522.003906 495.6875 471.023438 430.0625 452.828125 353.074219 C 417.5625 203.914062 512.457031 53.320312 664.363281 17.367188 C 737.757812 0 813.425781 11.652344 877.445312 50.203125 C 941.808594 88.964844 986.699219 150.214844 1003.824219 222.671875 C 1022.039062 299.660156 1005.867188 381.195312 959.472656 446.339844 C 944.023438 468.023438 933.464844 492.476562 928.234375 518.304688 C 940.378906 528.410156 949.449219 542.375 953.363281 558.898438 Z M 969.363281 626.621094 " fill-opacity="1" fill-rule="nonzero"/><path fill="#000000" d="M 918.039062 567.230469 C 914.507812 552.328125 902.859375 541.457031 888.902344 538.113281 C 892.128906 497.40625 906.183594 458.566406 929.914062 425.25 C 970.242188 368.625 984.3125 297.828125 968.523438 231.003906 C 953.648438 168.132812 914.660156 114.964844 858.734375 81.285156 C 802.886719 47.664062 736.824219 37.5 672.726562 52.667969 C 540.277344 84.039062 457.46875 215.050781 488.152344 344.726562 C 503.941406 411.535156 548.238281 468.519531 609.660156 501.074219 C 645.804688 520.214844 675.742188 548.621094 696.859375 583.5625 C 693.691406 586.238281 690.902344 589.390625 688.652344 593.019531 C 683.152344 601.941406 681.453125 612.46875 683.859375 622.667969 L 699.878906 690.429688 C 704.136719 708.464844 720.289062 720.632812 738.046875 720.632812 C 741.023438 720.632812 744.058594 720.289062 747.078125 719.582031 L 758.875 716.792969 L 765.980469 746.785156 C 768.117188 755.839844 773.65625 763.519531 781.578125 768.410156 C 787.152344 771.851562 793.433594 773.625 799.8125 773.625 C 802.503906 773.625 805.214844 773.300781 807.90625 772.671875 L 874.351562 756.929688 C 883.402344 754.789062 891.078125 749.25 895.984375 741.320312 C 900.875 733.394531 902.382812 724.050781 900.242188 714.996094 L 893.140625 684.984375 L 904.941406 682.195312 C 915.136719 679.789062 923.785156 673.542969 929.285156 664.621094 C 934.785156 655.699219 936.484375 645.171875 934.078125 634.972656 Z M 895.738281 572.5 L 901.101562 595.214844 L 711.503906 640.109375 L 706.140625 617.375 C 705.128906 613.136719 705.855469 608.761719 708.125 605.054688 C 710.417969 601.347656 714.007812 598.75 718.246094 597.757812 L 876.109375 560.390625 C 877.371094 560.085938 878.628906 559.949219 879.871094 559.949219 C 887.261719 559.933594 893.960938 565.011719 895.738281 572.5 Z M 773.671875 343.046875 L 822.496094 549.519531 L 811.992188 552.003906 L 761.300781 564 L 712.480469 357.527344 Z M 620.371094 480.804688 C 564.792969 451.347656 524.714844 399.824219 510.453125 339.4375 C 482.691406 222.0625 557.839844 103.429688 677.976562 74.980469 C 695.640625 70.796875 713.453125 68.734375 731.113281 68.734375 C 771.726562 68.734375 811.574219 79.664062 846.898438 100.925781 C 897.496094 131.394531 932.761719 179.460938 946.203125 236.277344 C 960.484375 296.664062 947.730469 360.699219 911.242188 411.933594 C 884.511719 449.453125 868.890625 493.316406 865.800781 539.242188 L 844.796875 544.210938 L 795.269531 334.753906 C 813.292969 323.828125 847.679688 301.839844 855.792969 288.675781 C 861.597656 279.277344 863.394531 268.179688 860.855469 257.421875 C 858.316406 246.667969 851.726562 237.554688 842.332031 231.746094 C 832.941406 225.941406 821.847656 224.144531 811.097656 226.683594 C 800.347656 229.226562 791.238281 235.816406 785.433594 245.214844 C 777.320312 258.378906 773.082031 298.992188 771.382812 320.007812 L 704.210938 335.902344 C 693.289062 317.867188 671.3125 283.460938 658.160156 275.34375 C 638.757812 263.363281 613.230469 269.402344 601.261719 288.8125 C 595.457031 298.210938 593.660156 309.308594 596.199219 320.066406 C 598.738281 330.820312 605.328125 339.933594 614.722656 345.738281 C 627.875 353.859375 668.46875 358.101562 689.472656 359.800781 L 739 569.253906 L 717.996094 574.222656 C 694.683594 534.582031 661.078125 502.371094 620.371094 480.804688 Z M 795.574219 307.550781 C 798 284.53125 801.605469 262.675781 804.929688 257.269531 C 807.507812 253.085938 811.574219 250.144531 816.367188 249.019531 C 817.78125 248.675781 819.210938 248.519531 820.644531 248.519531 C 824.023438 248.519531 827.34375 249.457031 830.285156 251.273438 C 834.46875 253.851562 837.40625 257.921875 838.535156 262.714844 C 839.660156 267.511719 838.859375 272.457031 836.28125 276.640625 C 832.957031 282.066406 815.050781 295.078125 795.574219 307.550781 Z M 677.023438 335.613281 C 654.015625 333.1875 632.191406 329.597656 626.769531 326.253906 C 618.121094 320.90625 615.425781 309.519531 620.773438 300.882812 C 624.25 295.25 630.300781 292.136719 636.488281 292.136719 C 639.789062 292.136719 643.132812 293.015625 646.128906 294.886719 C 651.53125 298.210938 664.535156 316.128906 677.023438 335.613281 Z M 870.820312 690.277344 L 877.90625 720.289062 C 878.628906 723.382812 878.113281 726.59375 876.453125 729.304688 C 874.773438 732.019531 872.15625 733.910156 869.046875 734.65625 L 802.601562 750.394531 C 796.203125 751.90625 789.769531 747.933594 788.261719 741.53125 L 781.160156 711.539062 L 848.289062 695.644531 Z M 909.769531 652.585938 C 907.480469 656.292969 903.890625 658.890625 899.652344 659.902344 L 875.402344 665.632812 L 764.738281 691.824219 C 764.738281 691.824219 764.71875 691.824219 764.71875 691.824219 L 741.789062 697.25 C 733.042969 699.3125 724.222656 693.886719 722.160156 685.117188 L 716.792969 662.402344 L 906.390625 617.53125 L 911.757812 640.261719 C 912.769531 644.503906 912.0625 648.878906 909.769531 652.585938 Z M 909.769531 652.585938 " fill-opacity="1" fill-rule="nonzero"/></svg>