<svg xmlns="http://www.w3.org/2000/svg" xmlns:xlink="http://www.w3.org/1999/xlink" width="590" zoomAndPan="magnify" viewBox="0 0 442.5 434.999989" height="580" preserveAspectRatio="xMidYMid meet" version="1.0"><defs><clipPath id="96e69b8351"><path d="M 102.988281 1 L 338.96875 1 L 338.96875 434.753906 L 102.988281 434.753906 Z M 102.988281 1 " clip-rule="nonzero"/></clipPath></defs><g clip-path="url(#96e69b8351)"><path fill="#ffda54" d="M 339.015625 201.144531 C 339.015625 229.742188 317.488281 253.65625 281.527344 266.460938 L 256.65625 406.160156 C 253.585938 423.464844 238.582031 436.019531 221.011719 436.019531 C 203.421875 436.019531 188.417969 423.464844 185.347656 406.160156 L 160.472656 266.460938 C 124.511719 253.65625 102.988281 229.742188 102.988281 201.144531 C 102.988281 174.207031 122.453125 151.160156 155.109375 137.890625 L 157.570312 106.890625 C 141.558594 95.789062 132.507812 80.3125 132.507812 62.859375 C 132.507812 42.859375 144.714844 24.941406 165.984375 13.691406 C 181.222656 5.65625 200.746094 1.21875 221.011719 1.21875 C 241.253906 1.21875 260.800781 5.65625 276.015625 13.691406 C 297.289062 24.941406 309.492188 42.859375 309.492188 62.855469 C 309.492188 80.308594 300.445312 95.789062 284.433594 106.914062 L 286.914062 137.890625 C 319.570312 151.15625 339.015625 174.207031 339.015625 201.144531 Z M 339.015625 201.144531 " fill-opacity="1" fill-rule="nonzero"/></g><path fill="#fd741b" d="M 255.585938 232.160156 L 225.585938 400.636719 C 224.675781 405.75 217.332031 405.75 216.421875 400.636719 L 186.421875 232.160156 Z M 255.585938 232.160156 " fill-opacity="1" fill-rule="nonzero"/><path fill="#5260cb" d="M 307.457031 201.140625 C 307.457031 225.226562 268.75 244.753906 221.003906 244.753906 C 173.253906 244.753906 134.546875 225.226562 134.546875 201.140625 C 134.546875 183.5625 155.175781 168.421875 184.878906 161.515625 L 190.71875 88.3125 C 174.710938 82.992188 164.066406 73.578125 164.066406 62.847656 C 164.066406 46.238281 189.558594 32.773438 221 32.773438 C 252.445312 32.773438 277.9375 46.238281 277.9375 62.847656 C 277.9375 73.578125 267.292969 82.992188 251.285156 88.3125 L 257.125 161.515625 C 286.828125 168.421875 307.457031 183.5625 307.457031 201.140625 Z M 307.457031 201.140625 " fill-opacity="1" fill-rule="nonzero"/><path fill="#ffffff" d="M 225.726562 224.957031 C 225.726562 227.566406 223.609375 229.679688 221.003906 229.679688 C 192.667969 229.679688 167.753906 221.742188 157.535156 209.464844 C 155.867188 207.460938 156.140625 204.484375 158.144531 202.816406 C 160.148438 201.148438 163.128906 201.421875 164.796875 203.429688 C 173.035156 213.328125 196.148438 220.238281 221.003906 220.238281 C 223.609375 220.238281 225.726562 222.351562 225.726562 224.957031 Z M 274.804688 212.121094 C 273.546875 209.839844 270.675781 209.007812 268.386719 210.265625 C 264.414062 212.457031 259.667969 214.351562 254.28125 215.898438 C 251.777344 216.617188 250.328125 219.230469 251.046875 221.738281 C 251.644531 223.808594 253.53125 225.15625 255.585938 225.15625 C 256.019531 225.15625 256.457031 225.09375 256.894531 224.96875 C 262.953125 223.230469 268.355469 221.0625 272.949219 218.53125 C 275.234375 217.273438 276.0625 214.402344 274.804688 212.121094 Z M 195.464844 81.449219 C 195.957031 81.613281 196.457031 81.6875 196.949219 81.6875 C 198.929688 81.6875 200.773438 80.429688 201.429688 78.449219 C 202.25 75.972656 200.90625 73.304688 198.429688 72.484375 C 189.421875 69.507812 183.601562 64.832031 183.601562 60.570312 C 183.601562 59.414062 184 58.269531 184.824219 57.0625 C 186.296875 54.910156 185.742188 51.972656 183.589844 50.503906 C 181.4375 49.035156 178.5 49.585938 177.027344 51.734375 C 175.121094 54.519531 174.15625 57.492188 174.15625 60.570312 C 174.15625 69.363281 181.921875 76.972656 195.464844 81.449219 Z M 195.464844 81.449219 " fill-opacity="1" fill-rule="nonzero"/></svg>